<?xml version="1.0" standalone="no"?>
<!DOCTYPE svg PUBLIC "-//W3C//DTD SVG 20010904//EN"
 "http://www.w3.org/TR/2001/REC-SVG-20010904/DTD/svg10.dtd">
<svg version="1.0" xmlns="http://www.w3.org/2000/svg"
 width="700.000000pt" height="700.000000pt" viewBox="0 0 700.000000 700.000000"
 preserveAspectRatio="xMidYMid meet">
<metadata>
Created by potrace 1.11, written by Peter Selinger 2001-2013
</metadata>
<g transform="translate(0.000000,700.000000) scale(0.100000,-0.100000)"
fill="#000000" stroke="none">
<path d="M0 3500 l0 -3500 3500 0 3500 0 0 3500 0 3500 -3500 0 -3500 0 0
-3500z m6500 0 l0 -3000 -22 0 c-26 0 -5690 0 -5865 0 l-113 0 0 3000 0 3000
3000 0 3000 0 0 -3000z"/>
<path d="M4448 5085 c-2 -1 -25 -5 -53 -8 -55 -7 -90 -14 -120 -27 -126 -52
-209 -122 -272 -229 -24 -39 -43 -77 -43 -84 0 -7 -4 -17 -9 -22 -11 -11 -47
-149 -56 -215 -7 -47 -8 -1946 -2 -1990 37 -247 148 -435 306 -519 84 -44 162
-63 274 -66 260 -6 430 94 546 322 31 61 66 180 77 258 4 31 8 829 5 966 l-1
26 -287 -1 -288 -1 -1 -180 c0 -99 1 -185 4 -192 2 -7 23 -12 50 -11 26 0 52
-1 58 -1 11 -1 12 -574 1 -619 -12 -47 -51 -101 -81 -114 -93 -38 -174 11
-203 124 -9 37 -10 1949 -1 1993 14 63 38 103 73 125 60 37 136 25 172 -27 43
-60 47 -96 48 -378 l1 -270 227 -3 227 -2 1 32 c2 132 -2 508 -6 528 -3 14 -7
41 -10 60 -3 20 -14 65 -26 100 -70 215 -215 362 -402 405 -59 14 -201 28
-209 20z"/>
<path d="M1899 5029 c0 -31 0 -3061 0 -3073 1 -9 573 -1 636 9 293 50 454 171
531 402 24 73 50 188 60 263 11 96 14 120 19 185 12 152 15 306 16 680 0 478
-10 724 -36 883 -43 262 -93 381 -203 489 -75 74 -192 129 -322 152 -36 6 -78
14 -95 17 -16 3 -159 8 -317 11 l-288 5 -1 -23z m612 -454 c53 -19 96 -58 116
-104 15 -34 18 -45 29 -105 2 -16 7 -32 9 -35 14 -24 20 -261 20 -831 0 -773
-4 -846 -59 -965 -26 -56 -71 -105 -98 -105 -9 0 -19 -4 -22 -8 -3 -5 -31 -10
-62 -11 -32 -1 -60 -2 -63 -3 -3 0 -11 0 -17 1 -7 1 -10 333 -10 1091 l0 1090
57 0 c31 0 76 -7 100 -15z"/>
</g>
</svg>
