<?xml version="1.0" standalone="no"?>
<!DOCTYPE svg PUBLIC "-//W3C//DTD SVG 20010904//EN"
 "http://www.w3.org/TR/2001/REC-SVG-20010904/DTD/svg10.dtd">
<svg version="1.0" xmlns="http://www.w3.org/2000/svg"
 width="700.000000pt" height="700.000000pt" viewBox="0 0 700.000000 700.000000"
 preserveAspectRatio="xMidYMid meet">
<metadata>
Created by potrace 1.11, written by Peter Selinger 2001-2013
</metadata>
<g transform="translate(0.000000,700.000000) scale(0.100000,-0.100000)"
fill="#000000" stroke="none">
<path d="M3290 6994 c-19 -2 -87 -9 -150 -15 -602 -57 -1217 -295 -1716 -664
-784 -581 -1280 -1436 -1401 -2415 -24 -202 -24 -611 0 -805 126 -982 606
-1816 1379 -2398 484 -364 1016 -581 1648 -673 143 -21 589 -30 750 -15 709
65 1341 317 1888 754 163 129 420 386 549 549 336 420 568 905 683 1423 65
291 84 508 77 850 -7 313 -28 480 -97 761 -194 790 -685 1514 -1355 1995 -473
341 -1006 550 -1600 630 -142 19 -563 34 -655 23z m-1650 -1788 c169 -118 336
-250 411 -323 l66 -65 40 11 c61 17 322 69 427 85 757 121 1486 95 2243 -79
l62 -14 59 58 c111 109 569 449 583 433 11 -12 37 -103 58 -202 36 -171 62
-423 81 -775 13 -234 12 -938 0 -1130 -24 -370 -97 -662 -230 -930 -89 -177
-178 -303 -305 -430 -129 -128 -255 -217 -430 -304 -171 -85 -333 -140 -552
-187 -22 -4 -23 -8 -23 -117 0 -185 -18 -256 -84 -334 -51 -59 -116 -87 -213
-91 -105 -5 -166 14 -231 73 -75 68 -94 121 -100 283 l-5 132 -104 0 c-114 0
-347 22 -488 46 -665 113 -1139 458 -1380 1004 -157 356 -205 700 -205 1475 0
649 50 1180 136 1448 l16 48 26 -17 c15 -9 79 -53 142 -98z"/>
<path d="M1962 4184 c-122 -32 -262 -127 -247 -166 10 -26 37 -22 81 13 55 44
124 77 196 94 79 19 135 19 223 0 62 -13 71 -13 85 0 23 23 1 47 -56 62 -65
17 -215 15 -282 -3z"/>
<path d="M4741 4187 c-52 -14 -73 -39 -51 -61 13 -14 25 -13 99 1 71 14 96 15
164 5 91 -13 184 -53 240 -101 40 -36 70 -37 75 -4 6 39 -133 129 -245 158
-67 18 -219 18 -282 2z"/>
<path d="M2014 3590 c-163 -38 -202 -255 -62 -347 34 -23 53 -28 103 -28 76 0
133 33 167 98 75 144 -53 314 -208 277z"/>
<path d="M4894 3590 c-163 -38 -202 -255 -62 -347 34 -23 53 -28 103 -28 76 0
133 33 167 98 75 144 -53 314 -208 277z"/>
<path d="M3265 3125 c-32 -31 -32 -75 -1 -112 23 -26 31 -28 110 -32 l86 -3 0
-215 0 -215 -77 6 c-263 23 -472 85 -643 189 -47 29 -68 37 -80 30 -29 -19
-16 -47 40 -85 201 -136 602 -225 902 -201 l107 9 32 -45 c36 -52 40 -83 11
-114 -49 -54 -56 -118 -18 -164 53 -65 53 -81 0 -146 -32 -39 -32 -93 1 -138
13 -19 29 -44 34 -56 8 -17 19 -23 41 -23 41 0 39 23 -5 86 -19 27 -35 54 -35
60 0 6 16 33 35 60 45 63 47 107 5 159 -46 57 -46 70 -6 128 49 71 47 115 -7
174 -11 13 -19 24 -16 26 2 2 49 14 104 26 133 31 222 63 329 119 112 59 141
84 126 112 -15 28 -24 26 -101 -20 -85 -52 -210 -103 -329 -134 -90 -24 -297
-56 -361 -56 l-29 0 0 214 0 214 91 4 c85 3 92 5 115 31 31 37 31 81 -1 112
-24 25 -25 25 -230 25 -205 0 -206 0 -230 -25z"/>
<path d="M1791 2826 c-15 -18 -4 -45 23 -51 47 -9 446 -36 456 -30 5 3 10 17
10 30 0 31 0 31 -233 50 -231 18 -242 18 -256 1z"/>
<path d="M4932 2820 c-210 -18 -240 -26 -226 -63 4 -13 18 -17 53 -17 69 0
405 28 424 36 36 14 6 67 -35 63 -7 -1 -104 -9 -216 -19z"/>
<path d="M1955 2644 c-88 -6 -170 -13 -182 -13 -43 -2 -65 -50 -29 -64 7 -3
126 3 265 12 262 18 290 25 275 64 -7 21 -83 21 -329 1z"/>
<path d="M4707 2643 c-11 -10 -8 -41 5 -49 15 -9 516 -44 534 -37 20 8 17 51
-4 57 -21 7 -407 36 -478 36 -28 0 -54 -3 -57 -7z"/>
<path d="M2040 2471 c-221 -46 -225 -47 -228 -73 -2 -19 2 -27 15 -30 10 -2
116 17 237 42 227 47 256 59 227 94 -8 9 -16 16 -20 15 -3 0 -107 -22 -231
-48z"/>
<path d="M4699 2494 c-29 -35 -1 -47 227 -95 217 -46 254 -48 254 -15 0 25
-25 34 -230 75 -113 23 -212 44 -221 47 -9 2 -22 -3 -30 -12z"/>
<path d="M3770 1144 c-15 -39 -12 -127 6 -152 17 -24 53 -29 72 -10 16 16 16
160 0 176 -7 7 -25 12 -40 12 -21 0 -31 -6 -38 -26z"/>
</g>
</svg>
