<?xml version="1.0" encoding="utf-8"?>
<!-- Generator: Adobe Illustrator 19.1.0, SVG Export Plug-In . SVG Version: 6.00 Build 0)  -->
<svg version="1.1" id="Lager_1" xmlns="http://www.w3.org/2000/svg" xmlns:xlink="http://www.w3.org/1999/xlink" x="0px" y="0px"
	 viewBox="-486 360 50 50" style="enable-background:new -486 360 50 50;" xml:space="preserve">
<style type="text/css">
	.st0{fill:#CEB6FC;}
	.st1{fill:#6F05CC;}
</style>
<title>Group 2</title>
<desc>Created with Sketch.</desc>
<path class="st0" d="M-461,360c-13.8,0-25,11.2-25,25s11.2,25,25,25s25-11.2,25-25S-447.2,360-461,360z"/>
<path class="st1" d="M-474.5,384.9v-1.3c0-1.6,1-3,2.5-3.6c-0.3-0.2-0.5-0.4-0.7-0.7c-0.8-1.2-0.5-2.9,0.7-3.7
	c1.2-0.8,2.9-0.5,3.8,0.7c0.8,1.2,0.5,2.9-0.7,3.7c1.5,0.6,2.4,2,2.5,3.6v1.3c0,0.3-0.2,0.5-0.5,0.5h-6.9
	C-474.3,385.5-474.5,385.2-474.5,384.9z"/>
<path class="st1" d="M-465.6,394.9c-0.3,0.5-1,0.6-1.5,0.3l0,0c-2.6-1.6-4.4-4.1-5.1-7c-0.1-0.5,0.2-1.1,0.8-1.2
	c0.6-0.2,1.2,0.2,1.3,0.7c0.6,2.4,2.1,4.4,4.2,5.7l0,0C-465.4,393.7-465.3,394.4-465.6,394.9z"/>
<path class="st1" d="M-457,398.5c0,0.3-0.2,0.5-0.5,0.5h-6.9c-0.3,0-0.5-0.2-0.5-0.5v-1.3c0-1.6,1-3,2.4-3.6
	c-1.2-0.8-1.5-2.5-0.7-3.7s2.5-1.5,3.8-0.7c1.2,0.8,1.5,2.5,0.7,3.7c-0.2,0.3-0.4,0.5-0.7,0.7c1.5,0.6,2.4,2,2.5,3.6L-457,398.5
	L-457,398.5z"/>
<path class="st1" d="M-456.9,377.1c-2.6-1.2-5.6-1.2-8.2,0c-0.5,0.3-1.2,0-1.4-0.5s0-1.2,0.5-1.4c3.2-1.5,6.9-1.5,10,0
	c0.5,0.3,0.8,0.9,0.5,1.4C-455.7,377.1-456.4,377.3-456.9,377.1z"/>
<path class="st1" d="M-449.7,388.1c-0.7,2.9-2.6,5.4-5.1,7l0,0c-0.5,0.3-1.2,0.1-1.5-0.4s-0.1-1.2,0.4-1.5c2.1-1.3,3.6-3.4,4.2-5.7
	c0.1-0.6,0.7-0.9,1.3-0.8S-449.6,387.6-449.7,388.1z"/>
<path class="st1" d="M-447.5,384.9c0,0.3-0.2,0.5-0.5,0.5h-6.8c-0.3,0-0.5-0.2-0.5-0.5v-1.3c0-1.6,1-3,2.5-3.6
	c-0.3-0.2-0.5-0.4-0.7-0.7c-0.8-1.2-0.5-2.9,0.7-3.7c1.2-0.8,2.9-0.5,3.8,0.7c0.8,1.2,0.5,2.9-0.7,3.7l0,0c1.5,0.6,2.4,2,2.4,3.6
	v1.3H-447.5z"/>
</svg>
