<?xml version="1.0" encoding="UTF-8" standalone="no"?>
<svg width="22px" height="18px" viewBox="0 0 22 18" version="1.1" xmlns="http://www.w3.org/2000/svg" xmlns:xlink="http://www.w3.org/1999/xlink">
    <!-- Generator: Sketch 41.1 (35376) - http://www.bohemiancoding.com/sketch -->
    <title>Twitter</title>
    <desc>Created with Sketch.</desc>
    <defs></defs>
    <g id="Symbols" stroke="none" stroke-width="1" fill="none" fill-rule="evenodd">
        <g id="Twitter" fill="#5F00D0">
            <path d="M7.19544415,17.8901049 C15.15993,17.6874654 19.5093335,10.9211532 19.5093335,5.04160778 C19.5093335,4.84571455 19.5051738,4.65057091 19.4966095,4.45717631 C20.3672243,3.82027344 21.1230785,3.02445719 21.7206168,2.11870085 C20.9212074,2.47800502 20.0623379,2.72062279 19.1608919,2.82981328 C20.0809345,2.27086792 20.7876055,1.38560042 21.1203868,0.330675385 C20.2590704,0.848143348 19.3052602,1.22418839 18.2902771,1.42682795 C17.4766756,0.54905636 16.3185475,0.000105555555 15.0368498,0.000105555555 C12.5750018,0.000105555555 10.5792923,2.02275315 10.5792923,4.51789322 C10.5792923,4.87170038 10.6189325,5.21626259 10.6950317,5.54683242 C6.9903921,5.35868496 3.70637833,3.56016521 1.50781907,0.827154788 C1.12414173,1.49454104 0.904408148,2.27036819 0.904408148,3.09841688 C0.904408148,4.66531287 1.69133821,6.04805923 2.88739359,6.85836759 C2.15649804,6.83488039 1.4694024,6.63149124 0.868193705,6.29317564 C0.86770432,6.31216529 0.86770432,6.3314048 0.86770432,6.35014459 C0.86770432,8.53895162 2.40412653,10.3647065 4.44339118,10.7797303 C4.06925683,10.8829241 3.67554711,10.9383938 3.2688687,10.9383938 C2.98184477,10.9383938 2.70265099,10.9096595 2.4303086,10.8571881 C2.99774977,12.65171 4.64354938,13.9579981 6.59423546,13.9944782 C5.0685797,15.2060678 3.1467673,15.9284241 1.05880891,15.9284241 C0.70057956,15.9284241 0.347244049,15.9071857 2.58426967e-05,15.8654584 L2.58426967e-05,15.8679571 C1.90324164,17.1037835 4.15122871,17.8401322 6.56707463,17.8901049 L7.19544415,17.8901049" id="Fill-1"></path>
        </g>
    </g>
</svg>