<?xml version="1.0" encoding="UTF-8" standalone="no"?>
<svg width="50px" height="50px" viewBox="0 0 50 50" version="1.1" xmlns="http://www.w3.org/2000/svg" xmlns:xlink="http://www.w3.org/1999/xlink">
    <!-- Generator: Sketch 41.1 (35376) - http://www.bohemiancoding.com/sketch -->
    <title>Group 2</title>
    <desc>Created with Sketch.</desc>
    <defs></defs>
    <g id="Symbols" stroke="none" stroke-width="1" fill="none" fill-rule="evenodd">
        <g id="Preparations">
            <g id="Group-2">
                <rect id="Rectangle-Copy-2" fill="#5F00D0" x="0" y="0" width="50" height="50" rx="25"></rect>
                <path d="M35.8265476,16.4189252 L29.4349243,22.4458789 C29.0851757,22.7759213 28.4631585,22.7621184 28.1283459,22.4173529 C27.9460037,22.229327 27.8573219,22.012775 27.8629228,21.7673904 C27.8685238,21.5220057 27.9671628,21.2787682 28.1572842,21.1293903 L34.5806463,15.072377 C34.7717011,14.8926327 34.991383,14.8052145 35.2403143,14.8107356 C35.4892457,14.8162568 35.7359989,14.9134904 35.8872246,15.100903 C36.2211038,15.4763415 36.2080349,16.05913 35.8265476,16.4189252 M22.6054929,32.7281091 C20.4749518,34.7371959 18.5980095,35.1561902 17.5394289,35.1638584 C18.7666605,34.5770824 20.28203,33.628364 21.9672952,32.0391917 C23.1755457,30.8996867 24.5533807,29.1504009 25.6807285,27.4569401 C25.016393,29.3138884 24.0051094,31.3781868 22.6054929,32.7281091 M17.4342554,27.3992747 C18.8015108,26.1100851 20.9084035,25.1435764 22.8208185,24.5411571 C21.0848336,25.6076601 19.3124424,26.9189343 18.1041919,28.0581325 C17.0863739,29.0178932 15.8712778,30.4638222 14.9987734,31.8867465 C15.1848496,30.5408117 15.8759452,28.8685153 17.4342554,27.3992747 M15.9820522,33.8412352 C16.6006466,32.6275014 17.8546382,30.8447819 19.3808985,29.4052942 C20.6846764,28.1759171 22.8043268,26.6575996 24.6638439,25.6245303 C23.534318,27.4100103 21.9623166,29.4924058 20.6585386,30.7220896 C18.7504799,32.5210658 17.1122005,33.4056774 15.9820522,33.8412352 M37.2227413,13.8414663 C36.7058976,13.3086748 35.9964433,13.0169738 35.2499604,13.0007171 C34.5031664,12.9844604 33.7815767,13.2448748 33.2410845,13.7546614 L26.8494611,19.7816151 C26.3089689,20.2914017 26.0130518,20.9904412 25.9965601,21.7265952 C25.994382,21.8186144 25.9922038,21.9106336 25.9903368,22.0026529 C23.4649284,22.192826 18.828271,23.5332396 16.1261212,26.0514996 C12.532175,29.4703212 12.3968186,34.1004227 13.9165444,35.7288566 L13.9470385,35.7601431 C14.6770297,36.5125538 15.9117291,36.9689692 17.2494239,36.9984154 C18.8046225,37.0324625 21.2124109,36.532798 23.8828219,34.0445977 C25.9498855,32.0956301 27.1071051,29.0835336 27.641374,27.4692094 C27.908664,26.6465573 28.2142272,25.5180947 28.3614079,24.5089503 C28.4858735,24.5114042 28.6097169,24.5448378 28.7341825,24.5475984 C29.4806654,24.5638551 30.2025663,24.3037474 30.7430585,23.7939608 L37.1664206,17.7369475 C38.2483384,16.6867012 38.2875451,14.9386424 37.2227413,13.8414663" id="Fill-1" fill="#FFFFFF"></path>
            </g>
        </g>
    </g>
</svg>