<?xml version="1.0" encoding="UTF-8" standalone="no"?>
<svg width="50px" height="50px" viewBox="0 0 50 50" version="1.1" xmlns="http://www.w3.org/2000/svg" xmlns:xlink="http://www.w3.org/1999/xlink">
    <!-- Generator: Sketch 41.1 (35376) - http://www.bohemiancoding.com/sketch -->
    <title>Group 2</title>
    <desc>Created with Sketch.</desc>
    <defs></defs>
    <g id="Symbols" stroke="none" stroke-width="1" fill="none" fill-rule="evenodd">
        <g id="Participant">
            <g id="Group-2">
                <rect id="Rectangle-Copy" fill="#5F00D0" x="0" y="0" width="50" height="50" rx="25"></rect>
                <path d="M35.9987854,26.8696371 C35.4257777,26.7324243 34.8489571,27.0819387 34.7106073,27.6502372 C34.1239824,30.0317426 32.6241945,32.0926348 30.5301562,33.3953456 C30.0244169,33.695701 29.8599223,34.346111 30.1627667,34.8476939 C30.4658834,35.3492767 31.1214108,35.5124194 31.6271501,35.2120639 C31.6383161,35.2053113 31.6494822,35.1985587 31.6603759,35.191536 C34.2277448,33.5938719 36.0663263,31.0670506 36.7858541,28.1472282 C36.9242039,27.5789297 36.5717932,27.0068498 35.9987854,26.8696371 L35.9987854,26.8696371 Z M30.535603,15.1336258 C27.3649963,13.6221247 23.6731269,13.6221247 20.5025202,15.1336258 C19.9684574,15.3886038 19.7443198,16.0246983 20.0014108,16.5543719 C20.2585017,17.0840455 20.8998673,17.306341 21.4339302,17.0513629 C24.0165503,15.8229307 27.0215729,15.8229307 29.604193,17.0513629 C30.1382559,17.306341 30.7796215,17.0840455 31.0367125,16.5543719 C31.2938034,16.0246983 31.0696658,15.3886038 30.535603,15.1336258 L30.535603,15.1336258 Z M19.4185987,35.191536 C19.9128996,35.5102585 20.5741462,35.370885 20.8955099,34.8806465 C21.2166012,34.390138 21.076345,33.734596 20.5820441,33.4158735 C20.5711504,33.4088508 20.5599844,33.4020982 20.5488184,33.3953456 C18.4512396,32.0953358 16.9473665,30.035254 16.3574735,27.6529382 C16.2030556,27.0886913 15.616703,26.7551131 15.0477804,26.9082619 C14.5020068,27.0549283 14.166209,27.5983772 14.2822268,28.1472282 C15.0017546,31.0670506 16.8403361,33.5938719 19.407705,35.191536 L19.4185987,35.191536 Z M36.5761507,19.9603812 C37.8112221,19.1219789 38.1271389,17.449496 37.281789,16.2245751 C36.4364392,14.9996543 34.7500969,14.6863338 33.5150255,15.5247361 C32.2799541,16.3631384 31.9640373,18.0356213 32.8093872,19.2605422 C32.9989373,19.5352377 33.2380536,19.7723889 33.5150255,19.9603812 C32.0343015,20.5600117 31.0658531,21.9880506 31.0639467,23.5743704 L31.0639467,24.9113843 C31.0639467,25.2098491 31.3076928,25.451592 31.6086309,25.451592 L38.4553111,25.451592 C38.7562491,25.451592 38.9999953,25.2098491 38.9999953,24.9113843 L38.9999953,23.5770714 C39.0024464,21.994263 38.0421682,20.5662241 36.5679804,19.9603812 L36.5761507,19.9603812 Z M19.4185987,25.4623961 C19.7195367,25.4623961 19.9632829,25.2206532 19.9632829,24.9221885 L19.9632829,23.5770714 C19.9613765,21.9907516 18.992928,20.5627127 17.512204,19.9630822 C18.745369,19.1246799 19.0599241,17.4535475 18.2145743,16.2305174 C17.3692244,15.0074873 15.6842439,14.6957875 14.4510789,15.5341897 C13.2179138,16.3723219 12.9033587,18.0434543 13.7487086,19.2664844 C13.9374417,19.5398295 14.175741,19.7759003 14.4510789,19.9630822 C12.9703549,20.5627127 12.0019064,21.9907516 12,23.5770714 L12,24.9113843 C12,25.2098491 12.2437462,25.451592 12.5446842,25.451592 L19.4185987,25.4623961 Z M23.988499,33.5087892 C22.755334,32.6703869 22.4407789,30.9992545 23.2861288,29.7762244 C24.1314786,28.5531942 25.8164592,28.2414944 27.0496242,29.0798967 C28.2827892,29.9180289 28.5973443,31.5891613 27.7519944,32.8121914 C27.5632614,33.0855365 27.324962,33.3216072 27.0496242,33.5087892 C28.5303482,34.1084197 29.4987966,35.5364586 29.500703,37.1227784 L29.500703,38.4597923 C29.500703,38.7582571 29.2569569,39 28.9560188,39 L22.1011683,39 C21.8002303,39 21.5564841,38.7582571 21.5564841,38.4597923 L21.5564841,37.1227784 C21.5551224,35.5410504 22.5151283,34.114362 23.988499,33.5087892 L23.988499,33.5087892 Z" id="Fill-1" fill="#FFFFFF"></path>
            </g>
        </g>
    </g>
</svg>