<?xml version="1.0" encoding="utf-8"?>
<!-- Generator: Adobe Illustrator 19.1.0, SVG Export Plug-In . SVG Version: 6.00 Build 0)  -->
<svg version="1.1" id="Lager_1" xmlns="http://www.w3.org/2000/svg" xmlns:xlink="http://www.w3.org/1999/xlink" x="0px" y="0px"
	 viewBox="-502 377 19 16" style="enable-background:new -502 377 19 16;" xml:space="preserve">
<style type="text/css">
	.st0{fill:#EA4E74;}
</style>
<title>Page 1</title>
<desc>Created with Sketch.</desc>
<g id="Symbols">
	<g id="List-object" transform="translate(-293.000000, -92.000000)">
		<g id="Group">
			<g transform="translate(26.000000, 84.000000)">
				
					<g id="Page-1" transform="translate(276.500000, 16.000000) rotate(-180.000000) translate(-276.500000, -16.000000) translate(267.000000, 8.000000)">
					<path id="Fill-1" class="st0" d="M519.6-367.6h-10.3c-0.7,0-1.3-0.6-1.3-1.3c0-0.7,0.6-1.3,1.3-1.3h10.3c0.7,0,1.3,0.6,1.3,1.3
						C520.9-368.2,520.3-367.6,519.6-367.6"/>
					<g id="Arrow">
						<path id="Fill-3" class="st0" d="M509.5-361c-0.3,0-0.7-0.1-0.9-0.4l-6.2-6.7c-0.5-0.5-0.5-1.3,0-1.8l6.2-6.7
							c0.5-0.5,1.3-0.5,1.8-0.1c0.5,0.5,0.5,1.3,0.1,1.8l-5.4,5.8l5.4,5.8c0.5,0.5,0.5,1.3-0.1,1.8C510.1-361.1,509.8-361,509.5-361
							"/>
					</g>
				</g>
			</g>
		</g>
	</g>
</g>
</svg>
