<?xml version="1.0" encoding="UTF-8" standalone="no"?>
<svg width="19px" height="16px" viewBox="0 0 19 16" version="1.1" xmlns="http://www.w3.org/2000/svg" xmlns:xlink="http://www.w3.org/1999/xlink">
    <!-- Generator: Sketch 41.1 (35376) - http://www.bohemiancoding.com/sketch -->
    <title>Page 1</title>
    <desc>Created with Sketch.</desc>
    <defs></defs>
    <g id="Symbols" stroke="none" stroke-width="1" fill="none" fill-rule="evenodd">
        <g id="List-object" transform="translate(-293.000000, -92.000000)" fill="#FF21F5">
            <g id="Group">
                <g transform="translate(26.000000, 84.000000)">
                    <g id="Page-1" transform="translate(276.500000, 16.000000) rotate(-180.000000) translate(-276.500000, -16.000000) translate(267.000000, 8.000000)">
                        <path d="M17.6183126,9.25826977 L7.29965243,9.25826977 C6.5865068,9.25826977 6.00839029,8.6752 6.00839029,7.95594419 C6.00839029,7.23668837 6.5865068,6.6536186 7.29965243,6.6536186 L17.6183126,6.6536186 C18.3314583,6.6536186 18.9095748,7.23668837 18.9095748,7.95594419 C18.9095748,8.6752 18.3314583,9.25826977 17.6183126,9.25826977" id="Fill-1"></path>
                        <g id="Arrow">
                            <path d="M7.49680971,15.9119814 C7.15314951,15.9119814 6.81004272,15.774493 6.55603301,15.5019349 L0.350780583,8.84816744 C-0.116840777,8.34677209 -0.116840777,7.56500465 0.350780583,7.0636093 L6.55603301,0.410213953 C7.04449903,-0.114251163 7.86186796,-0.138809302 8.38132427,0.35384186 C8.90078058,0.846493023 8.92586796,1.67086512 8.43721748,2.19477209 L3.06409126,7.95588837 L8.43721748,13.7173767 C8.92586796,14.2412837 8.90078058,15.0654698 8.38132427,15.558307 C8.13192621,15.7947721 7.81409126,15.9119814 7.49680971,15.9119814" id="Fill-3"></path>
                        </g>
                    </g>
                </g>
            </g>
        </g>
    </g>
</svg>