<?xml version="1.0" encoding="utf-8"?>
<!-- Generator: Adobe Illustrator 19.1.0, SVG Export Plug-In . SVG Version: 6.00 Build 0)  -->
<svg version="1.1" id="Lager_1" xmlns="http://www.w3.org/2000/svg" xmlns:xlink="http://www.w3.org/1999/xlink" x="0px" y="0px"
	 viewBox="-466.1 300.5 22.9 16.4" style="enable-background:new -466.1 300.5 22.9 16.4;" xml:space="preserve">
<style type="text/css">
	.st0{enable-background:new    ;}
	.st1{fill:#5F00D0;}
</style>
<title>“</title>
<desc>Created with Sketch.</desc>
<g id="Page-1">
	<g id="Tool:-Loomio" transform="translate(-176.000000, -2593.000000)">
		<g id="Quote" transform="translate(0.000000, 2561.000000)">
			<g class="st0">
				<path class="st1" d="M-284,341.1c0.5,0,0.9,0.1,1.2,0.2c0.6,0.3,1.1,0.8,1.5,1.3c0.4,0.6,0.6,1.3,0.6,2.3
					c-0.1,1.5-0.7,2.6-1.8,3.2c-1,0.5-2.3,0.7-3.9,0.7c-1.1,0-2-0.4-2.7-1.2c-0.7-0.8-1-1.8-1-3.1c0-1.4,0.4-3.1,1.3-5
					c0.8-1.9,1.7-3.3,2.5-4.4c0.6-0.8,1.3-1.4,2.1-1.9c0.8-0.5,1.5-0.8,2.1-0.8c1.1,0,1.8,0.2,2.1,0.5c0.3,0.3,0.4,1,0.4,1.9
					c0,0.2-0.2,0.6-0.7,1c-0.5,0.5-0.7,0.7-0.8,0.8c-0.8,0.7-1.2,1.2-1.4,1.4c-0.8,1.2-1.4,2.1-1.7,2.9H-284z M-271.6,341.1
					c0.6,0,1,0.1,1.2,0.2c0.6,0.4,1.1,0.8,1.5,1.4c0.4,0.5,0.6,1.3,0.6,2.3c-0.1,1.5-0.7,2.6-1.7,3.2c-1,0.5-2.3,0.7-3.9,0.7
					c-1.1,0-2-0.4-2.7-1.2c-0.7-0.8-1-1.8-1-3.1c0-1.4,0.4-3.1,1.3-5c0.8-1.9,1.7-3.3,2.5-4.4c0.6-0.8,1.3-1.4,2.1-1.9
					c0.8-0.5,1.4-0.8,2-0.8c1.2,0,1.9,0.2,2.1,0.5c0.3,0.3,0.4,1,0.4,1.9c0,0.4-0.6,1-1.7,1.9c-0.2,0.2-0.4,0.4-0.7,0.7
					s-0.5,0.5-0.6,0.7c-0.7,1-1.2,2-1.6,2.9H-271.6z"/>
			</g>
		</g>
	</g>
</g>
</svg>
