<?xml version="1.0" encoding="utf-8"?>
<!-- Generator: Adobe Illustrator 19.1.0, SVG Export Plug-In . SVG Version: 6.00 Build 0)  -->
<svg version="1.1" id="Lager_1" xmlns="http://www.w3.org/2000/svg" xmlns:xlink="http://www.w3.org/1999/xlink" x="0px" y="0px"
	 viewBox="-473 346 77 77" style="enable-background:new -473 346 77 77;" xml:space="preserve">
<style type="text/css">
	.st0{fill:#FFAEBF;}
</style>
<title>Page 1</title>
<desc>Created with Sketch.</desc>
<g id="Symbols">
	<g id="Link">
		<g id="Page-1">
			<path id="Fill-1" class="st0" d="M-433.6,402.1l-8.8,8.8c-2.2,2.2-5.1,3.4-8.2,3.4s-6-1.2-8.2-3.4l-2.8-2.8
				c-2.2-2.2-3.4-5.1-3.4-8.2s1.2-6,3.4-8.2l11.7-11.7c4.5-4.5,11.9-4.5,16.4,0l4.2,4.2c1.6,1.6,4.1,1.6,5.7,0
				c1.6-1.6,1.6-4.1,0-5.7l-4.2-4.2c-7.6-7.6-20.1-7.6-27.7,0l-11.8,11.7c-3.7,3.7-5.7,8.6-5.7,13.9c0,5.3,2,10.1,5.7,13.8l2.8,2.8
				c3.7,3.7,8.6,5.7,13.8,5.7c5.2,0,10.1-2,13.8-5.7l8.8-8.8c1.6-1.6,1.6-4.1,0-5.7C-429.5,400.5-432,400.5-433.6,402.1"/>
			<path id="Fill-3" class="st0" d="M-405.3,351.7c-3.7-3.7-8.6-5.7-13.8-5.7c-5.2,0-10.1,2-13.8,5.7l-7.4,7.4
				c-1.6,1.6-1.6,4.1,0,5.7c1.6,1.6,4.1,1.6,5.7,0l7.4-7.4c2.2-2.2,5.1-3.4,8.2-3.4s6,1.2,8.2,3.4l2.8,2.8c2.2,2.2,3.4,5.1,3.4,8.2
				s-1.2,6-3.4,8.2l-10.3,10.2c-2.2,2.2-5.1,3.4-8.2,3.4s-6-1.2-8.2-3.4l-4.2-4.2c-1.6-1.6-4.1-1.6-5.7,0s-1.6,4.1,0,5.7l4.2,4.2
				c3.7,3.7,8.6,5.7,13.8,5.7c5.2,0,10.1-2,13.8-5.7l10.2-10.2c3.7-3.7,5.7-8.6,5.7-13.8s-2-10.1-5.7-13.8L-405.3,351.7z"/>
		</g>
	</g>
</g>
</svg>
