<?xml version="1.0" encoding="utf-8"?>
<!-- Generator: Adobe Illustrator 19.1.0, SVG Export Plug-In . SVG Version: 6.00 Build 0)  -->
<svg version="1.1" id="Lager_1" xmlns="http://www.w3.org/2000/svg" xmlns:xlink="http://www.w3.org/1999/xlink" x="0px" y="0px"
	 viewBox="-477 362 69 46" style="enable-background:new -477 362 69 46;" xml:space="preserve">
<style type="text/css">
	.st0{fill:#CEB6FC;}
</style>
<title>Fill 1</title>
<desc>Created with Sketch.</desc>
<g id="Page-1">
	<g id="Home" transform="translate(-154.000000, -903.000000)">
		<g id="Inclusive" transform="translate(0.000000, 657.000000)">
			<path id="Fill-1" class="st0" d="M-257.6,621.7l-9.2,10.1l-4.2-3.8c-1.3-1.2-3.4-3-4.9-4l-5.9-4.3c-1-0.7-2.2-1-3.5-1
				c-1,0-2.1,0.2-3,0.8l-2.1,1.3c-0.3,0.2-0.7,0.3-1.1,0.3c-0.7,0-1.4-0.3-1.8-0.9l-0.5-0.6l0,0c-0.3-0.3-0.4-0.7-0.4-1.1
				c0-0.6,0.3-1.1,0.8-1.5l6.3-4.5c0.5-0.4,1.5-0.7,2.5-0.7c0.6,0,1.3,0.1,1.7,0.3l5.2,2.5c0.9,0.4,1.9,0.6,2.9,0.6
				c1.3,0,2.6-0.3,3.7-0.9l5.3-3.3c0.3-0.2,0.7-0.3,1.2-0.3c0.7,0,1.4,0.3,1.8,0.8l5.4,6.9c0.3,0.4,0.5,1,0.5,1.5
				C-257,620.7-257.2,621.3-257.6,621.7L-257.6,621.7z M-265.5,638.8l-0.5,0.6c-0.4,0.4-0.9,0.6-1.4,0.6c-0.5,0-0.9-0.2-1.3-0.5
				l-9.1-8.5l-1.6,1.7l9.8,9.1c0.4,0.4,0.6,0.9,0.6,1.4c0,0.5-0.2,0.9-0.5,1.3l-0.5,0.6c-0.4,0.4-0.9,0.6-1.4,0.6
				c-0.5,0-0.9-0.2-1.3-0.5l-9.1-8.5l-1.6,1.7l8.1,7.5c0.4,0.4,0.6,0.9,0.6,1.4c0,0.5-0.2,0.9-0.5,1.3l-0.5,0.6
				c-0.4,0.4-0.9,0.6-1.4,0.6c-0.5,0-0.9-0.2-1.3-0.5l-8.1-7.5h0l0,0l-1.6,1.7l0,0l0,0l4.1,3.7c0.4,0.4,0.5,0.8,0.5,1.3
				c0,0.5-0.2,0.9-0.5,1.3l-0.5,0.6c-0.4,0.4-0.9,0.6-1.4,0.6c-0.5,0-0.9-0.2-1.3-0.5l-3.5-3.3c0.3-0.6,0.5-1.3,0.5-1.9
				c0-1.1-0.4-2.2-1.3-3.1l-0.6-0.5c-0.8-0.8-1.9-1.2-2.9-1.2c-0.1,0-0.2,0-0.2,0c0,0,0,0,0-0.1c0-1.1-1.3-3.1-1.3-3.1l-0.6-0.5
				c-0.6-0.6-1.4-0.9-2.1-1.1c0.2-0.5,0.3-0.9,0.3-1.4c0-1.1-0.4-2.2-1.3-3.1l-0.6-0.5c-0.8-0.8-1.9-1.2-2.9-1.2c-0.1,0-0.2,0-0.4,0
				c0-1.1-0.5-2.1-1.3-2.9v0l-0.6-0.5c-0.8-0.8-1.9-1.2-2.9-1.2c-1.1,0-2.2,0.4-3.1,1.3l-1.4,1.4l-6.1-5.2c-0.4-0.4-0.7-0.9-0.7-1.4
				c0-0.4,0.2-0.9,0.5-1.2l6.4-7.2c0.3-0.3,0.6-0.5,1.1-0.7s0.9-0.3,1.4-0.3c0.4,0,0.8,0.1,1.1,0.2l3.5,1.5c1,0.4,2.1,0.6,3.3,0.6
				c1.2,0,2.3-0.2,3.3-0.6l3.5-1.5c0.5-0.2,1.4-0.4,2.2-0.4c0.9,0,1.8,0.2,2.3,0.4c0.3,0.2,0.6,0.3,0.9,0.5l-3.6,2.5
				c-1.2,0.8-1.8,2.1-1.8,3.4c0,0.9,0.3,1.7,0.8,2.5l0,0l0.5,0.6c0.9,1.2,2.3,1.8,3.7,1.8c0.8,0,1.6-0.2,2.3-0.6l2.1-1.3
				c0.4-0.3,1.1-0.4,1.8-0.4c0.8,0,1.6,0.2,2.1,0.6l5.9,4.3c1.3,0.9,3.5,2.7,4.7,3.8l6.9,6.4c0.4,0.4,0.6,0.9,0.6,1.4
				C-265,638-265.2,638.4-265.5,638.8L-265.5,638.8z M-296.7,650.2c-0.4,0.4-0.9,0.6-1.4,0.6c-0.5,0-1-0.2-1.3-0.5l-0.6-0.5
				c-0.4-0.4-0.6-0.9-0.6-1.4c0-0.5,0.2-1,0.5-1.3l3.3-3.4c0.4-0.4,0.9-0.6,1.4-0.6c0.5,0,1,0.2,1.3,0.5l0.6,0.5
				c0.4,0.4,0.6,0.9,0.6,1.4c0,0.5-0.2,1-0.5,1.3L-296.7,650.2z M-305.1,647.9c-0.5,0-1-0.2-1.3-0.5l-0.6-0.5
				c-0.4-0.4-0.6-0.9-0.6-1.4c0-0.4,0.1-0.8,0.4-1.2l5.4-5.6c0.4-0.3,0.8-0.5,1.3-0.5c0.5,0,1,0.2,1.3,0.5l0.6,0.5
				c0.4,0.4,0.6,0.9,0.6,1.4c0,0.5-0.2,1-0.5,1.3l-5.2,5.4C-304.1,647.7-304.6,647.9-305.1,647.9L-305.1,647.9z M-311.4,644.5
				c-0.5,0-1-0.2-1.3-0.5l-0.6-0.5l0,0c-0.4-0.4-0.6-0.9-0.6-1.4c0-0.5,0.2-1,0.5-1.3c0,0,7.7-8.1,7.8-8.1c0.4-0.4,0.8-0.5,1.3-0.5
				c0.5,0,1,0.2,1.3,0.5l0.6,0.5c0.4,0.4,0.6,0.9,0.6,1.4c0,0.5-0.2,1-0.5,1.3l-7.7,8.1C-310.4,644.3-310.9,644.5-311.4,644.5
				L-311.4,644.5z M-316.6,636.8c-0.4-0.4-0.6-0.9-0.6-1.4c0-0.5,0.2-1,0.5-1.3l5.8-6.1c0.4-0.4,0.9-0.6,1.4-0.6
				c0.5,0,1,0.2,1.3,0.5l0.6,0.5c0,0,0.6,0.9,0.6,1.4c0,0.4-0.1,0.8-0.3,1.1c0,0-6.3,6.5-6.3,6.5c-0.3,0.2-0.7,0.4-1.1,0.4
				c-0.5,0-1-0.2-1.3-0.5L-316.6,636.8z M-254.7,620c0-1-0.3-2.1-1-3l-5.4-6.9c-0.9-1.2-2.3-1.7-3.7-1.7c-0.8,0-1.7,0.2-2.4,0.7
				l-5.3,3.3c-0.6,0.4-1.5,0.6-2.4,0.6c-0.7,0-1.4-0.1-1.9-0.4l-5.2-2.5c-0.8-0.4-1.8-0.6-2.7-0.6c-1.3,0-2.7,0.3-3.8,1.1l-0.6,0.4
				c-0.5-0.2-1.2-0.6-2.1-1c-1-0.5-2.2-0.7-3.4-0.7c-1.1,0-2.1,0.2-3.1,0.6l-3.5,1.5c-0.6,0.2-1.5,0.4-2.4,0.4
				c-0.9,0-1.8-0.2-2.4-0.4l-3.5-1.5c-0.6-0.3-1.3-0.4-2-0.4c-0.8,0-1.6,0.2-2.3,0.4c-0.7,0.3-1.4,0.7-1.9,1.3l-6.4,7.2
				c-0.7,0.8-1.1,1.8-1.1,2.8c0,1.2,0.5,2.3,1.5,3.2l6,5.1l-2.8,3c-0.8,0.8-1.2,1.9-1.2,2.9c0,1.1,0.4,2.2,1.3,3.1l0.6,0.5
				c0.5,0.5,1.2,0.8,1.9,1c-0.3,0.6-0.5,1.3-0.5,2c0,1.1,0.4,2.2,1.3,3.1l0,0l0.6,0.5c0.8,0.8,1.9,1.2,2.9,1.2
				c0.6,0,1.1-0.1,1.7-0.3c0.2,0.8,0.6,1.5,1.2,2l0.6,0.5c0.8,0.8,1.9,1.2,2.9,1.2c0.8,0,1.6-0.2,2.4-0.7c0.2,0.7,0.6,1.3,1.1,1.8
				l0.6,0.5c0.8,0.8,1.9,1.2,2.9,1.2c1.1,0,2.2-0.4,3.1-1.3l2.5-2.6l3.4,3.2c0.8,0.8,1.9,1.1,2.9,1.1c1.1,0,2.3-0.5,3.1-1.3l0.5-0.6
				c0.5-0.5,0.8-1.1,1-1.7l1.3,1.2c0.8,0.8,1.9,1.1,2.9,1.1c1.1,0,2.3-0.5,3.1-1.3l0.5-0.6c0.6-0.7,1-1.5,1.1-2.3
				c0.3,0.1,0.7,0.1,1.1,0.1c1.1,0,2.3-0.5,3.1-1.3l0.5-0.6c0.8-0.8,1.1-1.9,1.1-2.9c0-0.3,0-0.6-0.1-0.9c0.9-0.1,1.9-0.5,2.6-1.3
				l0.5-0.6c0.8-0.8,1.1-1.9,1.1-2.9c0-1.1-0.5-2.3-1.4-3.1l-1-0.9l9.2-10.1C-255.1,622.4-254.7,621.2-254.7,620L-254.7,620z"/>
		</g>
	</g>
</g>
</svg>
