<?xml version="1.0" encoding="UTF-8" standalone="no"?>
<svg width="50px" height="50px" viewBox="0 0 50 50" version="1.1" xmlns="http://www.w3.org/2000/svg" xmlns:xlink="http://www.w3.org/1999/xlink">
    <!-- Generator: Sketch 41.1 (35376) - http://www.bohemiancoding.com/sketch -->
    <title>Group 2</title>
    <desc>Created with Sketch.</desc>
    <defs></defs>
    <g id="Symbols" stroke="none" stroke-width="1" fill="none" fill-rule="evenodd">
        <g id="Facts---difficulty" transform="translate(-20.000000, 0.000000)">
            <g id="Group-3" transform="translate(20.000000, 0.000000)">
                <g id="Group-2">
                    <rect id="Rectangle-Copy-3" fill="#5F00D0" x="0" y="0" width="50" height="50" rx="25"></rect>
                    <path d="M36.3387729,20.88083 C35.2506358,20.88083 34.7223773,21.4374673 34.2563274,21.9300485 C33.9085085,22.2969153 33.5971212,22.6192511 33.0626761,22.715164 L33.0626761,15.3353526 C33.0626761,15.1503777 32.9121379,15 32.7261992,15 L24.9538899,15 C24.7686386,15 24.6174129,15.1500352 24.6174129,15.3353526 C24.6174129,16.377035 25.1649184,16.8922242 25.6478093,17.3474679 C26.099424,17.7722249 26.4895173,18.1397768 26.4895173,18.9351687 C26.4895173,19.4246669 26.4895173,20.914057 23.5306507,20.914057 C20.571784,20.914057 20.571784,19.4239818 20.571784,18.9351687 C20.571784,18.1397768 20.9618774,17.7722249 21.4134921,17.3474679 C21.896383,16.8922242 22.4438884,16.377035 22.4438884,15.3353526 C22.4438884,15.2425226 22.4064257,15.1585988 22.3452481,15.0983107 C22.2844141,15.0380226 22.200209,15 22.1077551,15 L14.3354459,15 C14.2423047,15 14.1580995,15.0376801 14.097953,15.0983107 C14.0367753,15.1589414 14,15.2428651 14,15.3353526 L14,23.0813457 C14,23.2666631 14.1505382,23.4166982 14.336477,23.4166982 C14.5650339,23.4166982 14.7647204,23.3865542 14.9472223,23.340653 C15.6005857,23.1765735 15.9989277,22.7648331 16.355339,22.3897453 C16.6753186,22.05268 16.9626473,21.7495267 17.4221669,21.6183316 C17.5754547,21.5744857 17.7479894,21.5508501 17.9480196,21.5508501 C18.0404735,21.5508501 18.1679842,21.5508501 18.313367,21.5707177 C18.9474835,21.654984 19.9338869,22.1044044 19.9338869,24.5005138 C19.9338869,25.0537256 19.8813016,25.503146 19.7926284,25.867615 C19.4087216,27.449835 18.3473927,27.449835 17.948707,27.449835 C17.4496625,27.449835 17.1183409,27.2980872 16.8361677,27.0737195 C16.6670699,26.9387564 16.5148132,26.779815 16.3560263,26.6102547 C16.298973,26.5499666 16.2408887,26.4889935 16.1803984,26.4280203 C16.1748993,26.4218544 16.1694002,26.4174013 16.1635574,26.4112355 C16.0487634,26.2944273 15.9270955,26.1793319 15.7916798,26.0741702 C15.7724329,26.0594407 15.7514676,26.0467665 15.7325644,26.0327222 C15.678948,25.9929868 15.624988,25.9529089 15.5672473,25.9162565 C15.2500172,25.7196351 14.8592364,25.5826167 14.3371644,25.5826167 C14.1515693,25.5826167 14.0006874,25.7326518 14.0006874,25.9179692 L14.0006874,33.6646474 C14.0006874,33.8499648 14.1512256,34 14.3371644,34 L32.7289487,34 C32.9145438,34 33.0654257,33.8499648 33.0654257,33.6646474 L33.0654257,26.2858637 C33.6002145,26.3817766 33.9112581,26.7041124 34.2594207,27.0713217 C34.7247831,27.5635603 35.2540728,28.1205401 36.3422098,28.1205401 C37.5544206,28.1205401 39,27.4926533 39,24.5008564 C38.9969067,21.5083743 37.5513273,20.88083 36.3387729,20.88083" id="Page-1" fill="#FFFFFF"></path>
                </g>
            </g>
        </g>
    </g>
</svg>