<?xml version="1.0" encoding="utf-8"?>
<!-- Generator: Adobe Illustrator 19.1.0, SVG Export Plug-In . SVG Version: 6.00 Build 0)  -->
<svg version="1.1" id="Lager_1" xmlns="http://www.w3.org/2000/svg" xmlns:xlink="http://www.w3.org/1999/xlink" x="0px" y="0px"
	 viewBox="-448.9 243 60 60" style="enable-background:new -448.9 243 60 60;" xml:space="preserve">
<style type="text/css">
	.st0{fill:#5F00D0;}
</style>
<g>
	<g transform="translate(-358.000000, -760.000000)">
		<g transform="translate(358.000000, 759.000000)">
			<path class="st0" d="M-391.1,297.5l-2.1-3.6c-0.2-0.3-0.5-0.5-0.8-0.5l-0.5,0c-2.3-0.1-4.4,1.1-5.4,3.1l-0.2,0.5
				c-0.1,0.3-0.1,0.7,0,0.9l2.2,3.8c-1.2-0.2-2.3-0.8-3.2-1.7c-1.1-1.1-1.8-2.7-1.8-4.3c0,0,0,0,0,0c0-0.2,0-0.5,0.1-0.7
				c0,0,0-0.1,0-0.1c0-0.2,0.1-0.4,0.1-0.6c0-0.1,0-0.1,0.1-0.2c0-0.1,0.1-0.3,0.1-0.4c0-0.1,0.1-0.2,0.1-0.3c0-0.1,0.1-0.2,0.1-0.3
				c0.1-0.1,0.1-0.2,0.2-0.3c0-0.1,0.1-0.2,0.1-0.2c0.1-0.1,0.2-0.2,0.2-0.3c0.1-0.1,0.1-0.1,0.2-0.2c0.1-0.1,0.2-0.2,0.3-0.3
				c0.1-0.1,0.2-0.2,0.2-0.2c0.1-0.1,0.2-0.2,0.3-0.2c0.2-0.2,0.4-0.3,0.6-0.4c0.2-0.2,0.5-0.3,0.7-0.4c0.1-0.1,0.2-0.1,0.4-0.1
				c0.1-0.1,0.3-0.1,0.4-0.2c0.2-0.1,0.4-0.1,0.6-0.1c0.1,0,0.2,0,0.2,0c0.3,0,0.6-0.1,0.9-0.1c0,0,0,0,0.1,0c1.2,0,2.4,0.4,3.4,1.1
				C-391.3,292.5-390.4,295.1-391.1,297.5L-391.1,297.5z M-419.7,280.4l-1.4-1.4l0,0l-2.8-2.8l0,0l-1.4-1.4l1.4-1.4l4.5,4.5l1.2,1.2
				L-419.7,280.4z M-446.5,250.3l2.1,3.6c0.2,0.3,0.5,0.5,0.8,0.5l0.5,0c2.3,0.1,4.4-1.1,5.4-3.1l0.2-0.5c0.1-0.3,0.1-0.7,0-0.9
				l-2.2-3.8c1.2,0.2,2.3,0.8,3.2,1.7c1.2,1.2,1.8,2.7,1.8,4.3c0,0,0,0,0,0c0,0.2,0,0.5-0.1,0.7c0,0,0,0.1,0,0.1
				c0,0.2-0.1,0.4-0.1,0.6c0,0.1,0,0.1,0,0.2c0,0.1-0.1,0.3-0.1,0.4c0,0.1-0.1,0.2-0.1,0.3c0,0.1-0.1,0.2-0.2,0.3
				c-0.1,0.1-0.1,0.2-0.2,0.3c0,0.1-0.1,0.2-0.2,0.2c-0.1,0.1-0.1,0.2-0.2,0.3c-0.1,0.1-0.1,0.1-0.2,0.2c-0.1,0.1-0.2,0.2-0.3,0.3
				c-0.1,0.1-0.2,0.2-0.2,0.2c-0.1,0.1-0.2,0.2-0.3,0.2c-0.2,0.1-0.3,0.3-0.5,0.4c0,0,0,0-0.1,0c-0.2,0.2-0.5,0.3-0.8,0.4
				c-0.1,0-0.2,0.1-0.3,0.1c-0.2,0.1-0.3,0.1-0.5,0.2c-0.2,0-0.3,0.1-0.5,0.1c-0.1,0-0.2,0.1-0.4,0.1c-0.2,0-0.4,0-0.6,0
				c-1.3,0.1-2.7-0.3-3.7-1.1C-446.4,255.4-447.2,252.7-446.5,250.3L-446.5,250.3z M-412.6,266.3l17-17c0.4-0.4,1-0.4,1.4,0
				c0.4,0.4,0.4,1,0,1.4l-17,17c-0.2,0.2-0.5,0.3-0.7,0.3c-0.3,0-0.5-0.1-0.7-0.3C-413,267.3-413,266.7-412.6,266.3L-412.6,266.3z
				 M-415.8,274c-0.2,0.1-0.4,0.2-0.5,0.3c0,0-0.1,0.1-0.1,0.1c-0.2,0.1-0.3,0.3-0.5,0.4c-0.4,0.4-0.6,0.9-0.8,1.4c0,0,0,0,0,0
				c-0.1,0.2-0.1,0.3-0.1,0.5l-3.8-3.8c0.1,0,0.2-0.1,0.3-0.1c0.1,0,0.1,0,0.2,0c0,0,0,0,0.1,0c0.5-0.2,0.9-0.4,1.3-0.8
				c0.1-0.1,0.2-0.3,0.4-0.5c0,0,0.1-0.1,0.1-0.1c0.1-0.2,0.2-0.3,0.3-0.5c0,0,0,0,0,0c0.4-0.7,0.8-1.5,1.1-2.3l4.4,4.4
				C-414.2,273.2-415,273.5-415.8,274C-415.7,274-415.7,274-415.8,274L-415.8,274z M-392.3,289.3c-1.2-0.9-2.7-1.4-4.2-1.4
				c-5.4-3.5-9-6.2-11-8.3l-4.9-4.9c0.4-0.1,0.8-0.2,1-0.2c0,0,0,0,0,0c0,0,0,0,0,0c0,0,0.1,0,0.1,0c0.1,0,0.1,0,0.2,0
				c0.1,0,0.1,0,0.2-0.1c0.1,0,0.1-0.1,0.1-0.1c0,0,0.1,0,0.1-0.1l20.5-20.5c0.8-0.8,1.2-1.8,1.2-2.9c0-1.1-0.4-2.1-1.2-2.9
				l-2.7-2.7c-1.6-1.6-4.2-1.6-5.8,0l-20.5,20.6c0,0,0,0,0,0.1c-0.1,0.1-0.1,0.1-0.2,0.2c0,0,0,0.1,0,0.1c0,0.1,0,0.2,0,0.2
				c0,0,0,0.1,0,0.1c0,0,0,0,0,0c0,0.2-0.1,0.6-0.2,1l-4.9-4.9c-3.7-3.7-6.3-7.2-8.3-11c-0.1-2-0.9-3.8-2.3-5.2
				c-1.7-1.7-4.1-2.5-6.5-2.3c-0.3,0-0.6,0.2-0.8,0.5c-0.2,0.3-0.1,0.7,0,1l2.9,4.9l0,0c-0.6,1.3-2,2.1-3.4,2l-2.8-4.8
				c-0.2-0.3-0.5-0.5-0.8-0.5c-0.4,0-0.7,0.2-0.9,0.4c-2.4,3.6-1.5,8.4,2.1,10.9c1.2,0.9,2.7,1.4,4.2,1.4c3.9,2,7.4,4.6,11,8.3
				l4.3,4.3l-1.6,1.6c-0.4,0.4-0.4,1,0,1.4l1.4,1.4l-16.8,16.8l4.2,4.2l16.8-16.8l1.4,1.4c0.2,0.2,0.4,0.3,0.7,0.3h0
				c0.3,0,0.5-0.1,0.7-0.3l1.6-1.6l4.2,4.2c0.6,0.6,1.3,1.4,2,2.2l2.2-2.2c0.4-0.4,1-0.4,1.4,0c0.4,0.4,0.4,1,0,1.4l-2.4,2.4
				c0.4,0.5,0.8,1,1.2,1.6l2.6-2.6c0.4-0.4,1-0.4,1.4,0c0.4,0.4,0.4,1,0,1.4l-2.9,2.9c0.8,1.2,1.7,2.5,2.7,3.9
				c0.1,2,0.9,3.8,2.3,5.2c1.5,1.5,3.5,2.3,5.6,2.3c0.3,0,0.6,0,0.8,0c0.3,0,0.6-0.2,0.8-0.5c0.2-0.3,0.1-0.7,0-1l-2.9-4.9
				c0.6-1.3,2-2.1,3.5-2l2.8,4.8c0.2,0.3,0.5,0.5,0.8,0.5c0.3,0,0.7-0.2,0.9-0.4C-387.8,296.6-388.8,291.8-392.3,289.3L-392.3,289.3
				z"/>
			<path class="st0" d="M-447.9,297.3c-0.2,0.2-0.4,0.4-0.4,0.7l-0.6,4.8c0,0.3,0.1,0.6,0.3,0.8c0.2,0.2,0.4,0.3,0.7,0.3
				c0,0,0.1,0,0.1,0l4.9-0.7c0.3,0,0.5-0.2,0.7-0.4l2.3-3.4l-4.5-4.5L-447.9,297.3z"/>
		</g>
	</g>
</g>
</svg>
