<?xml version="1.0" encoding="utf-8"?>
<!-- Generator: Adobe Illustrator 19.1.0, SVG Export Plug-In . SVG Version: 6.00 Build 0)  -->
<svg version="1.1" id="Lager_1" xmlns="http://www.w3.org/2000/svg" xmlns:xlink="http://www.w3.org/1999/xlink" x="0px" y="0px"
	 viewBox="-489 367.3 39.7 39.7" style="enable-background:new -489 367.3 39.7 39.7;" xml:space="preserve">
<style type="text/css">
	.st0{fill:#CEB6FC;}
	.st1{fill:#6F05CC;}
</style>
<title>Combined Shape</title>
<desc>Created with Sketch.</desc>
<path class="st0" d="M-469.2,367.3c-10.9,0-19.8,8.9-19.8,19.8c0,10.9,8.9,19.8,19.8,19.8c10.9,0,19.8-8.9,19.8-19.8
	C-449.3,376.2-458.2,367.3-469.2,367.3z"/>
<circle class="st1" cx="-485.2" cy="387.2" r="1.1"/>
<circle class="st1" cx="-469.2" cy="371.1" r="1.1"/>
<path class="st1" d="M-479.7,399.3c-0.2,0.2-0.5,0.3-0.8,0.3c-0.3,0-0.6-0.1-0.8-0.3c-0.4-0.4-0.4-1.2,0-1.6
	c0.2-0.2,0.5-0.3,0.8-0.3c0,0,0,0,0,0c0.3,0,0.6,0.1,0.8,0.3C-479.3,398.2-479.3,398.9-479.7,399.3z"/>
<path class="st1" d="M-479.7,376.6c-0.2,0.2-0.5,0.3-0.8,0.3c-0.3,0-0.6-0.1-0.8-0.3c-0.4-0.4-0.4-1.2,0-1.6
	c0.2-0.2,0.5-0.3,0.8-0.3c0,0,0,0,0,0c0.3,0,0.6,0.1,0.8,0.3s0.3,0.5,0.3,0.8S-479.5,376.4-479.7,376.6z"/>
<path class="st1" d="M-459.9,388.3h-5.9c-0.5,1.4-1.8,2.4-3.3,2.4c-1.9,0-3.5-1.6-3.5-3.5c0-1.5,1-2.8,2.4-3.3v-8
	c0-0.6,0.5-1.1,1.1-1.1s1.1,0.5,1.1,1.1v8c1,0.4,1.8,1.2,2.2,2.2h5.9c0.6,0,1.1,0.5,1.1,1.1S-459.3,388.3-459.9,388.3z"/>
<path class="st1" d="M-457,399.3c-0.2,0.2-0.5,0.3-0.8,0.3c-0.3,0-0.6-0.1-0.8-0.3c-0.4-0.4-0.4-1.2,0-1.6c0.2-0.2,0.5-0.3,0.8-0.3
	c0,0,0,0,0,0c0.3,0,0.6,0.1,0.8,0.3C-456.6,398.2-456.6,398.9-457,399.3z"/>
<path class="st1" d="M-457,376.6c-0.2,0.2-0.5,0.3-0.8,0.3c-0.3,0-0.6-0.1-0.8-0.3c-0.2-0.2-0.3-0.5-0.3-0.8s0.1-0.6,0.3-0.8
	c0.2-0.2,0.5-0.3,0.8-0.3c0,0,0,0,0,0c0.3,0,0.6,0.1,0.8,0.3C-456.6,375.5-456.6,376.2-457,376.6z"/>
<circle class="st1" cx="-453.1" cy="387.2" r="1.1"/>
<path class="st0" d="M-469.2,385.9c-0.7,0-1.3,0.6-1.3,1.3s0.6,1.3,1.3,1.3c0.7,0,1.3-0.6,1.3-1.3
	C-467.9,386.5-468.5,385.9-469.2,385.9z"/>
<circle class="st1" cx="-469.2" cy="403.2" r="1.1"/>
</svg>
