<?xml version="1.0" encoding="utf-8"?>
<!-- Generator: Adobe Illustrator 19.1.0, SVG Export Plug-In . SVG Version: 6.00 Build 0)  -->
<svg version="1.1" id="Lager_1" xmlns="http://www.w3.org/2000/svg" xmlns:xlink="http://www.w3.org/1999/xlink" x="0px" y="0px"
	 viewBox="-486 360 50 50" style="enable-background:new -486 360 50 50;" xml:space="preserve">
<style type="text/css">
	.st0{fill:#CEB6FC;}
	.st1{fill:#6F05CC;}
</style>
<title>Group 2</title>
<desc>Created with Sketch.</desc>
<path class="st0" d="M-461,360c-13.8,0-25,11.2-25,25s11.2,25,25,25s25-11.2,25-25S-447.2,360-461,360z"/>
<path class="st1" d="M-449.7,388.1c-1.1,0-1.6-0.6-2.1-1c-0.3-0.4-0.7-0.7-1.2-0.8v7.4c0,0.2-0.2,0.3-0.3,0.3h-18.4
	c-0.2,0-0.3-0.2-0.3-0.3v-7.7c0-0.2,0.2-0.3,0.3-0.3c0.5,0,0.9,0.1,1.2,0.3c0.1,0,0.1,0.1,0.2,0.1c0,0,0,0,0.1,0
	c0.1,0.1,0.3,0.2,0.4,0.3c0,0,0,0,0,0c0.1,0.1,0.1,0.1,0.2,0.2c0.2,0.2,0.3,0.3,0.5,0.5c0.3,0.2,0.6,0.4,1.1,0.4
	c0.4,0,1.5,0,1.8-1.6c0.1-0.4,0.1-0.8,0.1-1.4c0-2.4-1-2.8-1.6-2.9c-0.1,0-0.3,0-0.4,0c-0.2,0-0.4,0-0.5,0.1
	c-0.5,0.1-0.7,0.4-1.1,0.8c-0.4,0.4-0.8,0.8-1.4,1c-0.2,0-0.4,0.1-0.6,0.1c-0.2,0-0.3-0.2-0.3-0.3v-7.7c0-0.1,0-0.2,0.1-0.2
	c0.1-0.1,0.1-0.1,0.2-0.1h7.8c0.1,0,0.2,0,0.2,0.1c0.1,0.1,0.1,0.1,0.1,0.2c0,1-0.5,1.6-1,2c-0.5,0.4-0.8,0.8-0.8,1.6c0,0.5,0,2,3,2
	s3-1.5,3-2c0-0.8-0.4-1.2-0.8-1.6c-0.5-0.5-1-1-1-2c0-0.2,0.2-0.3,0.3-0.3h7.8c0.2,0,0.3,0.2,0.3,0.3v7.4c0.5-0.1,0.8-0.4,1.2-0.8
	c0.5-0.5,1-1,2.1-1c1.2,0,2.7,0.6,2.7,3.6C-447,387.5-448.4,388.1-449.7,388.1z"/>
</svg>
