<?xml version="1.0" encoding="utf-8"?>
<!-- Generator: Adobe Illustrator 19.1.0, SVG Export Plug-In . SVG Version: 6.00 Build 0)  -->
<svg version="1.1" id="Lager_1" xmlns="http://www.w3.org/2000/svg" xmlns:xlink="http://www.w3.org/1999/xlink" x="0px" y="0px"
	 viewBox="-486 360 50 50" style="enable-background:new -486 360 50 50;" xml:space="preserve">
<style type="text/css">
	.st0{fill:#CEB6FC;}
	.st1{fill:#6F05CC;}
</style>
<title>Group 2</title>
<desc>Created with Sketch.</desc>
<g>
	<path class="st0" d="M-461,360c-13.8,0-25,11.2-25,25s11.2,25,25,25s25-11.2,25-25S-447.2,360-461,360z"/>
</g>
<path class="st1" d="M-448.8,373.8c-0.5-0.5-1.2-0.8-2-0.8c-0.7,0-1.5,0.2-2,0.8l-6.4,6c-0.5,0.5-0.8,1.2-0.9,1.9c0,0.1,0,0.2,0,0.3
	c-2.5,0.2-7.2,1.5-9.9,4c-3.6,3.4-3.7,8-2.2,9.7l0,0c0.7,0.8,2,1.2,3.3,1.2c1.6,0,4-0.5,6.6-3c2.1-1.9,3.2-5,3.8-6.6
	c0.3-0.8,0.6-2,0.7-3c0.1,0,0.2,0,0.4,0c0.7,0,1.5-0.2,2-0.8l6.4-6.1C-447.8,376.7-447.7,374.9-448.8,373.8z M-468.6,387.4
	c1.4-1.3,3.5-2.3,5.4-2.9c-1.7,1.1-3.5,2.4-4.7,3.5c-1,1-2.2,2.4-3.1,3.8C-470.8,390.5-470.1,388.9-468.6,387.4z M-470,393.8
	c0.6-1.2,1.9-3,3.4-4.4c1.3-1.2,3.4-2.7,5.3-3.8c-1.1,1.8-2.7,3.9-4,5.1C-467.2,392.5-468.9,393.4-470,393.8z M-463.4,392.7
	c-2.1,2-4,2.4-5.1,2.4c1.2-0.6,2.7-1.5,4.4-3.1c1.2-1.1,2.6-2.9,3.7-4.6C-461,389.3-462,391.4-463.4,392.7z"/>
</svg>
