<?xml version="1.0" encoding="UTF-8" standalone="no"?>
<svg width="77px" height="77px" viewBox="0 0 77 77" version="1.1" xmlns="http://www.w3.org/2000/svg" xmlns:xlink="http://www.w3.org/1999/xlink">
    <!-- Generator: Sketch 41.1 (35376) - http://www.bohemiancoding.com/sketch -->
    <title>Page 1</title>
    <desc>Created with Sketch.</desc>
    <defs></defs>
    <g id="Symbols" stroke="none" stroke-width="1" fill="none" fill-rule="evenodd">
        <g id="Link" fill="#5F00D0">
            <g id="Page-1">
                <path d="M39.4,56.1 L30.6,64.9 C28.4,67.1 25.5,68.3 22.4,68.3 C19.3,68.3 16.4,67.1 14.2,64.9 L11.4,62.1 C9.2,59.9 8,57 8,53.9 C8,50.8 9.2,47.9 11.4,45.7 L23.1,34 C27.6,29.5 35,29.5 39.5,34 L43.7,38.2 C45.3,39.8 47.8,39.8 49.4,38.2 C51,36.6 51,34.1 49.4,32.5 L45.2,28.3 C37.6,20.7 25.1,20.7 17.5,28.3 L5.7,40 C2,43.7 0,48.6 0,53.9 C0,59.2 2,64 5.7,67.7 L8.5,70.5 C12.2,74.2 17.1,76.2 22.3,76.2 C27.5,76.2 32.4,74.2 36.1,70.5 L44.9,61.7 C46.5,60.1 46.5,57.6 44.9,56 C43.5,54.5 41,54.5 39.4,56.1" id="Fill-1"></path>
                <path d="M67.7,5.7 C64,2 59.1,0 53.9,0 C48.7,0 43.8,2 40.1,5.7 L32.7,13.1 C31.1,14.7 31.1,17.2 32.7,18.8 C34.3,20.4 36.8,20.4 38.4,18.8 L45.8,11.4 C48,9.2 50.9,8 54,8 C57.1,8 60,9.2 62.2,11.4 L65,14.2 C67.2,16.4 68.4,19.3 68.4,22.4 C68.4,25.5 67.2,28.4 65,30.6 L54.7,40.8 C52.5,43 49.6,44.2 46.5,44.2 C43.4,44.2 40.5,43 38.3,40.8 L34.1,36.6 C32.5,35 30,35 28.4,36.6 C26.8,38.2 26.8,40.7 28.4,42.3 L32.6,46.5 C36.3,50.2 41.2,52.2 46.4,52.2 C51.6,52.2 56.5,50.2 60.2,46.5 L70.4,36.3 C74.1,32.6 76.1,27.7 76.1,22.5 C76.1,17.3 74.1,12.4 70.4,8.7 L67.7,5.7 Z" id="Fill-3"></path>
            </g>
        </g>
    </g>
</svg>