<?xml version="1.0" encoding="utf-8"?>
<!-- Generator: Adobe Illustrator 19.1.0, SVG Export Plug-In . SVG Version: 6.00 Build 0)  -->
<svg version="1.1" id="Lager_1" xmlns="http://www.w3.org/2000/svg" xmlns:xlink="http://www.w3.org/1999/xlink" x="0px" y="0px"
	 viewBox="-481 355 60 60" style="enable-background:new -481 355 60 60;" xml:space="preserve">
<style type="text/css">
	.st0{fill:#CEB6FC;}
	.st1{fill:#6F05CC;}
</style>
<g>
	<polygon class="st0" points="-460.5,393.3 -477.9,373.9 -437.9,355.5 	"/>
</g>
<path class="st1" d="M-441.5,412.7l-35.5-39.6c-0.1-0.1-0.2-0.2-0.3-0.2c-0.1,0-0.3,0-0.4,0.1l-1.1,1c-0.1,0.1-0.2,0.2-0.2,0.3
	c0,0.1,0,0.3,0.1,0.4l35.5,39.6c0.1,0.1,0.2,0.2,0.3,0.2c0,0,0,0,0,0c0.1,0,0.2,0,0.3-0.1l1.1-1
	C-441.3,413.2-441.3,412.9-441.5,412.7z"/>
</svg>
