<?xml version="1.0" encoding="UTF-8" standalone="no"?>
<svg width="46px" height="50px" viewBox="0 0 46 50" version="1.1" xmlns="http://www.w3.org/2000/svg" xmlns:xlink="http://www.w3.org/1999/xlink">
    <!-- Generator: Sketch 41.1 (35376) - http://www.bohemiancoding.com/sketch -->
    <title>Fill 1</title>
    <desc>Created with Sketch.</desc>
    <defs></defs>
    <g id="Page-1" stroke="none" stroke-width="1" fill="none" fill-rule="evenodd">
        <g id="Home" transform="translate(-169.000000, -1491.000000)" fill="#FFFFFF">
            <g id="Better" transform="translate(0.000000, 1247.000000)">
                <path d="M209.188334,276.498629 L206.676564,276.498629 L195.981281,276.498629 L194.198734,276.498629 C192.578237,276.498629 191.362864,275.202231 191.362864,273.662758 C191.362864,272.042261 192.659261,270.826888 194.198734,270.826888 L195.981281,270.826888 L206.595539,270.826888 L209.10731,270.826888 C210.727807,270.826888 211.94318,272.123286 211.94318,273.662758 C212.024205,275.202231 210.727807,276.498629 209.188334,276.498629 L209.188334,276.498629 Z M203.192494,291.974378 L200.599698,291.974378 L198.006903,291.974378 C196.386405,291.974378 195.171032,290.67798 195.171032,289.138508 C195.171032,287.518011 196.46743,286.302638 198.006903,286.302638 L203.192494,286.302638 C204.812992,286.302638 206.028365,287.599035 206.028365,289.138508 C206.10939,290.67798 204.812992,291.974378 203.192494,291.974378 L203.192494,291.974378 Z M209.512434,281.360121 C209.512434,282.980618 208.216036,284.195991 206.676564,284.195991 L203.273519,284.195991 L198.087928,284.195991 L195.981281,284.195991 C194.360784,284.195991 193.145411,282.899593 193.145411,281.360121 C193.145411,279.739623 194.441809,278.52425 195.981281,278.52425 L206.595539,278.52425 C208.216036,278.52425 209.512434,279.820648 209.512434,281.360121 L209.512434,281.360121 Z M209.512434,265.884371 C209.512434,267.504868 208.216036,268.720241 206.676564,268.720241 L195.981281,268.720241 C194.360784,268.720241 193.145411,267.423843 193.145411,265.884371 C193.145411,264.344898 194.441809,263.0485 195.981281,263.0485 L206.595539,263.0485 C208.216036,263.0485 209.512434,264.344898 209.512434,265.884371 L209.512434,265.884371 Z M171.025622,265.074122 L180.910656,265.074122 L189.985441,257.781884 C193.79361,254.783964 195.657182,251.623994 198.574077,246.843527 L198.817151,246.519427 C199.060226,246.195328 199.303301,246.033278 199.6274,246.033278 C200.113549,246.033278 200.761748,246.519427 201.166873,247.572751 C201.653022,248.788124 202.706345,253.244491 196.386405,260.941854 L195.981281,260.941854 C193.30746,260.941854 191.119789,263.129525 191.119789,265.803346 C191.119789,267.018719 191.605938,268.153067 192.335162,269.044341 C190.552615,269.773564 189.337242,271.475087 189.337242,273.581733 C189.337242,275.607355 190.552615,277.389902 192.335162,278.119126 C191.605938,279.010399 191.119789,280.144748 191.119789,281.360121 C191.119789,283.466767 192.497212,285.330339 194.360784,285.978538 C193.63156,286.788787 193.226436,287.923135 193.226436,289.138508 C193.226436,290.191831 193.550535,291.16413 194.198734,291.974378 L190.30954,291.974378 C185.448048,291.974378 181.15373,289.138508 179.695283,284.925215 L179.371183,284.277016 L171.025622,284.277016 L171.025622,265.074122 Z M190.30954,294 L198.087928,294 L202.706345,294 L203.273519,294 C205.94734,294 208.135011,291.812329 208.135011,289.138508 C208.135011,288.085185 207.810912,287.031861 207.162713,286.221613 C209.593459,285.978538 211.538056,283.871892 211.538056,281.360121 C211.538056,280.225772 211.132931,279.172449 210.484732,278.281176 C212.591379,277.714002 214.130851,275.85043 214.130851,273.581733 C214.130851,271.313037 212.591379,269.449465 210.484732,268.882291 C211.132931,268.072042 211.538056,267.018719 211.538056,265.803346 C211.538056,263.129525 209.350384,260.941854 206.676564,260.941854 L198.979201,260.941854 C204.650942,253.325516 203.759668,248.626074 203.030445,246.843527 C202.382246,245.22303 201.085848,244.169706 199.78945,244.007656 C198.736127,243.926632 197.682803,244.493806 197.115629,245.466104 L196.872555,245.790204 C194.036684,250.489646 192.254137,253.406541 188.770068,256.161387 L180.181432,263.129525 L169,263.129525 L169,286.302638 L177.99376,286.302638 C180.019382,290.921055 184.799849,294 190.30954,294 L190.30954,294 Z" id="Fill-1"></path>
            </g>
        </g>
    </g>
</svg>