<?xml version="1.0" encoding="utf-8"?>
<!-- Generator: Adobe Illustrator 19.1.0, SVG Export Plug-In . SVG Version: 6.00 Build 0)  -->
<svg version="1.1" id="Lager_1" xmlns="http://www.w3.org/2000/svg" xmlns:xlink="http://www.w3.org/1999/xlink" x="0px" y="0px"
	 viewBox="-500 376 22 18" style="enable-background:new -500 376 22 18;" xml:space="preserve">
<style type="text/css">
	.st0{fill:#FFAEBF;}
</style>
<title>Twitter</title>
<desc>Created with Sketch.</desc>
<g id="Symbols">
	<g id="Twitter">
		<path id="Fill-1" class="st0" d="M-492.8,393.9c8-0.2,12.3-7,12.3-12.8c0-0.2,0-0.4,0-0.6c0.9-0.6,1.6-1.4,2.2-2.3
			c-0.8,0.4-1.7,0.6-2.6,0.7c0.9-0.6,1.6-1.4,2-2.5c-0.9,0.5-1.8,0.9-2.8,1.1c-0.8-0.9-2-1.4-3.3-1.4c-2.5,0-4.5,2-4.5,4.5
			c0,0.4,0,0.7,0.1,1c-3.7-0.2-7-2-9.2-4.7c-0.4,0.7-0.6,1.4-0.6,2.3c0,1.6,0.8,2.9,2,3.8c-0.7,0-1.4-0.2-2-0.6c0,0,0,0,0,0.1
			c0,2.2,1.5,4,3.6,4.4c-0.4,0.1-0.8,0.2-1.2,0.2c-0.3,0-0.6,0-0.8-0.1c0.6,1.8,2.2,3.1,4.2,3.1c-1.5,1.2-3.4,1.9-5.5,1.9
			c-0.4,0-0.7,0-1.1-0.1v0c1.9,1.2,4.2,2,6.6,2H-492.8"/>
	</g>
</g>
</svg>
