<?xml version="1.0" encoding="UTF-8" standalone="no"?>
<svg width="69px" height="46px" viewBox="0 0 69 46" version="1.1" xmlns="http://www.w3.org/2000/svg" xmlns:xlink="http://www.w3.org/1999/xlink">
    <!-- Generator: Sketch 41.1 (35376) - http://www.bohemiancoding.com/sketch -->
    <title>Fill 1</title>
    <desc>Created with Sketch.</desc>
    <defs></defs>
    <g id="Page-1" stroke="none" stroke-width="1" fill="none" fill-rule="evenodd">
        <g id="Home" transform="translate(-154.000000, -903.000000)" fill="#FFFFFF">
            <g id="Inclusive" transform="translate(0.000000, 657.000000)">
                <path d="M219.396665,259.738234 L210.242902,269.860206 L206.086896,266.018403 C204.78509,264.816676 202.638428,263.064125 201.198528,262.029972 L195.263593,257.773887 C194.25737,257.06092 193.025386,256.752924 191.807367,256.748269 C190.770887,256.751372 189.726649,256.977132 188.82516,257.513992 L186.680825,258.802609 C186.351883,259.000441 185.963978,259.101296 185.561334,259.102071 C184.841384,259.104399 184.120658,258.768474 183.718789,258.221529 L183.246322,257.585366 L183.24477,257.583814 C182.993408,257.244786 182.876261,256.86464 182.874709,256.479839 C182.877813,255.897983 183.146242,255.333194 183.666034,254.966237 L190.010595,250.508442 C190.559091,250.111228 191.535058,249.832713 192.462149,249.839695 C193.10607,249.836592 193.721286,249.966152 194.14255,250.174069 L199.307883,252.676051 C200.188425,253.098866 201.182236,253.271871 202.182253,253.274199 C203.466991,253.267992 204.765694,252.988701 205.835534,252.331592 L211.111807,249.049146 C211.448508,248.838902 211.852704,248.730289 212.273968,248.730289 C212.98616,248.728738 213.699904,249.051474 214.1041,249.578248 L219.513812,256.50001 C219.825687,256.896448 220.00645,257.455806 220.00645,258.035335 C220.007226,258.683911 219.778362,259.321625 219.396665,259.738234 L219.396665,259.738234 Z M211.478764,276.786623 L210.936474,277.36848 C210.55788,277.773452 210.044295,277.978265 209.518297,277.979041 C209.041174,277.978265 208.574138,277.810691 208.203301,277.467783 L199.064279,269.016127 L197.483957,270.708165 L207.266125,279.770382 C207.673424,280.147425 207.878238,280.659459 207.881341,281.182354 C207.878238,281.6587 207.709887,282.122633 207.366204,282.491918 L206.825466,283.073775 C206.446871,283.478747 205.933286,283.682784 205.407288,283.684336 C204.930166,283.682784 204.461578,283.514434 204.093844,283.173854 L194.952494,274.722197 L193.373724,276.414235 L201.486352,283.916302 C201.87736,284.291018 202.077518,284.789863 202.077518,285.301896 C202.077518,285.776691 201.909168,286.2414 201.565485,286.609909 L201.023195,287.191765 C200.646152,287.596737 200.131015,287.801551 199.603466,287.803102 C199.124792,287.801551 198.657755,287.6332 198.28847,287.292621 L190.192134,279.817707 L190.190582,279.817707 L190.189031,279.816155 L188.613364,281.511296 L188.614916,281.512848 L188.645172,281.541553 L192.700323,285.284053 C193.059522,285.653337 193.245716,286.126581 193.247267,286.616116 C193.245716,287.088583 193.078917,287.550965 192.735234,287.919474 L192.192944,288.502106 C191.814349,288.907078 191.302316,289.11034 190.777869,289.111891 C190.300747,289.11034 189.833711,288.942765 189.464426,288.600633 L185.933722,285.331377 C186.240942,284.728574 186.412396,284.074567 186.412396,283.418233 C186.413947,282.304948 185.971736,281.182354 185.0974,280.353015 L184.518647,279.803742 C183.698618,279.025606 182.634985,278.636926 181.585316,278.638478 C181.503856,278.638478 181.42162,278.657097 181.341712,278.661752 C181.341712,278.642357 181.346367,278.622186 181.346367,278.602791 C181.347919,277.489506 180.031372,275.53602 180.031372,275.53602 L179.45417,274.9883 C178.840506,274.406443 178.091851,274.043365 177.312939,273.897513 C177.473531,273.442889 177.564301,272.969646 177.564301,272.495627 C177.564301,271.382342 177.123642,270.258972 176.249306,269.430408 L175.672104,268.881136 C174.850523,268.102224 173.78689,267.713544 172.737221,267.71432 C172.614644,267.71432 172.493617,267.739146 172.371816,267.750007 C172.338456,266.680943 171.907882,265.612655 171.070009,264.816676 L171.070009,264.8159 L170.494359,264.268955 C169.672778,263.489268 168.609145,263.100588 167.559476,263.101364 C166.439985,263.100588 165.312735,263.539695 164.478741,264.410152 L163.107112,265.841519 L157.030981,260.659119 C156.594201,260.285179 156.376198,259.768491 156.374647,259.237838 C156.376198,258.7933 156.527481,258.358071 156.850217,257.996544 L163.261498,250.816438 C163.515963,250.53094 163.89223,250.272596 164.332889,250.093385 C164.773548,249.914173 165.273945,249.815645 165.741757,249.816421 C166.149057,249.816421 166.53153,249.890123 166.837199,250.02201 L170.357041,251.523975 C171.3493,251.942136 172.501376,252.11359 173.658882,252.117469 C174.817939,252.11359 175.968463,251.942136 176.960722,251.523975 L180.479013,250.022786 C181.021303,249.786164 181.839781,249.639537 182.653604,249.64264 C183.553542,249.637209 184.455031,249.823403 184.977926,250.090281 C185.309972,250.255528 185.62495,250.412242 185.91743,250.55887 L182.329316,253.081023 C181.176465,253.891742 180.555042,255.181136 180.556594,256.482167 C180.555042,257.343314 180.828127,258.219977 181.383606,258.963978 L181.382054,258.962426 L181.856073,259.599365 C182.756011,260.795661 184.159448,261.410877 185.56211,261.41398 C186.35421,261.41398 187.161051,261.213822 187.880225,260.782472 L190.026111,259.493855 C190.463667,259.226201 191.124656,259.057075 191.808143,259.060178 C192.611105,259.055523 193.420273,259.29292 193.906705,259.650568 L199.84319,263.906653 C201.164392,264.853139 203.316484,266.608793 204.508902,267.713544 L211.380237,274.066639 C211.787536,274.444458 211.99235,274.954164 211.993901,275.477835 C211.993125,275.952629 211.823223,276.417339 211.478764,276.786623 L211.478764,276.786623 Z M180.285837,288.16075 C179.908794,288.554861 179.403743,288.751916 178.885503,288.753468 C178.399071,288.752692 177.925052,288.578135 177.551888,288.225142 L176.974687,287.676646 C176.579024,287.301154 176.380417,286.797655 176.378866,286.282518 C176.380417,285.798414 176.554974,285.325946 176.909519,284.955886 L180.181103,281.540001 C180.559697,281.145891 181.064748,280.94806 181.582988,280.947284 C182.067869,280.94806 182.543439,281.121841 182.916603,281.475609 L183.495356,282.024106 C183.891018,282.399597 184.088074,282.902321 184.089625,283.417458 C184.088074,283.901562 183.913517,284.374029 183.558972,284.744866 L180.285837,288.16075 Z M171.91021,285.931853 C171.423778,285.931077 170.949759,285.75652 170.576595,285.403527 L169.997842,284.855031 C169.600628,284.478764 169.402021,283.97604 169.402021,283.460903 C169.402021,283.029553 169.548649,282.611393 169.829491,282.263055 L175.223687,276.633013 C175.587541,276.304846 176.043717,276.131841 176.516184,276.131841 C177.002616,276.132617 177.476635,276.306398 177.849799,276.659391 L178.428552,277.208663 C178.824214,277.584154 179.022821,278.086878 179.024372,278.602015 C179.022821,279.086119 178.846712,279.558587 178.493719,279.929423 L173.309768,285.339135 C172.932725,285.733246 172.42845,285.930301 171.91021,285.931853 L171.91021,285.931853 Z M165.560994,282.50278 C165.074562,282.502004 164.600543,282.327447 164.227379,281.97523 L163.650178,281.426733 L163.648626,281.425958 C163.252964,281.050466 163.054357,280.546967 163.054357,280.03183 C163.054357,279.548501 163.228914,279.07681 163.583458,278.705198 C163.583458,278.705198 171.329129,270.642221 171.394297,270.56464 C171.764358,270.208544 172.24148,270.024678 172.734118,270.023902 C173.22055,270.024678 173.694569,270.198459 174.067733,270.551451 L174.644934,271.100724 C175.042148,271.476215 175.239203,271.978939 175.240755,272.494851 C175.239203,272.97818 175.064646,273.450647 174.710102,273.82226 L166.961328,281.910838 C166.583509,282.304173 166.079234,282.501228 165.560994,282.50278 L165.560994,282.50278 Z M160.410402,274.788141 C160.011636,274.411098 159.814581,273.90915 159.81303,273.394013 C159.814581,272.910685 159.987586,272.438993 160.343682,272.067381 L166.154487,266.003663 C166.533082,265.608776 167.038133,265.410945 167.556373,265.410169 C168.041253,265.410945 168.515272,265.585502 168.889988,265.938495 L169.464086,266.486216 C169.464086,266.486216 170.058355,267.365206 170.059907,267.881119 C170.058355,268.267472 169.941984,268.643739 169.716223,268.969578 C169.696828,268.988973 163.444589,275.504988 163.444589,275.504988 C163.112543,275.740058 162.719984,275.861084 162.320442,275.862636 C161.83401,275.861084 161.35844,275.687303 160.986828,275.335086 L160.410402,274.788141 Z M222.325341,258.034559 C222.32379,256.998079 222.018897,255.946859 221.34472,255.080281 L215.935008,248.158518 C215.028864,247.007995 213.650252,246.422259 212.272416,246.419932 C211.452387,246.419932 210.617617,246.630176 209.879823,247.09023 L204.605102,250.3719 C204.050399,250.725668 203.099258,250.968496 202.180701,250.96229 C201.466957,250.965393 200.777264,250.822644 200.321864,250.59766 L195.156532,248.095678 C194.323314,247.694585 193.394671,247.530114 192.460598,247.528562 C191.119225,247.534768 189.760785,247.864487 188.669222,248.6209 L188.066419,249.043716 C187.584642,248.803215 186.8484,248.437034 186.014406,248.021976 C185.014389,247.531665 183.838263,247.333834 182.650501,247.329955 C181.577558,247.333058 180.504615,247.498305 179.562783,247.896295 L176.044492,249.397484 C175.471946,249.645743 174.561147,249.807887 173.656554,249.804008 C172.751962,249.807887 171.842714,249.645743 171.270168,249.397484 L167.748773,247.895519 C167.106404,247.621659 166.419814,247.504512 165.73943,247.503736 C164.955863,247.504512 164.176952,247.658898 163.453122,247.952153 C162.730069,248.246961 162.058995,248.682189 161.524463,249.279562 L155.113182,256.459668 C154.402542,257.25332 154.049549,258.252561 154.051101,259.236286 C154.049549,260.409309 154.551497,261.58621 155.519706,262.410894 L161.500413,267.513386 L158.663281,270.473095 C157.881267,271.289245 157.491811,272.347448 157.491811,273.394013 C157.490259,274.507298 157.93247,275.631445 158.808358,276.459232 L159.384007,277.006177 C159.926298,277.520538 160.577977,277.847929 161.259912,278.022486 C160.917781,278.651667 160.730811,279.34136 160.732362,280.032606 C160.730811,281.146667 161.173022,282.270037 162.047358,283.0986 L162.045806,283.097825 L162.623007,283.647097 C163.444589,284.426009 164.509773,284.813913 165.559442,284.813137 C166.123455,284.813913 166.688243,284.700645 167.218896,284.478764 C167.40509,285.234401 167.789891,285.952799 168.395022,286.526898 L168.972223,287.07617 C169.793804,287.855082 170.857438,288.242986 171.908658,288.24221 C172.730239,288.242986 173.555699,288.000934 174.26634,287.530794 C174.474256,288.199541 174.830352,288.833376 175.372642,289.348513 L175.949844,289.897785 C176.769873,290.676697 177.835058,291.064601 178.884727,291.063825 C180.002667,291.064601 181.131468,290.625493 181.965462,289.755036 L184.472875,287.136683 L187.879449,290.289568 C188.694824,291.045981 189.741389,291.422249 190.774766,291.419921 C191.909774,291.422249 193.054867,290.967625 193.890413,290.073118 L194.434254,289.490486 C194.903618,288.98621 195.210063,288.389614 195.387723,287.766639 L196.707373,288.984659 C197.524299,289.737969 198.569313,290.112684 199.601138,290.111908 C200.737697,290.112684 201.885894,289.65806 202.722215,288.762777 L203.262954,288.180921 C203.887479,287.513726 204.238921,286.68749 204.347534,285.84341 C204.695872,285.932628 205.048865,285.993141 205.404961,285.993141 C206.54152,285.993141 207.686613,285.539294 208.52371,284.644787 L209.066,284.06293 C209.823965,283.250659 210.201008,282.208748 210.199456,281.181578 C210.199456,280.862721 210.153684,280.545415 210.083085,280.231988 C211.025692,280.107083 211.939595,279.686595 212.634719,278.940268 L213.178561,278.357635 C213.936525,277.545364 214.312017,276.503453 214.312017,275.475507 C214.313568,274.344379 213.857393,273.203165 212.957455,272.371498 L211.94037,271.431994 L221.119735,261.282869 C221.943644,260.368967 222.32379,259.192841 222.325341,258.034559 L222.325341,258.034559 Z" id="Fill-1"></path>
            </g>
        </g>
    </g>
</svg>