<?xml version="1.0" encoding="utf-8"?>
<!-- Generator: Adobe Illustrator 19.1.0, SVG Export Plug-In . SVG Version: 6.00 Build 0)  -->
<svg version="1.1" id="Lager_1" xmlns="http://www.w3.org/2000/svg" xmlns:xlink="http://www.w3.org/1999/xlink" x="0px" y="0px"
	 viewBox="-488 370.3 39.7 39.7" style="enable-background:new -488 370.3 39.7 39.7;" xml:space="preserve">
<style type="text/css">
	.st0{fill:#CEB6FC;}
	.st1{fill:#6F05CC;}
</style>
<title>Fill 1</title>
<desc>Created with Sketch.</desc>
<g>
	<path class="st0" d="M-467.1,387.4c0,1.5,1.2,2.6,2.6,2.6h9.2c1.5,0,2.6-1.2,2.6-2.6c0-1.5-1.2-2.6-2.7-2.6h-9.1
		C-465.9,384.7-467.1,385.9-467.1,387.4z"/>
	<path class="st0" d="M-468.6,400.7c0-1.1,0.4-2,1.1-2.7c-1.6-0.7-2.6-2.2-2.6-3.9c0-1.8,1.1-3.3,2.6-3.9c-0.7-0.7-1.1-1.7-1.1-2.7
		c0-2.3,1.9-4.2,4.2-4.2h3.2c4.6-5.9,4-9.4,3.4-10.8c-0.6-1.4-1.6-2-2.3-2.1c-0.4-0.1-0.7,0.1-0.9,0.4c-2.2,3.6-5.4,6.1-8.2,8.2
		c-0.7,0.5-1.3,1-1.9,1.5c-4.2,3.4-7.2,6.1-7.2,6.1l-0.2,0.2h-5.4c-1.1,0-2,0.9-2,2v12.5c0,1.1,0.9,2,2,2h5.2l0.2,0.6
		c1.3,3.6,4.9,6.1,9.1,6.1h3.3c-0.5-0.7-0.8-1.6-0.8-2.4c0-1.1,0.4-2.1,1-2.7C-467.5,404.1-468.6,402.6-468.6,400.7z"/>
	<path class="st0" d="M-458.3,404.7h-4.4c-1.5,0-2.6,1.2-2.6,2.6c0,1.5,1.2,2.6,2.6,2.6h2.3h2.3c1.5,0,2.5-1.1,2.5-2.6
		C-455.6,405.9-456.8,404.7-458.3,404.7z"/>
	<path class="st0" d="M-455.3,398h-9.1c-1.5,0-2.6,1.2-2.6,2.6c0,1.5,1.2,2.6,2.6,2.6h1.9h4.4h2.9c0.7,0,1.4-0.3,1.9-0.8
		c0.5-0.5,0.7-1.2,0.6-1.9C-452.7,399.2-453.8,398-455.3,398z"/>
	<path class="st0" d="M-453.2,391.4h-2.2h-9.1h-1.6c-1.5,0-2.6,1.2-2.6,2.6c0,1.5,1.2,2.6,2.6,2.6h1.6h9.2h2.2
		c1.5,0,2.5-1.1,2.5-2.6C-450.5,392.6-451.7,391.4-453.2,391.4z"/>
</g>
<path class="st1" d="M-464.2,389.2c-1,0-1.9-0.8-1.9-1.9c0-1,0.8-1.9,1.9-1.9C-463.2,385.5-463.2,389.2-464.2,389.2z"/>
<path class="st1" d="M-465.8,395.9c-1,0-1.9-0.8-1.9-1.9c0-1,0.8-1.9,1.9-1.9C-464.8,392.2-464.8,395.9-465.8,395.9z"/>
<path class="st1" d="M-464.2,402.6c-1,0-1.9-0.8-1.9-1.9c0-1,0.8-1.9,1.9-1.9C-463.2,398.8-463.2,402.6-464.2,402.6z"/>
<path class="st1" d="M-462.5,409.2c-1,0-1.9-0.8-1.9-1.9c0-1,0.8-1.9,1.9-1.9C-461.4,405.5-461.4,409.2-462.5,409.2z"/>
</svg>
