<?xml version="1.0" encoding="UTF-8" standalone="no"?>
<svg width="45px" height="45px" viewBox="0 0 45 45" version="1.1" xmlns="http://www.w3.org/2000/svg" xmlns:xlink="http://www.w3.org/1999/xlink">
    <!-- Generator: Sketch 41.1 (35376) - http://www.bohemiancoding.com/sketch -->
    <title>Combined Shape</title>
    <desc>Created with Sketch.</desc>
    <defs></defs>
    <g id="Page-1" stroke="none" stroke-width="1" fill="none" fill-rule="evenodd">
        <g id="Home" transform="translate(-170.000000, -1174.000000)" fill="#FFFFFF">
            <g id="Time" transform="translate(0.000000, 977.000000)">
                <path d="M192.497522,242 C180.146527,242.000704 170.066166,231.986536 170.000325,219.620754 C169.934132,207.214833 179.973299,197.067926 192.378868,197.001733 L192.494706,197.001381 C192.868626,196.983072 193.228463,197.148203 193.493587,197.412623 C193.75836,197.676691 193.907294,198.035472 193.907294,198.409745 L193.907294,218.092327 L205.912184,218.092327 C206.689952,218.092327 207.320547,218.722922 207.320547,219.500691 C207.320547,220.278459 206.689952,220.909054 205.912184,220.909054 L192.498931,220.909054 C191.721162,220.909054 191.090567,220.278459 191.090567,219.500691 L191.090567,199.868105 C180.848597,200.594468 172.761422,209.190062 172.817052,219.605614 C172.874795,230.422549 181.693967,239.182569 192.497522,239.183273 C192.533436,239.183273 192.568293,239.183273 192.603854,239.182921 C203.456702,239.124826 212.238904,230.248264 212.181161,219.395768 C212.177288,218.617999 212.804362,217.983883 213.582131,217.979658 L213.589877,217.979658 C214.364124,217.979658 214.994015,218.605324 214.997888,219.380628 C215.064081,231.786549 205.024915,241.933455 192.618994,241.999648 C192.578855,242 192.537661,242 192.497522,242 Z M204.174158,201.831504 C204.174158,202.70645 203.464695,203.415913 202.589749,203.415913 C201.714803,203.415913 201.00534,202.70645 201.00534,201.831504 C201.00534,200.956559 201.714803,200.247095 202.589749,200.247095 C203.464695,200.247095 204.174158,200.956559 204.174158,201.831504 Z M211.330087,208.590205 C211.330087,209.465151 210.620624,210.174614 209.745678,210.174614 C208.870733,210.174614 208.16127,209.465151 208.16127,208.590205 C208.16127,207.715259 208.870733,207.005796 209.745678,207.005796 C210.620624,207.005796 211.330087,207.715259 211.330087,208.590205 Z" id="Combined-Shape"></path>
            </g>
        </g>
    </g>
</svg>