<?xml version="1.0" encoding="utf-8"?>
<!-- Generator: Adobe Illustrator 19.1.0, SVG Export Plug-In . SVG Version: 6.00 Build 0)  -->
<svg version="1.1" id="Layer_1" xmlns="http://www.w3.org/2000/svg" xmlns:xlink="http://www.w3.org/1999/xlink" x="0px" y="0px"
	 viewBox="-384 186 190 190" style="enable-background:new -384 186 190 190;" xml:space="preserve">
<style type="text/css">
	.st0{fill:#BD19E6;}
</style>
<g transform="scale(1 -1)">
	<g transform="translate(0 -75)">
		<g>
			<path marker-end="none" marker-start="none" class="st0" d="M-322.4-294.9c-13.6,5.6-26.5,14.4-27.9,30.3c-0.3,3.5-0.3,9,3.1,12
				c1.9,1.7,4.5,1.8,6.4,1.9c10,0.6,8-12.8,10.3-18.3c5.8-14.1,32.9-15.4,50.6-14.9c8.6,0.2,21.4,2.2,31.7,10.2
				c-2.1-0.2-4.3-0.2-5.9,0c-0.9,0.1-2.7,0.2-4,1l-0.4,0.3l-0.6,0.3c-0.5,0.3-0.9,0.6-1.3,1c-4-1-9.3-1.5-14.8-1.5
				c-5.6,0-11.4,0.6-15.9,1.9c-0.3,0.1-0.6,0.3-0.7,0.6c-5.2-6.9-17.3-7.8-22.4-2.1c-0.4,0.5-0.7,0.9-0.9,1.4
				c-3-0.5-6.3-0.1-8.9,1.2c-2.8,1.4-4.9,4-4,7.6c1.2,4.9,6.4,7.7,8.2,10.5l0.5,1.1l-0.1,2.3c-0.5,12.2-4.5,19.5-8.3,27.1
				c-4.1,8.2-8,16.7-6.8,31.7c0.2,2.3-1.8,3.4-4.6,5.8c-4.2,3.6-8.5,7.2-10.1,16.4c-1.1-0.3-2.3-0.7-3.5-0.9
				c-1.4-0.3-2.8-0.5-4.3-0.5c-0.7,0-1.3,0.6-1.3,1.3c0,0.7,0.6,1.3,1.3,1.3c1.2,0,2.5,0.2,3.7,0.4c1.2,0.3,2.5,0.6,3.6,1
				c0,0,0,0,0.1,0c-0.1,0.6-0.1,1.3-0.2,2c-1.1,0-2.4,0.1-3.7,0.2c-1.3,0-2.5,0.1-3.5,0c-0.7-0.1-1.3,0.5-1.4,1.2
				c-0.1,0.7,0.5,1.3,1.2,1.4c1.2,0.1,2.5,0.1,3.8,0c1.2,0,2.4-0.1,3.4-0.2c-0.1,2.8,0,6,0.3,9.7c0.4,5.1,3.4,15.7,7.1,24.4
				c3.2,7.6,8.3,17.3,13.2,14.3c3.3-2,4.6-8.1,6-12l0.4-0.9l0.9-0.1c5.3-0.9,19.7-3.9,23.5-4.9c3,3.6,15.4,18.1,19.7,10
				c3.4-6.5,0.7-23.9,0.1-33.9c-0.2-4.4,2.3-12.3,5.9-17.2c1.8-2.4,4.6-3.6,7.6-5.5c4.5-2.9,12.8-7.3,17.2-10.1
				c11.9-7.3,16.6-14.8,22.3-26c4.2-8.5,7.3-32.7,4.9-43.1c-1.3-5.8-3.9-16.1-8.7-22.8c-4-5.7-10.2-10.5-15.9-13.4
				c-7.9-4.1-16-7.3-27.4-8.6C-288.9-302.2-310-300-322.4-294.9z M-272.9-297.8c11,1.3,18.7,4.4,26.5,8.4c5.4,2.8,11.2,7.3,15,12.6
				c4.4,6.3,7,16.1,8.3,21.9c2.3,9.9-0.7,33.5-4.7,41.4c-5.5,11.1-10,18-21.3,25c-4.1,2.5-12.9,7.3-17.3,10.1
				c-2.5,1.6-6.2,3.3-8.3,6.2c-3.9,5.3-6.6,13.8-6.4,18.9c0.6,10.9,3.1,26.9,0.1,32.6c-2.1,3.9-10.7-5-16-11.1
				c-0.1-0.1-0.3-0.3-0.5-0.3c0,0-0.1,0-0.1,0c-0.3-0.1-0.6-0.1-0.9,0c0,0,0,0,0,0l-0.5,0.1c-3.6,1-22.7,4.9-24.8,5.1
				c-0.5,0-0.9,0.3-1.1,0.7c-1.8,3.9-3,10.8-5.6,12.5c-0.6,0.4-1.7,0.2-3.8-2.5c-1.9-2.5-3.8-6.3-5.7-10.6c-3.7-8.7-6.6-19-6.9-23.6
				c-1.8-22.2,4.3-26.5,9.7-31.1c2-1.8,5.8-4,5.5-8c-1.1-14.3,2.5-22.3,6.5-30.3c4.1-8.1,8.6-16.4,8.6-30.7c0-0.1,0-0.2,0-0.3
				c-1.2-4.7-7.6-6.7-8.8-11.7c-0.5-2,0.5-3.6,2.7-4.7c2.1-1.1,5.1-1.4,7.6-0.9c0,0.1,0.1,0.3,0.1,0.4c0.4,1.3,1.4,2.6,2.4,3.8
				c1.1,1.3,2.1,2.3,3,3.5c0.9,1.2,1.5,2.1,1.7,3c0.2,0.7,0.8,1.1,1.5,1c0.7-0.2,1.1-0.8,1-1.5c-0.3-1.5-1.3-2.8-2.2-4
				c-0.9-1.2-2.2-2.5-3-3.5c-1-1.2-1.6-2.1-1.9-3c-0.2-0.7-0.2-1.3,0.4-1.9c4-4.4,14.4-3.7,18.6,2.1c1.2,1.6,3.6,4.9,4.3,8.5
				c0.1,0.7,0.8,1.1,1.5,1c0.7-0.1,1.1-0.8,1-1.5c-0.6-3.1-2.3-6-3.5-7.8c0,0,0.1,0,0.1,0c4.1-1.2,9.6-1.8,15.1-1.8
				c5,0,9.8,0.5,13.5,1.3c-0.1,0.2-0.1,0.4-0.1,0.6c-0.3,1.7,0.3,3.6,1,5.2c1.2,2.4,3.1,4.8,5,6.3l0.7,0.5l-0.4,0.8
				c-0.9,2-2,4.3-2.4,6c-0.2,0.7,0.2,1.4,0.9,1.6c0.7,0.2,1.4-0.2,1.6-0.9c0.5-2,2.1-5.2,3.1-7.5c0.3-0.6,0-1.4-0.7-1.7
				c-1.6-0.7-4.2-3.3-5.6-6.2c-0.9-1.8-1.8-4.7,1.1-6.1c0.1-0.1,0.2-0.1,0.3-0.2c0.5-0.5,1.4-0.7,3-0.8c1.6-0.1,3.6-0.1,5.4,0
				c1.9,0.2,3.3,0.6,3.8,0.9c0.2,0.1,0.4,0.2,0.6,0.2c0.1,0.1,0.3,0.3,0.4,0.4c4.1,4.3,4.8,6.9,5.6,13.1c0.1,0.7,0.7,1.2,1.4,1.1
				c0.7-0.1,1.2-0.7,1.1-1.4c-0.8-6.6-1.6-9.7-6.2-14.6c-11.4-12.1-27.8-14.8-38-15.1c-16.8-0.4-46.4,0.4-53.1,16.5
				c-2.6,6.3-0.6,17.2-7.8,16.8c-2.1-0.1-3.7-0.3-4.8-1.3c-2.3-2.1-2.6-6.3-2.2-9.8c1.3-14.4,12.9-22.6,26.3-28.2
				C-309.5-297.5-288.9-299.7-272.9-297.8z M-286.7-179.4c-0.7,0.4-1.3,0.7-2,1c-0.6,0.3-1.3,0.6-1.8,0.8c-0.7,0.2-1,1-0.8,1.6
				c0.2,0.7,1,1,1.6,0.8c0.7-0.3,1.4-0.6,2.1-0.9c0.7-0.3,1.4-0.7,2-1c1.3-0.7,2.6-1.3,3.8-1.5c0.7-0.2,1.1-0.9,1-1.5
				c-0.2-0.7-0.9-1.1-1.5-1C-283.9-180.8-285.4-180.1-286.7-179.4z M-288.9-173c-0.7,0.1-1.2,0.8-1,1.5c0.1,0.7,0.8,1.2,1.5,1
				c2.5-0.5,5.1-0.7,7.6-1.2c0.7-0.1,1.2-0.8,1-1.5c-0.1-0.7-0.8-1.2-1.5-1C-283.7-173.7-286.3-173.5-288.9-173z M-303-162.6
				c0,2.7,2.2,4.8,4.8,4.8s4.8-2.2,4.8-4.8c0-2.7-2.2-4.8-4.8-4.8S-303-165.3-303-162.6z M-325.4-164.4c-0.5,3.5,9,2.3,9.2,0
				C-315.6-168.2-324.9-168.1-325.4-164.4z M-343.3-157c0,2.5,2.1,4.6,4.6,4.6c2.5,0,4.6-2.1,4.6-4.6c0-2.5-2.1-4.6-4.6-4.6
				C-341.2-161.6-343.3-159.5-343.3-157z"/>
		</g>
	</g>
</g>
</svg>
