<?xml version="1.0" encoding="utf-8"?>
<!-- Generator: Adobe Illustrator 19.1.0, SVG Export Plug-In . SVG Version: 6.00 Build 0)  -->
<svg version="1.1" id="Layer_1" xmlns="http://www.w3.org/2000/svg" xmlns:xlink="http://www.w3.org/1999/xlink" x="0px" y="0px"
	 viewBox="-384 186 190 190" style="enable-background:new -384 186 190 190;" xml:space="preserve">
<style type="text/css">
	.st0{fill:#BD19E6;}
</style>
<g>
	<g transform="scale(1 -1)">
		<g transform="translate(0 -75)">
			<g>
				<path marker-end="none" marker-start="none" class="st0" d="M-334.3-249.7c-7.7,3.2-14.7,5.9-22.4,13.2
					c-2.9,2.8-10.7,10.1-14.1,20.9c-5,16.1-1.9,30.5,4.1,48.8c5.8,17.6,18.1,32.1,34.3,37.8c7.3,2.6,21.1,4.4,32.8-0.8
					c0.1,0,0.1-0.1,0.2-0.1c8.5,4,15.3,5.2,29,0.1c5.3-2,13.6,0.9,11.5,8.6c-0.7,2.6-3.8,0.9-5.5,4.4c-1.2,2.5-0.1,4.4,1.8,5.3
					c1.7,0.9,4.2,0.9,6.2-0.1c3.2-1.5,7.3-6.5,7-13.8c-0.2-5.1-4.8-11.9-11.4-13.6c-11.1-3-22.8,6.3-29.7,2.7l-0.5-0.4l0.1-0.1
					c2.3-2.5,5.4-7.8,6-9.4c2.5-6.4,4.8-12.3,4.8-19.3c0-7.2-2.2-16-6-20.9l-0.1-0.1c-1.3-1.3-0.1-7.5-5.6-10.6
					c-1.6-0.9-3.4-0.8-5.2,0.1c-1.6,0.8-3,3.3-3,5.6l0.1,1.3l-0.3-0.1c-6-3.6-13.1-13.6-15-19.9c-1.6-5.4-2.7-11.2-1.6-20
					c0.6-5,5.4-10.9,2.8-15.3c-1.7-2.9-5-2.9-7.8-1.6c0-0.1,0-0.2,0-0.3C-322.5-252.3-330.5-251.3-334.3-249.7z M-323.5-247
					c0.6,4.1-7.1,8-8.6,13.3c0,0,0,0,0,0.1c-4.7-2.1-10.5-2.3-14.5-1.2c-0.5,0.1-0.7,0.6-0.6,1.1s0.6,0.7,1.1,0.6
					c4.3-1.2,11.3-0.7,15.7,2.4c3,2.1,6.1,4.9,6.8,8c0.1,0.5,0.6,0.8,1,0.7c0.5-0.1,0.8-0.6,0.7-1c-0.8-3.9-4.5-7-7.5-9.1
					c-0.4-0.3-0.8-0.5-1.1-0.7c0.1-0.1,0.2-0.2,0.2-0.3c1-3.6,7-7.5,8.4-11.6c2.7-1.8,5.5-1.7,6.6,0.3c2,3.5-2.3,8.6-3,14.3
					c-1.2,9.1,0,15.1,1.7,20.7c2.1,7,10.5,18.8,17.5,21.8c0.1,0.2,0.2,0.3,0.4,0.4c1.1,0.4,2.6,1.1,3.9,1.9c1.3,0.8,2.4,1.7,2.9,2.6
					c0.2,0.4,0.7,0.6,1.2,0.4c0.4-0.2,0.6-0.7,0.4-1.2c-0.7-1.4-2.1-2.5-3.5-3.3c-1-0.6-2-1.1-3-1.5c0-0.1-0.1-0.2-0.2-0.3
					c-1.8-1.6-0.7-5.6,1.1-6.6c1.4-0.8,2.6-0.7,3.6-0.2c4.3,2.4,3.4,6.8,4.5,9.3l0.6,0.9c3.5,4.4,5.7,12.8,5.7,19.8
					c0,6.6-2.2,12.3-4.7,18.7c-0.7,1.8-4.5,8.1-6.4,9.5c-0.4,0.3-0.5,1,0,1.3c7.6,6.5,21-4.4,31.7-1.4c5.8,1.6,9.9,7.6,10.1,12.1
					c0.3,6.7-3.4,11-6,12.2c-1.5,0.7-3.4,0.7-4.7,0.1c-1.1-0.6-1.7-1.5-1-3c1.2-2.5,4.6-1.1,5.6-4.7c2.6-9.7-7.9-12.9-13.8-10.6
					c-13.6,5.1-19.9,3.7-28.3-0.3c-0.4-0.2-0.9,0-1.2,0.4l0,0c-11.1,5-24.3,3.2-31.3,0.7c-15.6-5.5-27.6-19.5-33.2-36.7
					c-6-18.3-8.9-32.2-4.1-47.8c3.2-10.3,10.7-17.4,13.6-20.1c7.4-7,14.1-9.6,21.9-12.8C-329.5-249.8-323.9-249.8-323.5-247z
					 M-361.8-218.5c-0.2,0.4-0.1,0.9,0.4,1.2c0.4,0.2,0.9,0.1,1.2-0.4c1-2,3-3.1,5-3.2c2-0.1,3.8,0.8,4.7,2.5
					c0.2,0.4,0.7,0.6,1.2,0.4c0.4-0.2,0.6-0.7,0.4-1.2c-1.2-2.5-3.8-3.6-6.3-3.5C-357.9-222.5-360.5-221.1-361.8-218.5z
					 M-343.1-220.6c-0.6,2.2,5.6,2.4,5.9,0.9C-336.5-222-342.4-222.9-343.1-220.6z M-333.7-217.1c-0.3,0.4-0.3,0.9,0.1,1.2
					s0.9,0.3,1.2-0.1c1.3-1.5,3.4-2.1,5.4-1.9c1.9,0.2,3.6,1.3,4.2,3.3c0.1,0.5,0.6,0.7,1.1,0.6c0.5-0.1,0.7-0.6,0.6-1.1
					c-0.9-2.7-3.2-4.2-5.7-4.5C-329.3-219.9-332-219.1-333.7-217.1z M-319.6-196.9c-0.1,2.3-0.3,5.9-0.7,9.2
					c-0.2,1.6-0.5,3.1-0.8,4.3c-0.3,0.9-0.6,1.5-0.9,1.7l-0.2,0.2h-0.1c-0.3-0.1-0.7-0.3-1.4-0.9c-0.8-0.6-1.8-1.5-2.7-2.4
					c-1.6-1.6-3.1-3.3-3.6-3.8l-0.1-0.2c-0.2-0.3-0.6-0.5-1-0.4c-7.1,2.2-16,3.3-21.9,1c-0.5-0.2-1,0.1-1.1,0.6
					c-0.5,1.7-1,4-1.9,5.9c-0.9,2-1.8,2.9-2.8,2.8c-0.2,0-0.7-0.3-1.5-1.4c-0.7-1-1.5-2.3-2.2-3.9c-1.4-3.2-2.7-7.2-3.1-10.4
					c-0.1-0.5-0.5-0.8-1-0.8c-0.5,0.1-0.8,0.5-0.8,1c0.4,3.4,1.7,7.6,3.2,10.9c1.2,2.7,3.2,6.2,5.2,6.3c2.3,0.1,3.7-1.9,4.5-3.9
					c0.7-1.5,1.2-3.3,1.6-4.8l0.1-0.5l0.4,0.1c5.5,1.6,12.8,1,19-0.6l2.2-0.6l0.1,0.1c0.7,0.8,2,2.3,3.4,3.7c0.9,0.9,2,1.9,2.9,2.6
					c0.8,0.6,1.8,1.3,2.7,1.3c0.2,0,0.4,0,0.6-0.1c1.9-0.9,2.6-4.6,3-7.5c0.4-3.3,0.5-7.1,0.7-9.3c0-0.5-0.3-0.9-0.8-0.9
					S-319.6-197.4-319.6-196.9z"/>
			</g>
		</g>
	</g>
	<g transform="scale(1 -1)">
		<g transform="translate(0 -75)">
			<g>
				<path marker-end="none" marker-start="none" class="st0" d="M-243.7-162.3c7.7-3.2,14.7-5.9,22.4-13.2
					c2.9-2.8,10.7-10.1,14.1-20.9c5-16.1,1.9-30.5-4.1-48.8c-5.8-17.6-18.1-32.1-34.3-37.8c-7.3-2.6-21.1-4.4-32.8,0.8
					c-0.1,0-0.1,0.1-0.2,0.1c-8.5-4-15.3-5.2-29-0.1c-5.3,2-13.6-0.9-11.5-8.6c0.7-2.6,3.8-0.9,5.5-4.4c1.2-2.5,0.1-4.4-1.8-5.3
					c-1.7-0.9-4.2-0.9-6.2,0.1c-3.2,1.5-7.3,6.5-7,13.8c0.2,5.1,4.8,11.9,11.4,13.6c11.1,3,22.8-6.3,29.7-2.7l0.5,0.3l-0.1,0.1
					c-2.3,2.5-5.4,7.8-6,9.4c-2.5,6.4-4.8,12.3-4.8,19.3c0,7.2,2.2,16,6,20.9l0.1,0.1c1.3,1.3,0.1,7.5,5.6,10.6
					c1.6,0.9,3.4,0.8,5.2-0.1c1.6-0.8,3-3.3,3-5.6l-0.1-1.3l0.3,0.1c6,3.6,13.1,13.6,15,19.9c1.6,5.4,2.7,11.2,1.6,20
					c-0.6,5-5.4,10.9-2.8,15.3c1.7,2.9,5,2.9,7.8,1.6c0,0.1,0,0.2,0,0.3C-255.5-159.7-247.5-160.7-243.7-162.3z M-254.5-165
					c-0.6-4.1,7.1-8,8.6-13.3c0,0,0,0,0-0.1c4.7,2.1,10.5,2.3,14.5,1.2c0.5-0.1,0.7-0.6,0.6-1.1c-0.1-0.5-0.6-0.7-1.1-0.6
					c-4.3,1.2-11.3,0.7-15.7-2.4c-3-2.1-6.1-4.9-6.8-8c-0.1-0.5-0.6-0.8-1-0.7c-0.5,0.1-0.8,0.6-0.7,1c0.8,3.9,4.5,7,7.5,9.1
					c0.4,0.3,0.8,0.5,1.2,0.7c-0.1,0.1-0.2,0.2-0.2,0.3c-1,3.6-7,7.5-8.4,11.6c-2.7,1.8-5.5,1.7-6.6-0.3c-2-3.5,2.3-8.6,3-14.3
					c1.2-9.1,0-15.1-1.7-20.7c-2.1-7-10.5-18.8-17.5-21.8c-0.1-0.2-0.2-0.3-0.4-0.4c-1.1-0.4-2.6-1.1-3.9-1.9
					c-1.3-0.8-2.4-1.7-2.9-2.6c-0.2-0.4-0.7-0.6-1.2-0.4c-0.4,0.2-0.6,0.7-0.4,1.2c0.7,1.4,2.1,2.5,3.5,3.3c1,0.6,2,1.1,3,1.5
					c0,0.1,0.1,0.2,0.2,0.3c1.8,1.6,0.7,5.6-1.1,6.6c-1.4,0.8-2.6,0.7-3.6,0.2c-4.3-2.4-3.4-6.8-4.5-9.3l-0.6-0.9
					c-3.5-4.4-5.7-12.8-5.7-19.8c0-6.6,2.2-12.3,4.7-18.7c0.7-1.8,4.5-8.1,6.4-9.5c0.4-0.3,0.5-1,0-1.3c-7.6-6.5-21,4.4-31.7,1.4
					c-5.8-1.6-9.9-7.6-10.1-12.1c-0.3-6.7,3.4-11,6-12.2c1.6-0.7,3.4-0.7,4.7-0.1c1.1,0.6,1.7,1.5,1,3c-1.2,2.5-4.6,1.1-5.6,4.7
					c-2.6,9.7,7.9,12.9,13.8,10.6c13.6-5.1,19.9-3.7,28.3,0.3c0.4,0.2,0.9,0,1.2-0.4l0,0c11.1-5,24.3-3.2,31.3-0.7
					c15.6,5.5,27.6,19.5,33.2,36.7c6,18.3,8.9,32.2,4.1,47.8c-3.2,10.3-10.7,17.4-13.6,20.1c-7.4,7-14.1,9.6-21.9,12.8
					C-248.5-162.2-254.1-162.2-254.5-165z M-216.2-193.5c0.2-0.4,0.1-0.9-0.4-1.2c-0.4-0.2-0.9-0.1-1.2,0.4c-1,2-3,3.1-5,3.2
					c-2,0.1-3.8-0.8-4.7-2.5c-0.2-0.4-0.7-0.6-1.2-0.4c-0.4,0.2-0.6,0.7-0.4,1.2c1.2,2.5,3.8,3.6,6.3,3.5
					C-220.1-189.5-217.5-190.9-216.2-193.5z M-234.9-191.4c0.6-2.2-5.6-2.4-5.9-0.9C-241.5-190-235.5-189.1-234.9-191.4z
					 M-244.3-194.9c0.3-0.4,0.3-0.9-0.1-1.2c-0.4-0.3-0.9-0.3-1.2,0.1c-1.3,1.5-3.4,2.1-5.4,1.9c-1.9-0.2-3.6-1.3-4.2-3.3
					c-0.1-0.5-0.6-0.7-1.1-0.6c-0.5,0.1-0.7,0.6-0.6,1.1c0.9,2.7,3.2,4.2,5.7,4.5C-248.7-192.1-246-192.9-244.3-194.9z
					 M-258.4-215.1c0.2-2.3,0.3-5.9,0.7-9.2c0.2-1.6,0.5-3.1,0.8-4.3c0.3-0.9,0.6-1.5,0.9-1.7l0.2-0.2h0.1c0.3,0.1,0.7,0.3,1.4,0.9
					c0.8,0.6,1.8,1.5,2.7,2.4c1.6,1.6,3.1,3.3,3.6,3.8l0.1,0.2c0.2,0.3,0.6,0.5,1,0.4c7.1-2.2,16-3.3,21.9-1c0.5,0.2,1-0.1,1.1-0.6
					c0.5-1.7,1-4,1.9-5.9c0.9-2,1.8-2.9,2.8-2.8c0.2,0,0.7,0.3,1.5,1.4c0.7,1,1.5,2.3,2.2,3.9c1.4,3.2,2.7,7.2,3.1,10.4
					c0.1,0.5,0.5,0.8,1,0.8c0.5-0.1,0.8-0.5,0.7-1c-0.4-3.4-1.7-7.6-3.2-10.9c-1.2-2.7-3.2-6.2-5.2-6.3c-2.3-0.1-3.7,1.9-4.5,3.9
					c-0.7,1.5-1.2,3.3-1.6,4.8l-0.1,0.5l-0.4-0.1c-5.5-1.6-12.8-1-19,0.6l-2.2,0.6l-0.1-0.1c-0.7-0.8-2-2.3-3.4-3.7
					c-1-0.9-2-1.9-2.9-2.6c-0.8-0.6-1.8-1.3-2.7-1.3c-0.2,0-0.4,0-0.6,0.1c-1.9,0.9-2.6,4.6-3,7.5c-0.4,3.3-0.5,7.1-0.7,9.3
					c0,0.5,0.3,0.9,0.8,0.9C-258.8-214.3-258.4-214.6-258.4-215.1z"/>
			</g>
		</g>
	</g>
</g>
</svg>
