<?xml version="1.0" encoding="utf-8"?>
<!-- Generator: Adobe Illustrator 19.1.0, SVG Export Plug-In . SVG Version: 6.00 Build 0)  -->
<svg version="1.1" id="Layer_1" xmlns="http://www.w3.org/2000/svg" xmlns:xlink="http://www.w3.org/1999/xlink" x="0px" y="0px"
	 viewBox="-384 186 190 190" style="enable-background:new -384 186 190 190;" xml:space="preserve">
<style type="text/css">
	.st0{fill:#BD19E6;}
</style>
<g>
	<g transform="scale(1 -1)">
		<g transform="translate(0 -75)">
			<g>
				<path marker-start="none" marker-end="none" class="st0" d="M-271.6-275.5c3.8,7.8,15.5,13.3,26.9,17.2l3.7,1.2l-3.1,0.2
					c-3.7,0.3-7.5,0.8-9.8,1.5l-0.8,0.3c0-0.1,0-0.1-0.1-0.2c-0.2-0.4-0.5-0.6-0.9-0.6l-0.5-0.5c-5.2-3.5-15.5-2.6-18.3,2.5
					l-0.3,0.9l-1.4-0.7c-1.4-0.6-3-1.1-4.2-1.3c-6.1-0.9-13.7,0.9-13.2,7.3c0.2,2,1.7,4.5,3,6.1l0.9,1.1l0.8,2.8
					c3.1,14.1-1.5,40-4.7,47.7c-0.1-0.4-2.1,1-1.8,2.2c-3.5,1.4-14.2,7.1-17.7,19.8c-0.1-0.1-0.2-0.1-0.4-0.2
					c-2.1-0.6-5.4-1.9-7.5-2.9c-0.6-0.3-1.2,0-1.5,0.5c-0.3,0.6,0,1.2,0.5,1.5c2.2,1,5.5,2.3,7.8,3c0.2,0.1,0.4,0.1,0.5,0
					c-0.1,0.7-0.2,1.4-0.3,2c-1.1,0.1-2.3,0-3.6-0.1c-1.5-0.1-2.9-0.3-4.3-0.4c-0.6,0-1.2,0.4-1.2,1c-0.1,0.6,0.4,1.2,1,1.2
					c1.3,0.1,2.8,0.3,4.3,0.4c1.2,0.1,2.4,0.2,3.6,0.1c-0.1,1.8-0.1,3.7,0.1,5.6c0.7,7.4,3.7,14.8,9.3,23.5
					c2.1,3.4,11.7,20.4,17.8,21c5.6,0.5,4.4-6.7,5.1-11.7l0.3-1.5l0.7-0.2c4.3-1.1,17.7-4.3,20.5-4.8h0.1l1.3,1.1
					c4.4,3.6,11.5,9.2,14.7,8c5.2-1.9,1.7-13.5,0.4-24c-1.1-8.8-1.7-11.2,1.1-16.5c1-1.9,3-5.3,6.3-7c12.7-6.6,21-10.8,28.7-19.5
					c6.5-7.4,12.1-15.7,13.4-26.9c1-8.7-0.2-15.8-2.2-21.7l-2.1-5.3l0.4-4c-0.5-10-10.5-17.3-20.5-19.7c-10.8-2.6-37.8-4.8-38.9-15
					c-0.3-3.1,5.7-4,9.3-9.3c1.9-2.8,0.9-6.5-1.4-8.6c-1.8-1.6-3-1.5-4.1-1.7C-266.4-301.6-277.4-287.2-271.6-275.5z M-254.3-297.7
					c1.3,0.2,1.8,0,2.9,1.1c1.7,1.5,2.1,3.9,1,5.6c-2.8,4.1-10.1,5.9-9.6,10.8c1.3,12.1,27.1,13.6,40.6,16.9
					c11.1,2.7,20.8,11.2,18.4,21.5c-0.1,0.2,0,0.5,0.1,0.7c3.1,6.7,5.6,15,4.2,26.1c-1.3,10.6-6.5,18.4-12.9,25.7
					c-7.4,8.4-15.3,12.4-28,19c-4,2.1-6.3,6.1-7.3,8c-3.2,6-2.5,9.2-1.4,17.9c0.8,5.9,4.2,20.4,1.1,21.5c-1.9,0.7-8.6-4.5-14.2-9
					c-0.2-0.2-0.5-0.3-0.8-0.3h-0.1h-0.1c-1.5,0.2-21.4,4.8-22.8,5.3h-0.1h-0.1c-0.3,0.1-0.5,0.4-0.6,0.7
					c-1.8,5.7,0.2,12.5-3.1,12.2c-4.2-0.4-12.5-14.3-16.1-19.9c-5.4-8.6-8.3-15.6-8.9-22.5c-1.9-19.5,12.8-27.6,16.9-29.3
					c0.5,1.9,1,4,1.4,6c0.5,2.3,1,4.6,1.3,6.5c0.3,2,0.3,3.3,0.2,3.8l0,0c-1-0.3-2-0.3-2.9-0.1c-2.3,0.4-4.2,2.2-4.1,5
					c0,0.6,0.5,1.1,1.2,1.1c0.6,0,1.1-0.5,1.1-1.2c0-1.5,0.9-2.5,2.3-2.7c1.4-0.3,3.3,0.3,4.8,2.1c0.7,0.9,2.1,0.3,2-0.8
					c-0.1-1.3,0.3-2,0.8-2.4c0.6-0.4,1.5-0.6,2.5-0.5s1.9,0.6,2.6,1.1c0.6,0.5,0.8,1.1,0.6,1.8c-0.2,0.6,0.2,1.2,0.8,1.4
					c0.6,0.2,1.2-0.2,1.4-0.8c0.4-1.6-0.2-3.1-1.2-4.1c-1-0.9-2.4-1.5-3.8-1.7s-2.9,0-4.1,0.9c-0.6,0.5-1.1,1.1-1.4,1.8l-0.1,0.2
					l-0.2-0.2l0,0c0.1-0.1,0.1-0.2,0.2-0.3c0.6-2.1-0.5-7.6-1.4-11.5c-0.5-2.4-1.1-4.7-1.6-6.7c4.2-5.8,10.5-40,5.2-54.7
					c-0.1-0.2-0.1-0.3-0.3-0.4c-1.2-1.2-3.3-4.2-3.5-6c-0.3-3.5,4.1-5.7,10.6-4.8c1.9,0.3,4.1,1.2,5.1,1.9c-0.5,3.1,0.3,5.1,1.3,6.9
					c0.5,0.9,1,1.7,1.5,2.5c0.4,0.8,0.7,1.7,0.8,2.8c0.1,1.6-0.2,4.4-0.7,7.3c-0.3,1.4-0.6,2.8-0.9,4s-0.7,2.2-1,2.8
					s-0.1,1.2,0.5,1.5c0.5,0.3,1.2,0.1,1.5-0.5c0.9-1.6,1.6-4.6,2.1-7.5s0.9-6,0.7-7.9c-0.1-1.4-0.5-2.6-1-3.6s-1.1-1.8-1.5-2.7
					c-0.5-0.8-0.8-1.6-1-2.5c-0.1-0.7-0.2-1.4-0.1-2.3c0.3-0.2,0.5-0.5,0.5-0.9c-0.1-5.2,12.2-7.3,16.4-2.8c0.7,1.6,1.1,3.2,1.1,4.8
					c0,1.7-0.3,3.5-0.9,5.3c-0.2,0.6,0.1,1.2,0.7,1.4s1.2-0.1,1.4-0.7c0.7-2,1-4,1-6.1c0-1.3-0.2-2.6-0.6-4c3-1.3,13.7-2,18.4-2
					c-0.4,2.4,0.2,4.4,1.3,6c0.7,1,1.5,1.8,2.4,2.5l1.2,0.9l-0.3,0.3c-0.6,0.6-1.1,1.2-1.5,1.9c-0.9,1.4-1.4,3.4-0.3,5.2
					c0.3,0.5,1,0.7,1.6,0.4c0.5-0.3,0.7-1,0.4-1.6c-0.5-0.8-0.4-1.8,0.3-2.8c0.6-1.1,1.7-2,2.5-2.5c0.7-0.4,0.7-1.5,0-1.9
					c-1.6-1-3.3-2.1-4.3-3.6c-0.7-1.1-1.2-2.3-1-3.9l0.1-0.8l1.3,0.2c11,1.9,17.9,5.5,21.4,11.8c0.3,0.6,1,0.7,1.5,0.4
					s0.7-1,0.4-1.5c-4.3-7.7-12.8-11.5-25.3-13.3c-0.1,0-0.2,0-0.3,0c-13.9-3.8-31-9.9-35.4-19C-274.5-286.5-265-299.2-254.3-297.7z
					 M-258.5-182.8c-0.3,0.3-0.8,0.7-1.4,1.3c-0.7,0.5-1.5,1.1-2.3,1.6c-1.7,1.1-3.5,2.2-4.4,2.7c-0.6,0.3-0.8,1-0.5,1.5
					s1,0.8,1.5,0.5c1-0.6,2.9-1.6,4.6-2.8c1.6-1.1,3.4-2.4,4.3-3.3c0.4-0.5,0.4-1.2-0.1-1.6C-257.3-183.3-258-183.2-258.5-182.8z
					 M-264.4-173.7c-0.6,0.2-1,0.8-0.8,1.4c0.2,0.6,0.8,1,1.4,0.8c3.9-1,6.9-2.5,10.3-3.9c0.6-0.2,0.9-0.9,0.6-1.5
					c-0.2-0.6-0.9-0.9-1.5-0.6C-257.8-176.1-260.6-174.7-264.4-173.7z M-273.2-158.8c0,2.1,1.6,3.8,3.5,3.8s3.5-1.7,3.5-3.8
					s-1.6-3.8-3.5-3.8C-271.6-162.6-273.2-160.9-273.2-158.8z M-305.3-154.3c0,2.1,1.6,3.8,3.5,3.8s3.5-1.7,3.5-3.8
					s-1.6-3.8-3.5-3.8C-303.8-158.1-305.3-156.4-305.3-154.3z"/>
			</g>
		</g>
	</g>
	<g>
		<g>
			<path class="st0" d="M-295.4,263c-0.9,11.8-7.5,23.1-13.6,33c-7.7,12.4-18.9,18.9-30.4,27.3c-1.3,0.9,0,3,1.2,2.1
				c11.3-8.2,22.2-14.6,30.1-26.4c7-10.3,14.1-23.3,15.1-35.9C-292.9,261.4-295.3,261.4-295.4,263L-295.4,263z"/>
		</g>
	</g>
	<g transform="translate(0,-952.36218)">
		<path class="st0" d="M-340.2,1276.1c-4.2-7.6-13.8-10.4-21.4-6.2l-14.3,7.9c-7.6,4.2-10.4,13.8-6.2,21.4
			c4.2,7.6,13.8,10.4,21.4,6.2l14.3-7.9C-338.7,1293.3-335.9,1283.7-340.2,1276.1z M-342.6,1276.2l-2.9,1.6
			c-1.3-1.4-3.5-1.8-5.2-0.8l-5.7,3.1c-2.1,1.2-2.9,3.8-1.7,5.9c1.2,2.1,3.8,2.9,5.9,1.7l5.7-3.1c1.8-1,2.6-3,2.1-4.9l2.9-1.6
			c2.9,6.4,0.5,14-5.8,17.5l-14.3,7.9c-6.6,3.6-14.8,1.3-18.5-5.3c-3.6-6.6-1.3-14.8,5.3-18.5l14.3-7.9
			C-354.2,1268.3-346.5,1270.3-342.6,1276.2z M-346.8,1279.8c0.6,1.1,0.2,2.4-0.9,3l-5.7,3.1c-1.1,0.6-2.4,0.2-2.9-0.9
			c-0.6-1.1-0.2-2.4,0.9-3l5.7-3.1C-348.7,1278.3-347.4,1278.7-346.8,1279.8z"/>
	</g>
</g>
</svg>
