<?xml version="1.0" encoding="utf-8"?>
<!-- Generator: Adobe Illustrator 19.1.0, SVG Export Plug-In . SVG Version: 6.00 Build 0)  -->
<svg version="1.1" id="Layer_1" xmlns="http://www.w3.org/2000/svg" xmlns:xlink="http://www.w3.org/1999/xlink" x="0px" y="0px"
	 viewBox="-384 186 190 190" style="enable-background:new -384 186 190 190;" xml:space="preserve">
<style type="text/css">
	.st0{fill:#BD19E6;}
</style>
<g transform="scale(1 -1)">
	<g transform="translate(0 -75)">
		<g>
			<path marker-end="none" marker-start="none" class="st0" d="M-262.4-276.5L-262.4-276.5l-0.2,0c-0.1,0-0.1,0-0.2,0.1
				c-6.5,2.3-63.3,31.1-75.7,37.6l-1.3,0.7l-2.7-1c-7.7-2.5-15.2-1.4-21.8,1.3c-7.3,3-12.7,9.5-15.6,16c-4.3,9.6-5.5,21.4-1.7,31.3
				c3,7.9,7,13.9,16.4,19.3l3.9,2.1l0.4,1c1.8,4.1,6.7,15.2,18.6,22.7c11.9,7.5,24,10.4,36.8,10.2c10.9-0.2,21.4-3.1,31-9.7
				c7.2-5,12-8.8,18.6-18c1.5-2,5.7-7.3,7.5-8.9c0.5-0.4,1.4-1,2.4-1.7l1.4-1.2l0.9,1.4c3.1,4.7,9.9,13.4,13.9,7.8
				c3.3-4.5,7.2-14.6,9.4-20.8l0.5-1.4l-0.1,0.2c0.1-0.1,0.1-0.2,0.2-0.3c0-0.1,0.1-0.2,0.1-0.3l0.8-0.3c5.4-1.9,21.6-8.5,23.1-9.5
				l0.1-0.1l0.1-0.1c0.1-0.1,0.2-0.2,0.3-0.4c1.5-3.2,1.1-13,0.7-21.9c-0.5-10.4-0.8-17.7,0.2-19.1c0.2-0.4,0.2-0.8,0-1.2
				c-1.6-2.3-10.5-8.5-14.1-10.5C-213.9-254.6-256.8-277.2-262.4-276.5z M-209.7-249.6c3.2,1.8,10,6.6,12.5,9l0.4,0.5l-0.1,0.4
				c-0.9,3.4-0.4,11.6,0,19.2c0.4,7.9,0.7,15.5,0,19.3c-0.4-0.1-1.2-0.5-2.3-1c-1.2-0.5-2.6-1.2-4.1-1.9c-1.4-0.7-2.9-1.5-4.1-2.1
				c-0.5-0.3-1-0.6-1.4-0.8c3-3,4.2-6.9,3.7-10.3c-0.6-4-3.7-7.4-9.1-7c-4.9,0.4-9.1,5.4-10,8.4l0,0.2l-1.2-0.7
				c-2.3-1.2-5-2.6-6.5-3.7c0.1-0.2,0.3-0.4,0.4-0.5c5.1-7,2.7-14.8-3.3-16.6c-5.6-1.6-9.4,0.1-12.1,4.9c-0.5,0.9-1.1,1.7-1.8,2.3
				c-0.2-0.1-0.4-0.2-0.7-0.2c-0.5,0-1.3-0.3-2.5-0.8c-1.1-0.5-2.3-1.2-3.6-1.9c-1.2-0.7-2.5-1.4-3.6-1.9c-0.7-0.3-1.5-0.6-2.2-0.8
				c-0.1-0.7-0.2-1.5-0.3-2.5c-0.1-1.4-0.2-3-0.2-4.8c-0.1-3.6-0.1-7.8,0-12c0.1-4.2,0.3-8.4,0.6-11.9c0.1-1.8,0.3-3.4,0.4-4.7
				c0.1-1,0.2-1.8,0.4-2.5C-251.4-271.5-216.4-253.4-209.7-249.6z M-262.9-274L-262.9-274c-0.2,0.7-0.3,1.4-0.3,2.2
				c-0.2,1.4-0.3,3-0.4,4.8c-0.3,3.6-0.4,7.8-0.6,12c-0.1,4.2-0.1,8.5,0,12.1c0,1.8,0.1,3.5,0.2,4.9c0.1,1,0.2,1.8,0.3,2.6
				c-0.5,0.1-1,0.3-1.6,0.5c-1.3,0.5-3,1.1-4.8,1.9c-3.8,1.5-8.5,3.6-13.2,5.7c-4.7,2.1-9.3,4.3-13,6.1c-1.8,0.9-3.4,1.7-4.6,2.3
				c-0.7,0.4-1.4,0.8-1.9,1.1c-1.3-1-2.5-1.5-3.7-1.5c-1.7,0-3,0.9-3.9,1.7c-2.1,1.8-3.4,3.3-6.2,2.4c-7-2.2-8.9-6.4-10.8-10.9
				c-1.8-4.1-3.6-8.5-9.5-11.2c12.4-6.4,61.5-31.3,73.1-36.5L-262.9-274z M-340.4-235.9c0.2,0.1,0.3,0.1,0.5,0.1
				c6.5,2.1,8.2,6.1,10.2,10.7c2,4.6,4.2,9.6,12.3,12.2c4.6,1.4,7.1-1.5,8.7-2.9c0.9-0.8,1.5-1.1,2.2-1.1c0.6,0,1.7,0.4,3.5,2.2
				c5,5.1-4.9,13.6-13.5,13.7c-8.5,0.1-12.3-4.3-15.5-9.8c-3.1-5.3-5.7-12.1-12.1-15c-8.9-3.9-15.6-0.9-19.8,4.7
				c-4.1,5.4-5.9,13.2-5.4,19.3c0.4,5,2.4,11.3,6.2,14.2c0.1,0.1,0.2,0.1,0.3,0.2c0.1,0.1,0.2,0.1,0.5,0.1c0,0,0.3,0,0.5-0.1
				c0.1,0,0.2-0.1,0.2-0.1c8.9-5.2,24-10.2,32.1-15.6c0.1-0.1,0.1-0.1,0.2-0.2c3,2.7,6.9,4.6,12.8,4.5c5.1-0.1,10.5-2.6,13.9-5.9
				c3.3-3.2,5-7.7,1.6-11.4c0.3-0.2,0.8-0.5,1.4-0.8c1.1-0.6,2.7-1.4,4.5-2.3c3.6-1.8,8.2-3.9,12.9-6c4.7-2.1,9.4-4.1,13.1-5.7
				c1.9-0.8,3.5-1.4,4.7-1.8c1.3-0.5,2.1-0.7,2.3-0.7l0.1,0c0.2,0,0.7,0.1,1.9,0.6c1,0.5,2.2,1.1,3.4,1.8c1.7,0.9,3.8,2.2,5.7,2.7
				c-0.3,0.2-0.7,0.4-1,0.5c-0.6,0.2-0.9,0.9-0.7,1.5c0.3,0.6,1,0.8,1.6,0.6c0.6-0.2,1.2-0.5,1.6-0.8c1.2-0.7,3.5-2.5,4.8-4.9
				c2.2-3.9,4.8-5,9.1-3.8c3.9,1.1,6.6,6.9,2,13.3c-2.9,4-8.1,4.4-13.5,3c-5.5-1.4-10.6-4.5-12.5-6.8c-1.2-1.5-1.5-1.9-2.8-3.2
				c-0.4-0.5-1.2-0.5-1.7-0.1c-0.5,0.4-0.6,1.1-0.2,1.6c1.2,1.3,1.4,1.6,2.7,3.1c2.3,2.8,7.9,6.1,13.8,7.6
				c4.9,1.2,10.3,1.3,14.2-1.7c0,0,0,0,0.1,0c2.7,1.8,8.2,4.4,10,5.7c0.8,0.6,2.1,0,2-0.9l-0.1-1.9l0.1-0.3c1-2.5,4.4-6,7.6-6.3
				c3.9-0.3,6,1.9,6.5,5c0.4,3.2-1,7.2-4.7,9.9c-5.8,4.2-18.3,0.6-19.4-5.8c-0.1-0.6-0.7-1-1.4-0.9c-0.7,0.1-1.1,0.7-1,1.3
				c1.1,6.5,10.6,10.4,18,9.3c0,2-1,4.5-2.3,7.1c-1.1,2.2-2.3,4.4-3.2,6.3c-0.1,0.1-0.2,0.3-0.2,0.4c-1.9,5.6-6.5,17.8-10,22.6
				c-2.4,3.3-8.7-6-11.3-10.3c-0.1-0.2-0.2-0.3-0.3-0.3c-0.1-0.1-0.2-0.2-0.4-0.3c-0.1,0-0.3-0.1-0.5,0c0,0,0,0-0.1,0
				c-4.8,0.5-9.4-0.1-14-1.1c-4.3-0.9-10.5-3.8-12.4-4.3c-0.6-0.2-1.2,0.1-1.5,0.6c-2.1,4.1-9,11.5-12.2,9.9
				c-0.7-0.4-1.7-1.9-2.6-4.9c-0.8-2.8-1.5-6.4-2-10.2c-1-7.6-1.5-16.1-1.5-20.5c0-0.6-0.6-1.1-1.2-1.1c-0.7,0-1.2,0.5-1.2,1.1
				c0,4.5,0.4,13,1.5,20.8c0.9,6.8,2.5,15,5.9,16.7c5.2,2.7,12.1-5.2,14.8-9.4l0.4-0.6l1,0.4c2.7,1.1,7.3,2.9,10.6,3.6
				c3.7,0.7,7.4,1.3,11.3,1.3c-0.7,0.4-1.5,0.9-2.5,1.8c-2,1.8-6.4,7.2-7.9,9.3c-6.4,8.9-11,12.6-18,17.5
				c-9.2,6.3-19.1,9.1-29.6,9.3c-12.3,0.2-23.9-2.5-35.3-9.7c-11.2-7.1-15.9-17.4-17.7-21.6c0.2-0.3,0.2-0.6,0.1-0.9
				c-0.5-1.3-0.8-2.7-1.1-4.2c-0.2-1.4-0.4-2.9-0.5-4.4c-0.1-0.6-0.7-1.1-1.3-1c-0.7,0.1-1.2,0.6-1.1,1.2c0.2,2.1,0.4,4.3,0.9,6.4
				c-10.6-5.4-14.7-11.4-17.8-19.4c-3.6-9.3-2.5-20.5,1.7-29.7c2.8-6.1,7.8-12.1,14.3-14.8C-356.4-238.8-348.4-239.6-340.4-235.9z
				 M-280.9-224.9c-0.4,0.5-0.3,1.2,0.3,1.6c1.5,1,3.6,2.2,5.8,3.1c2.1,0.9,4.5,1.7,6.5,1.7c0.7,0,1.2-0.5,1.2-1.1
				c0-0.6-0.5-1.1-1.2-1.1c-1.4,0-3.4-0.6-5.4-1.5c-2-0.9-4-2-5.4-2.9C-279.7-225.5-280.5-225.4-280.9-224.9z M-345.2-223.8
				c7,3.1,8.9,12.5,14.3,18.8c0,0-0.1,0-0.1,0.1c-7.6,5.1-21.8,9.8-31.1,15c-2.6-2.5-4.3-7.6-4.7-12.1c-0.5-5.7,1.2-13,4.9-17.9
				C-358.2-224.7-352.8-227.1-345.2-223.8z M-285.4-219.7c-0.4,0.5-0.2,1.2,0.4,1.5c1.8,1,4.3,1.9,6.7,2.5c2.5,0.6,5.1,1,7.1,1.1
				c0.7,0,1.3-0.4,1.3-1s-0.5-1.1-1.2-1.2c-1.8-0.1-4.2-0.5-6.6-1.1c-2.4-0.6-4.6-1.4-6.1-2.2C-284.2-220.4-285-220.2-285.4-219.7z
				 M-267.8-207.2c0,2.1,1.6,3.8,3.6,3.8c2,0,3.6-1.7,3.6-3.8c0-2.1-1.6-3.8-3.6-3.8C-266.2-211-267.8-209.3-267.8-207.2z
				 M-204.5-202.3c1.5,0.7,2.9,1.4,4.2,2c0.8,0.4,1.5,0.7,2,0.9l0,0l-0.1,0.1c-3.9,1.8-14.7,6.2-19.8,8.1c0.7-1.3,1.4-2.7,2.1-4.1
				c0.2-0.5,0.5-1,0.7-1.5c0.1,0,0.3,0.1,0.5,0.2c0.2,0.1,0.4,0.2,0.6,0.2c0.2,0.1,0.4,0.2,0.7,0.3c0.4,0.2,0.9,0.4,1.4,0.6
				c0.4,0.2,0.9,0.3,1.4,0.4c0.7,0.1,1.3-0.4,1.4-1c0.1-0.6-0.4-1.2-1.1-1.2c0,0-0.1,0-0.2-0.1c-0.1,0-0.3-0.1-0.5-0.2
				c-0.4-0.1-0.8-0.3-1.2-0.5c-0.2-0.1-0.4-0.2-0.7-0.3c-0.2-0.1-0.4-0.2-0.7-0.3c-0.2-0.1-0.4-0.2-0.6-0.2c0.2-0.6,0.4-1.2,0.6-1.7
				c0,0,0.1,0,0.1,0c0.2,0,0.4,0.1,0.6,0.2c0.5,0.2,1,0.4,1.6,0.6c0.6,0.2,1.2,0.5,1.7,0.7c0.3,0.1,0.6,0.2,0.9,0.2
				c0.3,0.1,0.6,0.1,0.9,0.1c0.7,0,1.2-0.5,1.2-1.1c0-0.6-0.6-1.1-1.3-1.1c0,0-0.1,0-0.3,0c-0.2,0-0.4-0.1-0.6-0.2
				c-0.5-0.2-1-0.4-1.6-0.6c-0.6-0.2-1.2-0.5-1.8-0.7c-0.3-0.1-0.6-0.2-0.9-0.2c-0.1,0-0.2,0-0.3-0.1c0-0.3,0-0.6,0-1
				c0-0.1,0-0.1,0-0.2c1.1-0.4,2.1-0.9,2.9-1.5c0,0,0,0,0,0C-209.1-204.6-206.5-203.3-204.5-202.3z M-236.6-200
				c0,2.1,1.6,3.8,3.6,3.8c2,0,3.6-1.7,3.6-3.8c0-2.1-1.6-3.8-3.6-3.8C-235-203.8-236.6-202.1-236.6-200z"/>
		</g>
	</g>
</g>
</svg>
