<?xml version="1.0" encoding="utf-8"?>
<!-- Generator: Adobe Illustrator 19.1.0, SVG Export Plug-In . SVG Version: 6.00 Build 0)  -->
<svg version="1.1" id="Layer_1" xmlns="http://www.w3.org/2000/svg" xmlns:xlink="http://www.w3.org/1999/xlink" x="0px" y="0px"
	 viewBox="-384 186 190 190" style="enable-background:new -384 186 190 190;" xml:space="preserve">
<style type="text/css">
	.st0{fill:#BD19E6;}
</style>
<g transform="scale(1 -1)">
	<g transform="translate(0 -75)">
		<g>
			<path marker-start="none" marker-end="none" class="st0" d="M-280.4-268.6c-0.6,2.3-0.7,5-0.6,7.7l0.6,6.4l-7.3-1.2
				c-4-0.5-8.3-0.8-12.9-0.8l-3.3,0.1l-0.1-0.5c-0.9-1.3-0.9-2.6-0.4-4.1s1.6-3.1,2.7-4.6c1-1.5,2.3-3,2.8-4.4
				c0.7-1.6,0.5-3.3-1.5-4.3c-5.6-2.6-9.1-0.3-13,2.4c-0.4,0.4-2.3,2.2-2.6,2.6c-3.6,4.3-5.4,9.3-9.6,13.8l-1.8,1.7l-1.9,0.3
				c-6.1,0.7-14.8,0.3-19.8-1c-3.6-1-10.4-1.4-14.3-4.1c-1.8-1.2-3.3-2.8-3.8-3.9v-0.4c2.5-1.3,3-5.4,1.4-7.3
				c-4.9-5.6-16.4-0.8-18.1,6.6c-2.4,10.3,17.9,25.4,22.6,29.2c2.4,2,6.7,4.2,10.1,6.1l1.1,0.6l-1.4,0.8c-3.8,2-8.6,4.6-11,7.8
				c-6.1,8-6.2,22.5,2.9,30.4c5.7,4.9,10.1,8.1,16.2,10.4c6.5,2.4,12.3,4.9,13.1,7.4c0.1,0.4,1,6.6,4.1,7.8c2.8,1,7.1-0.6,8.1-3.4
				c4.6-12.5-9.4-19.6-17.5-22.4c-12.5-4.2-17.5-10-17.9-16.1c-0.6-7.7,10.8-11.6,17.3-11.6c9.3,0,20.4,2.6,29.6,6.9
				c7,3.3,13.1,9.3,18.7,14.1c4.6,3.9,10.2,13.2,13,18.8c4.1,8.3,0.8,17.8-2.3,24.7c-1.2,2.8-0.5,4.9,2.1,5.4
				c1.9,0.4,4.8-0.1,7.6-0.9c5-1.4,10.7-3.9,13.2-5l0.7-0.3l0.9,0.1c2.7,0.6,8.9,3.3,12.7,4.5l0.8,0.2l0.1,0.8
				c0.1,3.6-1.9,9.5,2.8,11.2c5.2,1.8,19.2-12.8,21.3-15.8c3.5-4.9,6.4-10.4,8.3-16.9l0.7-2.8l1.5,0.6c2.2,0.8,4.8,1.4,7.2,1
				c0.7-0.1,1.1-0.7,1-1.4s-0.7-1.1-1.4-1c-1.3,0.2-2.7,0-4-0.3l-3.8-1.4l0.3-2l0.8,0.1c0.4,0,0.8,0.1,1.3,0.1c0.9,0.1,2,0.1,3,0.1
				s2.1,0,3-0.1c0.4,0,0.9-0.1,1.3-0.2c0.4-0.1,0.7-0.2,1.1-0.3c0.6-0.3,0.9-1,0.7-1.6c-0.3-0.6-1-0.9-1.6-0.7
				c-0.1,0-0.3,0.1-0.6,0.2c-0.3,0.1-0.6,0.1-1.1,0.1c-0.8,0.1-1.8,0.1-2.8,0.1s-2,0-2.9-0.1c-0.4,0-0.8-0.1-1.2-0.1l-0.7-0.1
				l0.1-0.9c0.4-3.8,0.4-7.8,0.1-12.3c-0.2-4.9-3.2-14.6-5.5-19.2c-1.8-4.1-7.4-11.1-10.9-14.2l0.8-0.6c2.4-1.6,5-3.7,6.5-6.4
				c2.1-3.6,3.1-8.6,2.8-12.7c-0.4-5.1-2.2-8.9-5.6-11c-2.9-1.8-9-3.9-12.1,1.6c-1.7,3,0,8.2-1,12.1c-1.3,4.9-9,7.4-15.8,3.5
				c-0.7-0.4-6.2-4.5-11.4-7.6l-1.7-1l-0.2-0.5c-1-0.9-2.9-4.2-4.6-7.7c-1.6-3.3-2.6-6.2-2.7-7.9v-0.4l0.1-0.1
				c0.2-0.3,0.6-0.9,1.1-1.6c0.6-1,1.3-2.2,1.7-3.5c0.4-1.3,0.4-2.9-0.5-4.2c-0.9-1.3-2.6-2.2-5.1-2.6
				C-276-276.8-279.2-273.4-280.4-268.6z M-269.8-273.3c2.2,0.4,3.1,1,3.5,1.6c0.4,0.5,0.4,1.3,0.2,2.2c-0.6,2-2.3,4.1-2.7,5
				c0,0.1-0.1,0.3-0.2,0.5c-0.2,2.2,1.4,6.3,3,9.7c0.8,1.8,1.8,3.6,2.7,5.1l-4.2-1.6c-1.9-0.7-3.9-1.3-6-2l-4.5-1.1l-0.6-7
				c-0.1-2.6,0.1-5,0.6-7.1C-277.1-271.8-274.9-274.1-269.8-273.3z M-301.5-272.1c0.4,0.2,0.5,0.4,0.5,0.4c0,0.1,0,0.3-0.2,0.8
				c-0.4,1-1.4,2.3-2.6,3.9c-1.1,1.5-2.4,3.4-3,5.3c-0.5,1.5-0.7,3.1-0.1,4.6l0.4,0.8l-4,0.2c-3.4,0.3-7,0.7-10.8,1.3l-2.2,0.4
				l1.2-1.3c3.3-4.1,5.1-8.4,8-11.9c0.2-0.3,1.6-1.6,2.2-2.2l0.1-0.1l1.3-0.9C-307.7-272.9-305.3-273.8-301.5-272.1z M-368-268.5
				c0.9,1.1,0.1,3.5-1.1,3.7c-0.5,0.1-0.9,0.4-1,0.9c-0.7,2.8,3.2,6.1,5,7.4c4.4,3.1,12.3,3.7,15.1,4.5c6.1,1.7,17,1.9,23.4,0.7
				c30.9-6,50.5-0.6,63.4,4.9c5.8,2.5,14.5,9.2,16,10.1c7.4,4.3,17.4,2.2,19.4-4.9c1.5-5.5-0.5-9.1,0.8-11.6
				c1.8-3.3,5.7-2.5,8.7-0.7c2.5,1.5,4.1,4.5,4.4,9.1c0.3,3.7-0.7,8.1-2.5,11.3c-1.3,2.2-3.5,4.1-5.7,5.5l-2,1.1h-0.2
				c-2,1.3-4,1.7-6.2,1.8c-2.3,0.1-4.7,0-7.1,0.5c-0.7,0.1-1.1,0.8-0.9,1.4c0.1,0.7,0.8,1.1,1.4,0.9c2.2-0.5,4.5-0.4,6.8-0.5
				c1.8-0.1,3.7-0.4,5.5-1.2l0.8-0.4l1,0.8c3.1,2.8,8.4,9.4,10.1,13.3c2.2,4.4,5.1,13.8,5.3,18.3c1.3,17.1-3.3,28.7-10,38.1
				c-2.8,3.9-15.5,16-18.5,14.9c-3.2-1.1-0.1-6.3-1.5-11c-0.1-0.4-0.5-0.8-0.9-0.8c-3.1-0.6-13.5-5.5-16.3-5l-0.3,0.1
				c-1.7,0.8-8.2,3.7-13.7,5.3c-2.8,0.8-5.1,1.1-6.4,0.9c-0.6-0.1-1.2-0.2-0.4-2.1c3-6.9,6.9-17.4,2.2-26.8
				c-2.8-5.7-8.6-15.4-13.6-19.6c-5.4-4.5-11.9-11-19.3-14.4c-9.5-4.4-20.9-7.1-30.6-7.1c-6.1,0-20.5,3.8-19.7,14.2
				c0.6,7.6,6.8,13.9,19.6,18.2c8.6,2.9,19.6,9.3,16,19.2c-0.5,1.4-3.3,2.6-5,2s-2.1-4.5-2.7-6.2c-1.2-3.9-8.8-6.8-14.5-8.9
				c-5.7-2.1-9.8-5.1-15.5-10c-8-6.9-8-19.9-2.5-27.1c2.9-3.7,9.5-6.6,13.7-9c0.8-0.4,0.8-1.6,0-2.1c-3.7-2.4-9.6-5-12.8-7.6
				c-6.4-5.2-23.7-18.5-21.7-26.8C-380.4-269.2-371.1-272-368-268.5z M-253.3-203.9c-0.4,0.5-0.4,1.3,0.1,1.7c1.1,1,1.9,2,2.8,3.2
				s2,2.4,3.6,3.7c0.5,0.4,1.3,0.3,1.7-0.2s0.3-1.3-0.2-1.7c-1.4-1-2.3-2.1-3.2-3.2c-0.9-1.1-1.8-2.3-3.1-3.5
				C-252.1-204.4-252.9-204.4-253.3-203.9z M-258.6-199.5c-0.5,0.4-0.6,1.2-0.2,1.7c0.9,1,2.6,2.6,4.3,3.9c1.5,1.1,3.6,2.5,4.9,2.9
				c0.7,0.2,1.3-0.2,1.5-0.9c0.2-0.6-0.2-1.3-0.9-1.5c-0.3-0.1-0.9-0.3-1.6-0.8c-0.7-0.4-1.6-1-2.4-1.7c-1.7-1.3-3.3-2.7-3.9-3.5
				C-257.3-199.8-258.1-199.9-258.6-199.5z M-234.2-184.8c-0.5,0.4-0.6,1.2-0.2,1.7c0.4,0.5,1.2,0.6,1.7,0.2c0.9-0.7,1.6-1,2.1-1
				c0.4,0,0.8,0.1,1.2,0.3c0.8,0.6,1.5,1.8,2.1,3.2c0.3,0.7,1.2,0.9,1.8,0.5c0.7-0.5,2-0.7,2.9-0.4c0.4,0.1,0.6,0.3,0.7,0.5
				c0.1,0.1,0.2,0.4,0,1.1c-0.2,0.6,0.2,1.3,0.8,1.5s1.3-0.2,1.5-0.8c0.3-1.1,0.3-2.1-0.2-3c-0.5-0.8-1.3-1.3-2.1-1.6
				c-1-0.3-2.1-0.3-3.2,0l-0.5,0.2l-0.2-0.5c-0.5-0.9-1.2-1.9-2.1-2.6c-0.8-0.6-1.7-0.9-2.8-0.8C-231.9-186.2-233-185.7-234.2-184.8
				z M-253.2-183.4c0.9,4,3,6.4,5.8,7.4c2.7,1,5.9,0.8,9,0c0.6-0.2,1-0.8,0.9-1.5c-0.2-0.7-0.8-1-1.5-0.9c-2.9,0.7-5.6,0.8-7.6,0.1
				c-1.9-0.7-3.5-2.4-4.3-5.7c-0.2-0.7-0.8-1.1-1.5-0.9C-252.9-184.7-253.3-184-253.2-183.4z M-224.9-172.5c-0.6,0.3-0.9,1-0.6,1.6
				c1.2,2.4,3.4,4.3,5.9,5c2.6,0.8,5.5,0.4,7.6-2c0.4-0.5,0.4-1.3-0.1-1.7s-1.3-0.4-1.7,0.1c-1.4,1.6-3.3,1.9-5.1,1.3
				c-1.9-0.6-3.6-2-4.5-3.7C-223.6-172.6-224.3-172.8-224.9-172.5z"/>
		</g>
	</g>
</g>
</svg>
