<?xml version="1.0" encoding="utf-8"?>
<!-- Generator: Adobe Illustrator 19.1.0, SVG Export Plug-In . SVG Version: 6.00 Build 0)  -->
<svg version="1.1" id="Layer_1" xmlns="http://www.w3.org/2000/svg" xmlns:xlink="http://www.w3.org/1999/xlink" x="0px" y="0px"
	 viewBox="-384 186 190 190" style="enable-background:new -384 186 190 190;" xml:space="preserve">
<style type="text/css">
	.st0{fill:#BD19E6;}
</style>
<g transform="scale(1 -1)">
	<g transform="translate(0 -75)">
		<g>
			<path marker-end="none" marker-start="none" class="st0" d="M-274.7-278.2l-0.6,0.6l-1.7-0.7c-11.9-3.5-20.1,20.3-25.6,28.2
				c-2.1,3-5.1,5.3-7.9,7.5c-15.6,11.6-22.8,22.7-24.4,35.4l-0.3,4.8l-0.3,0.3l0,0.1l-18.3,16.6c-6.1,5.7-12,11.7-17.4,17.8
				c-4.5,5.2-18.1,24.3-10.6,32.1c6.1,6.4,15.2,1.4,12-4.6c-0.6-1.2-1.5-3.7-1.4-4.7c0.9-5.1,7.9-12.8,13.4-18.9
				c4.2-4.7,10.4-9.9,14.5-12.5c3-2,5.4-3.6,7.7-5.1l6.1-4.1l0.1,0.1l0,0.1c0.1,0.2,0.2,0.4,0.4,0.5c0.8,0.5,1.2,1.3,1.5,2.2
				c2.4,6.7,11.9,18.9,27.3,23.2c14.2,4,28.4,1.1,36-4.7l1.7-1.6l0.4,0.7c2.5,4.7,5.1,13.5,8.3,16.4c4.8,4.2,10.6-6.8,13.1-10.4
				l0.7-0.9l0.9-0.1c3.2-0.2,11.9-0.3,15.8-0.4l1,0l0.7,0.9c2.4,3.5,6.5,11.6,11.3,10.1c0.1,0,0.3-0.1,0.4-0.2
				c4.9-4.1,6.6-15.1,7.9-19.9c0-0.1,0-0.2,0-0.2c0.1-2.2,3.9-8.3,4.7-12.2c2.2-11.3,1.9-18-4.3-26.6c1.1-0.4,2.3-1.1,3.3-1.7
				c1.3-0.7,2.6-1.5,3.5-1.9c0.6-0.2,0.8-0.9,0.6-1.4c-0.2-0.6-0.9-0.8-1.4-0.6c-0.6,0.2-1.2,0.6-1.8,0.9c-0.6,0.3-1.3,0.7-2,1.1
				c-1.3,0.7-2.6,1.4-3.6,1.7c-0.2-0.3-0.4-0.5-0.7-0.8c0.1,0,0.1-0.1,0.2-0.1c2.1-1.6,4.5-3.5,6.4-4.8c0.5-0.3,0.6-1,0.3-1.5
				c-0.3-0.5-1-0.6-1.5-0.3c-1.9,1.4-4.3,3.3-6.4,4.8c-0.1,0.1-0.2,0.2-0.2,0.2c-5.4-6.2-8.9-8.1-14.4-10.8
				c-2.3-1.1-5.2-1.7-7.5-2.1l-1.8-0.3l-8.1-6.7c-7.7-6.4-18.7-21.3-19-30c-0.1-3,3.4-9.3,2-12.3c-1.2-2.8-6.2-4.5-9.5-2.8l-0.4,0.3
				C-266.4-279.5-271.6-280.3-274.7-278.2z M-262.9-276.8l-0.8-0.5l0.1-0.1l0,0C-263.4-277.2-263.1-277-262.9-276.8z M-265.6-276.2
				c0,0.2,0.1,0.4,0.2,0.6c0.7,1.1,1,2,1,2.7c0,0.7-0.1,1.3-0.4,1.9c-0.6,1.3-1.7,2.8-1.4,4.8c0.7,4.6,0.9,8.6,2,12.9
				c1.2,4.3,3.3,8.8,7.8,14.4c0.4,0.5,1.1,0.5,1.5,0.2c0.5-0.4,0.5-1.1,0.2-1.5c-4.3-5.4-6.3-9.6-7.4-13.6c-1.1-4.1-1.3-8-2-12.6
				c-0.1-0.5,0-1,0.3-1.6c0.3-0.6,0.7-1.3,1-2c0.6-1.4,0.9-3-0.1-5.2c0,0,0,0,0,0c1.9-2,6.4-0.7,7.1,1.1c0.9,2.2-2.3,7.2-2.2,11.6
				c0.3,9.7,12,25.1,19.8,31.6l6.2,5.2c-1.8,0.1-3.5,0.3-5,0.5c-2.5,0.4-4.6,0.9-5.7,1.1c-0.6,0.2-0.9,0.8-0.8,1.3
				c0.2,0.6,0.8,0.9,1.3,0.8c1-0.3,3-0.7,5.4-1.1c2.4-0.4,5.3-0.6,8.1-0.4c0.1,0,0.3,0,0.4,0c2.5,0.4,5.6,0.9,8,2.1
				c5.5,2.6,8.7,4.4,14.1,10.7c8.6,10,9.2,16.2,6.8,28.6c-0.5,2.4-3.6,8.2-4.5,11.3l-0.2,0.9c-1.3,4.8-2.7,12.9-5.8,17.2l-1.2,1.4
				l-1.1-0.1c-3.1-1.1-6.5-8.6-8.8-10.7c-0.2-0.2-0.5-0.3-0.8-0.3c-2.4,0.1-17.2,0.2-18.9,0.6l-0.1,0l-0.1,0c-0.1,0-0.2,0.1-0.3,0.2
				l-0.1,0c-2.6,2-8.1,14.3-11.1,11.6c-3.2-2.8-4.9-11.4-8.4-16.8c0-0.2,0-0.5-0.2-0.7c-1.7-2.6-2.6-5.6-3.7-8.5
				c-0.2-0.6-0.9-0.8-1.4-0.6c-0.6,0.2-0.8,0.9-0.6,1.4c1,2.5,1.8,5.2,3.3,7.7c-5.9,6.3-20.8,10.5-36.2,6.2
				c-14.7-4.1-23.7-15.8-25.9-21.9c-0.2-0.5-0.5-1.1-0.8-1.7l-1.1-1.2l0-0.1c-0.2-0.5-0.7-1-1.2-1.4c-0.4-0.3-0.9-0.4-1.3-0.1
				c-4.9,3.1-8.7,5.9-14.6,9.7c-4.3,2.8-10.6,8.1-14.9,12.9c-5.2,5.8-12.9,14.1-13.9,20c-0.3,1.8,1,4.9,1.6,6.1
				c1.7,3.1-3.3,7.4-8.5,2c-5.8-6.1,5.4-23.2,10.7-29.2c10.7-12.2,23.4-23.5,35.6-34.4l0.2-0.2l0.4-0.2c0.2-0.2,0.3-0.4,0.3-0.7
				c0.1-14.2,6.4-26.2,23.8-39.2c2.8-2.1,6-4.6,8.3-7.9c5.3-7.5,13.6-31.3,24.1-27c-3.1,4.3-3.9,10.8-3.4,16.9
				c0,0.6,0.1,1.2,0.2,1.8c-4.3,3.4-6.3,10.4-7.3,14.5c-0.1,0.6,0.2,1.2,0.8,1.3c0.6,0.1,1.2-0.2,1.3-0.8c0.9-3.9,2.6-9.3,5.5-12.4
				c1,5.6,3,10.8,5.6,13.7c0.4,0.5,1.1,0.5,1.5,0.1c0.5-0.4,0.5-1.1,0.1-1.5c-2.8-3.1-5.1-9.9-5.6-16.8c-0.6-7,0.7-13.7,4.5-17.1
				c0,0,0.1-0.1,0.1-0.1C-271.5-277.7-267.9-277.5-265.6-276.2z M-262-217.9c-0.4,0.5-0.3,1.1,0.1,1.5c0.8,0.6,2.3,1.8,3.8,2.9
				c0.7,0.5,1.5,1.1,2.2,1.5c0.6,0.4,1.3,0.8,1.7,0.9c0.6,0.2,1.2-0.1,1.4-0.7c0.2-0.6-0.1-1.2-0.7-1.4c-0.1,0-0.2-0.1-0.5-0.2
				c-0.2-0.1-0.5-0.3-0.8-0.5c-0.6-0.4-1.3-0.9-2-1.4c-1.5-1-2.9-2.2-3.6-2.8C-260.9-218.4-261.6-218.3-262-217.9z M-264.8-212.2
				c-0.2,0.6,0.2,1.2,0.8,1.3c2.6,0.7,4.8,2,7.3,2.7c0.6,0.2,1.2-0.2,1.3-0.8c0.2-0.6-0.2-1.2-0.8-1.3c-2.4-0.7-4.6-2-7.3-2.7
				C-264-213.1-264.6-212.8-264.8-212.2z M-234.7-198.4c-0.3,0.5-0.2,1.2,0.3,1.5c1.6,1.1,2.2,3.3,3.8,4.4c0.3,0.2,0.7,0.3,1,0.1
				c0.6-0.2,1.1-0.7,1.4-1.1c0.3-0.4,0.7-0.9,1-1.3c0.6-0.9,1.2-1.6,1.9-1.8c0.6-0.2,0.8-0.9,0.6-1.4c-0.2-0.6-0.8-0.8-1.4-0.6
				c-1.4,0.6-2.3,1.8-2.9,2.6c-0.3,0.4-0.6,0.8-0.8,1.2l0,0.1l-0.2-0.2c-0.3-0.3-0.5-0.7-0.8-1.1c-0.6-0.8-1.3-1.8-2.3-2.6
				C-233.7-199-234.4-198.9-234.7-198.4z M-252.8-192.2c0,3,1.9,5.5,4.2,5.5s4.2-2.5,4.2-5.5c0-3-1.9-5.5-4.2-5.5
				C-250.9-197.7-252.8-195.3-252.8-192.2z M-217.7-192.2c0,3,1.9,5.5,4.1,5.5c2.3,0,4.2-2.5,4.2-5.5c0-3-1.9-5.5-4.2-5.5
				C-215.8-197.7-217.7-195.3-217.7-192.2z"/>
		</g>
	</g>
</g>
</svg>
