<?xml version="1.0" encoding="utf-8"?>
<!-- Generator: Adobe Illustrator 19.1.0, SVG Export Plug-In . SVG Version: 6.00 Build 0)  -->
<svg version="1.1" id="Layer_1" xmlns="http://www.w3.org/2000/svg" xmlns:xlink="http://www.w3.org/1999/xlink" x="0px" y="0px"
	 viewBox="-392.6 162.3 190 190" style="enable-background:new -392.6 162.3 190 190;" xml:space="preserve">
<style type="text/css">
	.st0{fill:#9A24F4;}
</style>
<g transform="scale(1 -1)">
	<g transform="translate(0 -75)">
		<g>
			<path marker-start="none" marker-end="none" class="st0" d="M-374.2-263.8c-15.1,14.2-18.7,31.1-18.2,50.3
				c0.2,8.4,3.2,21.1,7.1,29.2l1.7,3.1l0,0.1l2.7,4.5c7.7,10.7,23.2,21.5,43,24.4c14.6,2.1,16.6-0.5,25.5,4.8
				c6.4,3.8,7.6,13.4,13,24.1l2.6,4.5l2,4.2c5.6,10.8,16.1,26.2,20.9,27.2c8.9,1.8,10.8-17.3,14.5-20.9l0.1-0.1
				c0.4-0.4,1.9-1,4.1-1.6c2.8,3.9,13.4,16.6,20.7,14.6c0.4-0.1,0.7-0.3,0.9-0.5c1.2-1,1.6-3.1,1.8-4.8c0.3-2,0.4-4.5,0.5-7
				c0.1-2.5,0.2-5,0.3-7.2c0.2-2.2,0.4-3.8,0.8-4.6c0-0.1,0-0.1,0.1-0.2c2.3-1.4,4.3-2.9,5.9-4.7c6.3-6.9,11.5-17.5,11.7-27.6
				c0.1-2.7,0-5.1-0.3-7.5c3.1-0.7,6-1.8,9-2.6c0.7-0.2,1.1-0.9,0.9-1.7c-0.2-0.7-0.9-1.1-1.6-0.9c-3,0.9-5.9,1.9-8.8,2.6
				c-0.1-0.6-0.3-1.2-0.4-1.8c1.1-0.3,2.4-0.9,3.6-1.4c1.7-0.8,3.4-1.7,4.5-2.4c0.6-0.4,0.8-1.2,0.4-1.8c-0.4-0.6-1.2-0.8-1.8-0.4
				c-1,0.6-2.5,1.5-4.2,2.2c-1.2,0.6-2.4,1-3.3,1.3c-1.6-4.3-4.2-8.8-8.3-14.1c-2.8-3.6-14.7-15.6-18.5-18.8
				c-2.3-1.9-5.4-5.1-8.4-8.8c0-0.5-0.2-1-0.7-1.2c-0.9-0.5-2-2.8-2.7-6.9c-0.6-3.9-0.9-8.8-0.6-13.8c0.2-4.9,0.9-9.8,1.9-13.6
				c1-3.5,2.2-5.6,3.2-6.3l0.3-0.2l0.6,0c2.4-0.2,5.2-1.2,7.3-3c2.5-2.1,4.4-5.2,3.7-9.2c-0.8-5.1-5.7-7.9-12.5-7.8
				c-0.1,0-0.1,0-0.2,0c-3.5-3.6-10.1-4.6-14.8-4c-11.7,1.5-20.2,14.1-25.7,27l-1.1,2.8l-2-3.4c-1.2-1.8-2.3-3.5-2.9-4.8l-0.1-0.5
				l1.6-1c2.5-1.9,5.2-4.8,4.9-8.3c-0.5-8.5-15.7-8.8-23.2-8.1l-2.1,0.3l-0.8-0.5c-0.6-0.3-1.5-0.8-3.8-2
				C-337.6-282.1-360.7-276.5-374.2-263.8z M-320.4-270.3c4.5,2.3,3.8,2,4.9,2.7c0.1,0.1,0.2,0.1,0.3,0.1c0,0,0,0.1,0,0.1
				c11.2,9.6,14.3,23.3,10,34.4c-2.7,7-10.7,12.6-19.2,11.8c-5.2-0.5-8.1-2-9.4-3.8c-1-1.3-1.3-2.8-0.9-4.5l0.5-1.6l0.4-0.4
				c1.3-1.2,2.9-1.1,4.9-0.7c2.2,0.4,5.3,1.4,8.1,0.2c7.5-3.2,7-17.6,1.2-23.9c-7.1-7.7-16.3-9-25.2-7.8
				c-12.5,1.6-28.4,15.7-28.2,33.3c0,0.7,0.6,1.3,1.4,1.3c0.7,0,1.3-0.6,1.3-1.4c-0.2-16.1,14.5-29.2,25.8-30.6
				c8.4-1.1,16.6,0.2,22.9,7c5.2,5.6,4.7,17.5-0.3,19.7c-4,1.7-10.1-3.5-14.6,1.9c-0.1,0.1-0.1,0.2-0.2,0.3c-1.4,3.1-1.4,6.3,0.7,9
				c2,2.6,5.8,4.3,11.3,4.8c9.7,0.9,18.8-5.4,21.9-13.5c4.5-11.5,1.6-25.6-8.9-35.7c7.5-0.7,19.4,0.3,19.7,5.6c0.2,2.9-3,5.6-6,7.4
				c-0.4,0.3-0.7,0.7-0.7,1.2c0.2,3.6,3.6,6.9,5.4,10.2l0.9,3l-0.3,0.9c-1.7,5-3,9.7-3.7,13.5c-0.1,0.7,0.3,1.4,1,1.6
				c0.7,0.1,1.4-0.3,1.6-1c0.8-3.9,2.1-8.5,3.7-13.4l0.1-0.3c0.2-0.3,0.4-0.6,0.4-1l2.3-6.1c5.3-12.3,13.2-23.9,23.5-25.2
				c7.9-1,15.9,2.3,13.7,9.9c-0.9,2.9-4.4,6.5-7.8,5.8c-0.6-0.1-1.2,0.1-1.5,0.7c-6.6,12.5-6.2,26.3-2.7,33.6
				c3.5,7.4,13.6,19.6,19.2,24.2c3.7,3,15.5,14.9,18.1,18.4c8.3,10.7,10.1,17.4,9.9,26.9c0,1.1-0.1,2.3-0.3,3.4
				c-0.2,0.2-0.6,0.4-1,0.6c-0.5,0.2-1.2,0.3-1.9,0.2c-1.5-0.1-3-0.7-3.8-1.5c-0.1-0.1-0.3-0.2-0.4-0.3c-0.1-0.1-0.3-0.2-0.4-0.3
				c-0.4-0.6-1.2-0.8-1.8-0.4c-0.6,0.4-0.8,1.2-0.4,1.8c0.3,0.6,0.8,1,1.4,1.3l0.1,0.1c1.4,1.2,3.4,1.9,5.2,2.1
				c0.8,0.1,1.7,0,2.5-0.2c-1.7,7.2-5.6,14.2-10.1,19.2c-8.1,8.9-26.3,11.6-33,14.5l-2.1,1.3l-1.8,2.3c-3.8,6.5-5.1,18.9-10.4,17.8
				c-3.7-0.7-16.2-19-21.1-29.9c0-0.1-0.1-0.1-0.1-0.2c-6.6-10.6-8.7-25-16.5-29.7c-9.4-5.6-13.1-3.2-26.5-5.1
				c-21.9-3.2-38.1-16.3-43.8-27.5l-0.1-0.1c-4.4-7.1-8.2-21.8-8.5-31c-0.5-18.7,3.1-34.8,17.4-48.3
				C-359.6-273.9-337.7-279.1-320.4-270.3z M-239.2-261.8c0.5,2.8-0.8,5-2.8,6.7c-2,1.7-4.6,2.5-6.5,2.4c-0.2,0-0.4,0-0.5,0.1
				c-2.6,1-4.3,4.6-5.3,8.4c-1.1,4-1.8,9.1-2,14.2c-0.2,5,0,10.1,0.6,14.2c-1.7-2.4-3.1-4.7-4-6.6c-2.7-5.6-3.4-16.3,0.7-26.8
				l1.7-3.7l0.9,0.1c4.5-0.3,8.1-4.7,9-7.8c0.8-2.7,0.7-4.9,0-6.7C-242.7-267-239.7-265-239.2-261.8z M-269.6-172.6
				c-0.5,0.5-0.6,1.3-0.1,1.9c2.7,3,6.8,4.7,9.5,6.7c0.6,0.4,1.4,0.3,1.9-0.3c0.4-0.6,0.3-1.4-0.3-1.9c-2.9-2.2-6.7-3.7-9.1-6.4
				C-268.2-173.1-269-173.1-269.6-172.6z M-273.4-165.8c-0.4,0.6-0.3,1.4,0.3,1.9c1.4,1.1,3.6,2,5.8,2.8c2.2,0.8,4.4,1.4,5.9,1.7
				c0.7,0.1,1.4-0.3,1.6-1.1c0.1-0.7-0.3-1.4-1.1-1.6c-1.4-0.3-3.5-0.8-5.5-1.6c-2.1-0.7-4-1.6-5-2.4
				C-272.1-166.5-272.9-166.4-273.4-165.8z M-239.8-160.5c-1.3,0.2-2.6,0.7-3.6,1.6c-1,1-1.6,2.3-1.5,3.9c0,0.7,0.7,1.3,1.4,1.3
				c0.7,0,1.3-0.7,1.3-1.4c0-0.8,0.2-1.4,0.7-1.9c0.5-0.5,1.2-0.8,2-0.9c0.8-0.1,1.6,0.1,2.3,0.4c0.7,0.4,1.2,1,1.5,1.9
				c0.4,1.3,2.2,1.3,2.6,0c0.3-1,0.7-1.5,1.2-1.7c0.5-0.2,1.1-0.3,1.8-0.2c1.4,0.3,2.3,1.3,2.3,2c-0.1,0.7,0.5,1.4,1.2,1.4
				c0.7,0.1,1.4-0.5,1.4-1.2c0.1-1.3-0.5-2.4-1.3-3.2c-0.8-0.8-1.9-1.4-3-1.6c-1.1-0.3-2.4-0.2-3.6,0.4c-0.4,0.2-0.9,0.5-1.2,0.9
				l0,0.1l-0.1-0.1c-0.4-0.4-0.8-0.7-1.3-1C-237-160.5-238.5-160.7-239.8-160.5z M-250-150c-2.3,2.9-5.8,4.2-9.5,4.3
				c-3.7,0.1-7.6-1.1-10.5-3.1c-0.6-0.4-1.4-0.3-1.9,0.4c-0.4,0.6-0.3,1.4,0.4,1.9c3.4,2.3,7.8,3.6,12.1,3.5
				c4.3-0.1,8.6-1.7,11.5-5.3c0.5-0.6,0.4-1.4-0.2-1.9C-248.7-150.7-249.5-150.6-250-150z M-233.5-115c-0.2,2.2-0.2,4.8-0.3,7.3
				c-0.1,2.5-0.2,4.9-0.5,6.7c-0.3,2-0.6,2.8-0.8,3.1l-0.9,0.1c-2.3,0-5.4-1.8-8.7-4.6c-3.2-2.8-6.1-6.2-7.8-8.4
				c5.3-1.6,12.8-3.7,19.2-6.9C-233.3-116.9-233.4-116-233.5-115z"/>
		</g>
	</g>
</g>
</svg>
