<?xml version="1.0" encoding="utf-8"?>
<!-- Generator: Adobe Illustrator 19.1.0, SVG Export Plug-In . SVG Version: 6.00 Build 0)  -->
<svg version="1.1" id="Layer_1" xmlns="http://www.w3.org/2000/svg" xmlns:xlink="http://www.w3.org/1999/xlink" x="0px" y="0px"
	 viewBox="-384 186 190 190" style="enable-background:new -384 186 190 190;" xml:space="preserve">
<style type="text/css">
	.st0{fill:#BD19E6;}
</style>
<g transform="scale(1 -1)">
	<g transform="translate(0 -75)">
		<g>
			<path marker-start="none" marker-end="none" class="st0" d="M-337.5-268.3c-14.9,17.8-21.8,30.4-27.8,54.8
				c-3.4,13.8-3.3,31.7-1.2,47.3c-3.3-0.4-6.6-0.9-9.9-0.9c-0.7,0-1.3,0.6-1.3,1.3s0.6,1.3,1.3,1.3c3.4,0,6.8,0.6,10.3,0.9
				c0.3,2,0.6,3.9,1,5.7c-0.8,0.1-1.5,0.2-2.3,0.3c-2.7,0.3-5.5,0.3-7.5,0.2c-0.7,0-1.4,0.5-1.4,1.2s0.5,1.3,1.2,1.4
				c2.2,0.2,5.1,0.1,7.9-0.2c0.9-0.1,1.8-0.2,2.6-0.3c0.4,2.1,0.9,4,1.5,5.9c4.1,14.6,17.4,37.7,25,38.4c6.3,0.6,8.4-12.3,8.7-17.6
				v-0.2l3.2,0.4c3.5,0.1,7.5-0.3,10.9-0.9l3.6-0.8l1.1,1.2c4.1,4.6,11,11.3,16.6,10.6c0.1,0,0.1,0,0.2,0c3.7-1.1,3.4-7.6,2.4-13.9
				l-0.9-5.4l2-2.2c2.5-3.1,4.2-6.6,5.7-10.6c1.4,0.9,2.7,1.4,3.9,1.9c1.6,0.5,3.1,0.9,5,1.5c0.7,0.2,1.4-0.1,1.7-0.8
				c0.2-0.7-0.1-1.4-0.8-1.7c-2-0.7-3.6-1.1-5.1-1.6c-1.2-0.4-2.5-0.9-3.9-1.9c0.3-0.9,0.6-1.8,0.9-2.8c1.7,0.6,3.1,1.1,4.6,1.5
				s3.1,0.6,5.1,0.7c0.7,0,1.3-0.5,1.4-1.2c0-0.7-0.5-1.3-1.2-1.4c-1.9-0.1-3.3-0.3-4.6-0.7c-0.7-0.2-1.4-0.4-2.1-0.6
				c-0.7-0.2-1.5-0.5-2.3-0.8c1.2-4,2.4-8.2,4-12.8c0.1,0,0.1,0.1,0.2,0.1c4.3,1.8,10.9,1.5,16-0.6c5.2-2.2,9.4-6.7,7.9-13.3
				c-1.2-4.9-5.4-6.4-9.4-6.1c-2.2,0.1-4.4,0.7-6.4,1.6c3-5.3,6.9-10.8,11.9-16.4c4.7-5.3,43.3-39.2,31.4-52.1
				c-5.4-5.9-16.7,1.7-22.8,6.6l-2.2,1.8l-0.5-2.6c-0.8-3.1-2.1-6-3.8-8.8c4.8-7.9,19.3-15.4,29.5-12.9c4.5,1.1,8.3,4.3,10.3,8.3
				c2.6,5.3,0.9,10.2-0.7,14.6c-0.7,2.1-1.5,4.3-1.4,6.1c0.2,2.2,1.6,3.7,4.3,4.5c10,2.9,16.3-20.6,12-31
				c-8.5-20.6-27.9-22.4-45-16.1c-5.1,1.9-17.9,10.7-20.9,14.8c-1.9-1.2-4-2.2-6.2-3.1l-4.2-1.4l0.7-1c4.9-5.5,14.9-11.7,10.7-18.3
				C-277.6-313.4-328.2-279.3-337.5-268.3z M-268.7-294.7c3.3,5.2-8.5,10.9-12.4,17.9v0.1c-0.2,0-0.3,0.1-0.4,0.2
				c-2.2,2.8-4.3,4.9-6.4,8.1c-0.4,0.6-0.2,1.4,0.4,1.8s1.4,0.2,1.8-0.4c2-3,3.9-5,6.1-7.8c15.4,4.2,24.9,15.8,26,27.9
				c0,0.2,0.1,0.3,0.1,0.4c-0.1,0.2-0.1,0.4,0,0.7c0.4,1.6,0.1,3.4,0.2,5.3c0,0.7,0.6,1.3,1.4,1.3c0.7,0,1.3-0.6,1.2-1.4
				c-0.1-1.8,0.2-3.8-0.3-5.9l0,0c4.4-3.9,17.9-14.8,22.6-9.7c4.4,4.8-0.9,14.8-9.7,25.6c-8.6,10.4-18.8,19.8-21.7,23
				c-27.1,30.4-20.6,55.1-34.7,68.6c-0.3,0.3-0.5,0.7-0.4,1.2c1.7,9.7,2.1,15,1,16.6l-0.5,0.4l-1.7-0.1c-4.6-1-10.4-7.1-14-11.4
				c-0.3-0.4-0.8-0.5-1.3-0.4c-4.9,1.2-13.9,2.6-18.8,1.2c-0.9-0.2-1.7,0.4-1.7,1.3c0.3,4.3-2.3,16.9-5.9,16.6
				c-5.4-0.5-18.5-21.4-22.7-36.5c-0.5-1.8-1-3.7-1.4-5.6c0.9-0.2,1.7-0.4,2.4-0.6c0.7-0.2,1.1-0.9,0.9-1.6
				c-0.2-0.7-0.9-1.1-1.6-0.9c-0.7,0.2-1.4,0.4-2.3,0.5c-0.3-1.6-0.6-3.3-0.9-5.1c1,0.1,2,0.1,3.1,0.1c0.7,0,1.3-0.6,1.3-1.3
				s-0.6-1.3-1.3-1.3c-1.1,0-2.3,0-3.4-0.1c-2.2-15.5-2.3-33.3,1-47c5.9-24,12.6-36.3,27.2-53.7
				C-325.5-278.5-277.6-308.6-268.7-294.7z M-204.1-270.1c4,9.7-2.4,29.4-8.9,27.4c-2-0.6-2.4-1.4-2.5-2.2c-0.1-1.2,0.4-2.8,1.2-5
				c1.5-4.3,3.8-10.3,0.6-16.7c-2.4-4.7-6.8-8.4-12-9.7c-11.1-2.8-25.8,4.7-31.7,13.1c-2.2-2.9-4.8-5.5-8-7.7
				c2.5-3.4,14.7-12,19.6-13.8C-229.3-290.8-211.8-288.8-204.1-270.1z M-317.7-206.3c-0.8,1.5-0.8,4.3-0.5,6.5
				c0.2,1.6,0.7,3.5,1.6,4.8c-0.8,0.5-1.3,1-1.8,1.4c-0.6,0.6-1,1-2,1.9c-0.6,0.5-0.6,1.3-0.2,1.8s1.3,0.6,1.8,0.2
				c1.1-0.9,1.6-1.5,2.1-2c0.2-0.2,0.5-0.4,0.8-0.7c0.4-0.3,0.8-0.6,1.5-0.9c0.2-0.1,0.4-0.4,0.5-0.6c0.8-0.3,1.8-0.9,3-1.2
				c1.3-0.3,3.1-0.4,5.2,0.7c3.9,2,4.2,5.5,2.3,8.9c-1.9,3.6-6,6.7-10.2,7.1c-13.5,1.4-22.4-10.7-22.2-22.3c0-0.7-0.6-1.3-1.3-1.3
				c-0.7,0-1.3,0.6-1.3,1.3c-0.3,12.6,9.5,26.6,25,24.9c5.1-0.5,9.9-4.2,12.2-8.5c2.3-4.4,2.1-9.6-3.4-12.5
				c-2.8-1.4-5.2-1.4-7.1-0.9c-1.3,0.3-2.3,0.8-2.9,1.1l-0.1,0.1l-0.1-0.1c-0.3-0.6-0.8-1.8-1.1-3.6c-0.3-2.2-0.2-4.1,0.2-4.8
				c0.4-0.6,0.1-1.4-0.5-1.8C-316.5-207.1-317.3-206.9-317.7-206.3z M-256.5-184.2c1.2,4.9-1.7,8.3-6.3,10.3c-4.6,2-10.5,2.1-14,0.6
				c-0.1,0-0.2-0.1-0.3-0.1c1.3-3.7,2.9-7.5,4.9-11.5c2-1.7,5.6-3.3,9-3.5C-259.9-188.5-257.2-187.4-256.5-184.2z M-319.5-160.5
				c0,1.4,2,2.6,4.4,2.6s4.4-1.1,4.4-2.6c0-1.4-2-2.6-4.4-2.6C-317.5-163-319.5-161.9-319.5-160.5z M-339.4-155.6
				c0,2.9,2.1,5.2,4.7,5.2s4.7-2.3,4.7-5.2s-2.1-5.2-4.7-5.2S-339.4-158.5-339.4-155.6z M-305.6-155.4c0,2.9,2.1,5.2,4.7,5.2
				s4.7-2.3,4.7-5.2s-2.1-5.2-4.7-5.2S-305.6-158.3-305.6-155.4z"/>
		</g>
	</g>
</g>
</svg>
