<?xml version="1.0" encoding="utf-8"?>
<!-- Generator: Adobe Illustrator 19.1.0, SVG Export Plug-In . SVG Version: 6.00 Build 0)  -->
<svg version="1.1" id="Layer_1" xmlns="http://www.w3.org/2000/svg" xmlns:xlink="http://www.w3.org/1999/xlink" x="0px" y="0px"
	 viewBox="-384 186 190 190" style="enable-background:new -384 186 190 190;" xml:space="preserve">
<style type="text/css">
	.st0{fill:#BD19E6;}
</style>
<g transform="scale(1 -1)">
	<g transform="translate(0 -75)">
		<g>
			<path marker-end="none" marker-start="none" class="st0" d="M-298.5-297l-1.7,1.8c-0.2,0.1-0.4,0.3-0.6,0.5l0.1,0l-1.1,0.2
				c-4,0.6-11.9,1-19.6,4.3c-29,13.3-36.2,37.6-29.3,58.8c4.2,13,9.5,21.1,13.1,31c2.2,6.1,3.8,11.8,5.8,18.8c0.4,1.3,0.7,2.6,1,3.8
				c-0.5-0.1-1-0.1-1.6-0.2c-0.9-0.1-1.9-0.1-2.9-0.1c-2-0.1-4-0.1-5.5-0.1c-0.7,0-1.3,0.5-1.3,1.2c0,0.7,0.5,1.3,1.2,1.3
				c1.5,0,3.5,0,5.5,0.1c1,0,1.9,0.1,2.8,0.1c0.9,0.1,1.7,0.2,2.3,0.3c0,0,0.1,0,0.1,0c0.2,0.8,0.3,1.6,0.5,2.4
				c-1.4,0.2-3.1,0.4-4.8,0.7c-1.1,0.2-2.3,0.4-3.3,0.6c-1,0.2-2,0.4-2.7,0.7c-0.7,0.2-1,0.9-0.8,1.6c0.2,0.7,0.9,1,1.6,0.8
				c0.6-0.2,1.4-0.4,2.4-0.6c1-0.2,2.1-0.4,3.2-0.6c1.7-0.3,3.5-0.5,4.9-0.7c0.4,2.3,0.8,4.6,1.2,7.1c0,0,0,0,0,0
				c-0.7,0.8-1.3,1.7-1.8,2.6c-0.5,0.8-1.5,3-1.3,4.4c0,0.2,0.1,0.4,0.2,0.7c0.1,0.1,0.2,0.3,0.3,0.4l0.1,0.1
				c0.7,0.5,1.8,0.9,2.9,1.1c0.3,0.1,0.7,0.1,1.1,0.2c0,0,0,0,0,0c1.1,9.2,1.7,16.9,2,19.9c0.5,4.1,1.1,9.5,2.2,13.9
				c0.9,3.5,2.4,7.4,5.3,8.3l1,0.1l0.4,0.1c2.8,0.3,6.1-4.3,8.1-7.2c1.8-2.7,3.5-5.7,4.3-7.6l0.1-0.2l0.3,0.1
				c7.3,1.8,20.6,1.7,28.4-0.2l0.6-0.2l0.2,0.4c0.9,1.6,2.7,4.9,4.9,7.9c2.4,3.5,6.4,8.5,10,7.2c2.7-0.9,4.1-5.5,5.1-9.8
				c1.1-4.8,2.1-11,3.2-16.8c0.9-4.2,2.4-10.2,2.9-15.7c0-0.2,0-0.3,0-0.5c0,0,0,0,0,0c1.1-0.2,2.3-0.6,2.9-1.1l0.1-0.1
				c0.1-0.1,0.2-0.2,0.3-0.4c0.1-0.2,0.2-0.5,0.2-0.7c0.1-0.9-0.3-2-0.6-3c2.3-1.8,4.9-4.2,6-5.5c8.8-10.1,10.4-20.4,7.8-31.5
				c-1-4.3-3.3-8.2-6-11.4l-2.1-2.2l1.8-4.2c1.9-4.9,3-9.4,4.2-14.3c0.8-3.1,1.8-8.3,1.8-16.8l0-3.5l2.4-4.1
				c5.2-10.5,4.7-21.7,1.6-30.3c-6.1-17.1-28.6-23.8-43-10.9l-2.2,2.3l-0.6-0.2c-1.2-0.3-3-0.9-4.3-1.3l-1.2-0.5l-0.6-2
				c-1.2-2.5-3.8-4.9-7.1-5.4C-291.1-301.5-295.5-299.5-298.5-297z M-280.7-292.7c0,0.1,0,0.3,0.1,0.4c-0.1,0.2-0.1,0.4-0.1,0.6
				c0,0.4-0.2,1.4-0.7,2.8c-0.5,1.4-1.1,3-1.9,4.6c-1.5,3.3-3.3,6.5-4.2,7.9c-4.2,6.1-10.9,15.9-10.5,25.1c0,0.7,0.6,1.2,1.3,1.2
				c0.7,0,1.2-0.6,1.2-1.3c-0.3-8.1,5.7-17.1,10.1-23.6c1.1-1.6,2.9-5,4.5-8.3c0.8-1.7,1.5-3.3,2-4.8c0.3-0.9,0.6-1.8,0.7-2.6
				c1.4,0.5,3.1,1,4.4,1.4c-4.3,6.7-6,15.5-4.1,22.9c2,8.2,8.4,14.6,20.1,14.5c12.9-0.1,20.8-14.4,17.1-24.1
				c-3.1-8.1-9.1-9.6-13.8-7.8c-3.1,1.2-5.6,4-5.7,7v0.1l-0.3,0.2c-1.6,1.2-2.5,3.3-2.6,5.2c-0.1,1.9,0.6,4.1,3,4.7
				c2.2,0.5,4.2-0.2,4.9-2.1c0.6-1.7-0.1-3.8-1.6-5.6c-2-2.4-0.3-5.8,3.2-7.2c3.3-1.3,7.9-0.5,10.5,6.3c3.1,8.1-3.8,20.5-14.8,20.7
				c-10.5,0.1-15.9-5.5-17.6-12.6c-1.8-7.3,0.2-16.2,4.9-22.5c0.1-0.1,0.2-0.3,0.2-0.4c12.9-14.2,35.1-8.4,40.9,7.9
				c3.3,9.2,3.4,21.5-4,32.5c-0.1,0.2-0.2,0.5-0.2,0.7c0.3,10.6-0.9,16.6-1.7,20c-1.6,6.5-3,12.2-6.2,18.8c-0.2,0.5-0.1,1.1,0.3,1.5
				c3.4,3.2,6.7,7.8,7.9,12.9c2.4,10.5,1,19.8-7.3,29.3c-0.9,1-3.2,3.2-5.3,4.9c-2.2-3.3-5.1-6.1-8.6-7.9c1.9-3,3-5.9,3.4-8.8
				c0.4-3.3-0.3-6.6-2.1-10.3c-0.3-0.6-1.1-0.9-1.7-0.6c-0.6,0.3-0.9,1.1-0.6,1.7c1.6,3.4,2.2,6.2,1.8,9c-0.3,2.5-1.4,5.1-3.2,8
				c-5.2-2-11.2-2.1-17.3,0.8c-2,1-5.6,3.1-8.3,5.7c-1.3,1.3-2.5,2.7-3,4.3c-0.1,0.4-0.2,0.8-0.3,1.3h-3.9c0-0.4-0.1-0.8-0.3-1.3
				c-0.5-1.6-1.7-3-3-4.3c-2.6-2.6-6.3-4.7-8.3-5.7c-9.4-4.5-18.6-1.8-24.7,4.1c-0.9-5.7-1.9-10.9-3.5-16.8c-2-7-3.5-12.7-5.8-18.9
				c-4.1-11.2-8.7-17.2-13.1-30.9c-6.4-20.1,0.2-43,28-55.8c6.3-2.7,11.9-3.2,16.1-3.7c-9.6,9.1-18.7,22.3-21.9,34.9
				c-0.2,0.7,0.2,1.4,0.9,1.5c0.7,0.2,1.4-0.2,1.5-0.9c3.3-13.2,13.8-27.5,24-36.3c0.2-0.1,0.5-0.2,0.6-0.4c0.1-0.1,0.1-0.2,0.2-0.3
				c0.1-0.1,0.2-0.2,0.3-0.3c0.2-0.1,0.3-0.3,0.4-0.6c2.5-2.7,6.8-5.1,11.7-4.5C-283.2-298-280.9-294.9-280.7-292.7z M-259.6-273.9
				l0.2,0.5c0.2,0.3,0.4,0.5,0.6,0.8c1.2,1.5,1.3,2.6,1.1,3.2c-0.1,0.3-0.5,0.9-1.9,0.5c-0.7-0.2-1.2-0.8-1.1-2.1
				C-260.7-272.1-260.3-273.1-259.6-273.9L-259.6-273.9z M-292.7-168.8c0,1.6,2.4,2.9,5.4,2.9c3,0,5.4-1.3,5.4-2.9
				c0-1.6-2.4-2.9-5.4-2.9C-290.3-171.7-292.7-170.4-292.7-168.8z M-247.6-159.3c0.2,0.3,0.5,0.9,0.7,1.5c0.1,0.3,0.2,0.6,0.2,0.8
				l0,0.1l-0.2,0.1c-0.3,0.1-0.7,0.2-1.3,0.4c-1.1,0.2-2.6,0.4-4.3,0.6c-3.4,0.3-7.7,0.5-12,0.6c-4.3,0.1-8.6,0-12-0.3
				c-1.7-0.1-3.2-0.3-4.3-0.5c-0.9-0.1-1.5-0.3-1.7-0.4l-0.1-0.1l-0.4-0.5c-0.3-0.6-0.3-1.2-0.1-1.9c0.3-1,1.2-2.2,2.4-3.3
				c2.4-2.3,5.8-4.3,7.6-5.2C-262.8-172.3-252.5-167.5-247.6-159.3z M-302.3-167.4c1.8,0.9,5.2,2.9,7.6,5.2c1.2,1.2,2,2.3,2.4,3.3
				c0.2,0.7,0.2,1.3-0.1,1.9l-0.4,0.5l-0.1,0.1c-0.3,0.1-0.8,0.3-1.7,0.4c-1.1,0.2-2.6,0.3-4.3,0.5c-3.4,0.2-7.7,0.3-12,0.3
				c-4.3-0.1-8.6-0.3-12-0.6c-1.7-0.2-3.2-0.4-4.3-0.6c-0.6-0.1-1-0.2-1.4-0.4l-0.2-0.1l0-0.1c0-0.2,0.1-0.5,0.3-0.8
				c0.2-0.6,0.5-1.2,0.7-1.5c0.6-1.1,1.3-2,2.1-3C-320.3-168.5-311.4-171.6-302.3-167.4z M-284.5-154.7c0.1,0.1,0.3,0.2,0.4,0.3
				c0.7,0.5,1.8,0.7,2.9,0.9c1.2,0.2,2.8,0.4,4.5,0.5c3.5,0.2,7.9,0.3,12.2,0.3c4.4-0.1,8.7-0.3,12.2-0.6c0.7-0.1,1.4-0.1,2-0.2
				c-0.5,5.2-1.9,11-2.8,15.3c-1.1,6-2.1,12-3.2,16.7c-1.2,5.2-2.5,7.6-3.5,8c-1.3,0.4-3.9-1.7-7.1-6.3c-2.7-3.9-5-8.3-5.5-9
				l-0.1-0.1l0-0.1c-0.3-0.4-0.9-0.5-1.4-0.4c-7.4,2.3-23.1,2.4-29.9,0.3c-0.7-0.2-1.5,0.2-1.6,1c-0.1,0.8-2,4.5-4.4,8.2
				c-1.2,1.8-2.4,3.4-3.6,4.6c-1,1-1.6,1.4-1.9,1.5l-0.2,0l-0.4-0.1c-1.5,0-3-2.1-4.1-6.6c-1.1-4.2-1.6-9.4-2.2-13.6
				c-0.4-3-0.9-10.1-2-19.2c0.3,0,0.6,0.1,0.9,0.1c3.5,0.3,7.9,0.6,12.2,0.6c4.4,0,8.7,0,12.2-0.3c1.8-0.1,3.3-0.3,4.5-0.5
				c1.1-0.2,2.2-0.4,2.9-0.9c0.1-0.1,0.3-0.2,0.4-0.3c0.3-0.4,0.6-0.8,0.8-1.2h4.8C-285.1-155.5-284.9-155.1-284.5-154.7z"/>
		</g>
	</g>
</g>
</svg>
