<?xml version="1.0" encoding="utf-8"?>
<!-- Generator: Adobe Illustrator 19.1.0, SVG Export Plug-In . SVG Version: 6.00 Build 0)  -->
<svg version="1.1" id="Layer_1" xmlns="http://www.w3.org/2000/svg" xmlns:xlink="http://www.w3.org/1999/xlink" x="0px" y="0px"
	 viewBox="-416 290 190 190" style="enable-background:new -416 290 190 190;" xml:space="preserve">
<style type="text/css">
	.st0{fill:#FFAEBF;}
	.st1{fill:#FFFFFF;}
	.st2{fill:#6F05CC;}
</style>
<g>
	<g>
		<g>
			<path class="st0" d="M-257.2,399.2c-0.6-2.3-2.9-3.6-5.2-3l-10,2.6c3.6-16.1,6.4-34,7.3-52.8c0.3-6,1.2-40.6-3.7-53.2
				c0,0-13.7,9.1-16.5,13c0,0-16.7-4.4-35.9-4.4c-19.2,0-35.7,4.4-35.7,4.4c-2.8-3.9-16.5-13-16.5-13c-4.9,12.6-4,47.2-3.7,53.2
				c1,18.8,3.7,36.6,7.3,52.7l-9.8-2.6c-1.9-0.5-3.9,0.3-4.8,2.1c-1.1,2.1-0.3,4.6,1.7,5.7l16.3,8.8c3.7,14,7.9,26.3,11.7,36.4
				c-0.6,0.4-1.2,0.8-2,1.2c-0.9,0.5-1.8,1-2.9,1.5c-1.1,0.5-2.3,1-3.5,1.4c-1.3,0.4-2.6,0.8-4,0.9c-1.4,0.2-2.7,0.2-4.1-0.1
				c-1.3-0.2-2.6-0.7-3.8-1.5l-0.2-0.1l-0.1,0l0,0l-0.1-0.1l-0.1-0.1c0,0-0.1-0.1-0.1-0.1l-0.1-0.1c0,0-0.1-0.1-0.2-0.1l-0.2-0.1
				c-0.1-0.1-0.2-0.2-0.3-0.3c-0.4-0.4-0.8-0.9-1-1.4c-0.6-1-0.8-2.2-0.8-3.3c0-1.1,0.3-2.2,0.8-3.1c0.1-0.1,0.1-0.2,0.2-0.3
				l0.1-0.1l0,0l0,0l0.2-0.2c0.1-0.1,0.1-0.1,0.2-0.2c0.1-0.1,0.1-0.2,0.2-0.2c0.3-0.3,0.6-0.6,1-0.8c0.7-0.4,1.4-0.6,2-0.6
				c0.6,0,1.2,0,1.6,0.2c0.4,0.1,0.8,0.3,1,0.4c0.1,0.1,0.2,0.1,0.2,0.1c0.1,0,0.1,0.1,0.1,0.1l0.1,0.1c1.4,0.9,3.3,0.4,4.2-1
				c0.9-1.4,0.4-3.3-1-4.2c0,0-0.1,0-0.2-0.1c-0.1-0.1-0.3-0.2-0.6-0.3c-0.5-0.3-1.2-0.6-2.3-0.9c-1-0.3-2.3-0.5-3.7-0.3
				c-1.4,0.1-3.1,0.6-4.6,1.5c-0.8,0.5-1.5,1.1-2.2,1.8c-0.2,0.2-0.3,0.4-0.5,0.5c-0.1,0.2-0.3,0.4-0.5,0.6l-0.2,0.2l0,0.1l-0.1,0.1
				l0,0l-0.1,0.2c-0.1,0.2-0.2,0.4-0.4,0.6c-0.9,1.7-1.5,3.7-1.5,5.8c0,2.1,0.5,4.3,1.6,6.2c0.5,1,1.2,1.9,2,2.7
				c0.2,0.2,0.4,0.4,0.6,0.6c0.1,0.1,0.2,0.2,0.3,0.3c0.1,0.1,0.2,0.2,0.3,0.3l0.4,0.3c0.1,0.1,0.1,0.1,0.1,0.1l0.1,0.1l0.1,0.1
				l0.1,0.1l0.1,0.1l0.3,0.2c1.7,1.1,3.7,1.8,5.7,2.2c2,0.4,4,0.3,5.8,0.1c1.8-0.2,3.5-0.7,5.1-1.2c1.5-0.5,2.9-1.1,4.2-1.7
				c1.2-0.6,2.3-1.2,3.3-1.8c0.4-0.3,0.9-0.5,1.2-0.7c3.3,8.3,6.3,14.9,8.4,19.1c0.9,1.9,2.1,3.6,4.4,3.5c2.1-0.1,3.8-1.9,4-4
				l0.5-6.6c0.1-1.5,1.5-2.5,2.9-2.1c3.6,0.9,19,0.9,22.6,0c1.4-0.4,2.8,0.6,2.9,2.1l0.5,6.6c0.2,2.1,1.9,3.9,4,4
				c2.4,0.1,3.5-1.6,4.4-3.5c4.8-9.9,14.4-31.8,22.1-60.7c0,0,0,0,0.1,0l16.4-8.8C-257.6,403.1-256.7,401.2-257.2,399.2z"/>
		</g>
		<g>
			<circle class="st1" cx="-358.4" cy="342.2" r="8.1"/>
		</g>
		<g>
			<circle class="st2" cx="-358.4" cy="342.2" r="4.9"/>
		</g>
		<g>
			<circle class="st1" cx="-284.3" cy="342.2" r="8.1"/>
		</g>
		<g>
			<circle class="st2" cx="-284.3" cy="342.2" r="4.9"/>
		</g>
		<g>
			<g>
				<polygon class="st1" points="-335.4,362.8 -334,368.8 -329.9,364.2 				"/>
			</g>
			<g>
				<polygon class="st1" points="-307.3,362.8 -308.7,368.8 -312.8,364.2 				"/>
			</g>
		</g>
		<g>
			<g>
				<g>
					<path class="st2" d="M-287.8,359c-0.3,0-0.6-0.3-0.6-0.6c0-0.4,0.2-0.7,0.6-0.7l11.8-0.9c0.4,0,0.7,0.2,0.7,0.6
						c0,0.4-0.2,0.7-0.6,0.7L-287.8,359C-287.8,359-287.8,359-287.8,359z"/>
				</g>
				<g>
					<path class="st2" d="M-274.3,363.9C-274.3,363.9-274.3,363.9-274.3,363.9l-13.6-0.9c-0.4,0-0.6-0.3-0.6-0.7s0.3-0.6,0.7-0.6
						l13.5,0.9c0.4,0,0.6,0.3,0.6,0.7C-273.6,363.6-273.9,363.9-274.3,363.9z"/>
				</g>
				<g>
					<path class="st2" d="M-276.5,369.2c0,0-0.1,0-0.1,0l-11.6-2.4c-0.3-0.1-0.6-0.4-0.5-0.8c0.1-0.3,0.4-0.6,0.8-0.5l11.6,2.4
						c0.3,0.1,0.6,0.4,0.5,0.8C-276,369-276.2,369.2-276.5,369.2z"/>
				</g>
			</g>
			<g>
				<g>
					<path class="st2" d="M-354.9,358.7C-354.9,358.7-354.9,358.7-354.9,358.7l-11.9-0.9c-0.4,0-0.6-0.3-0.6-0.7
						c0-0.4,0.3-0.6,0.7-0.6l11.8,0.9c0.4,0,0.6,0.3,0.6,0.7C-354.3,358.5-354.6,358.7-354.9,358.7z"/>
				</g>
				<g>
					<path class="st2" d="M-368.4,363.6c-0.3,0-0.6-0.3-0.6-0.6c0-0.4,0.2-0.7,0.6-0.7l13.5-0.9c0.4,0,0.7,0.2,0.7,0.6
						c0,0.4-0.2,0.7-0.6,0.7L-368.4,363.6C-368.4,363.6-368.4,363.6-368.4,363.6z"/>
				</g>
				<g>
					<path class="st2" d="M-366.1,369c-0.3,0-0.6-0.2-0.6-0.5c-0.1-0.3,0.2-0.7,0.5-0.8l11.6-2.4c0.3-0.1,0.7,0.2,0.8,0.5
						c0.1,0.3-0.2,0.7-0.5,0.8L-366,369C-366.1,369-366.1,369-366.1,369z"/>
				</g>
			</g>
		</g>
		<g>
			<g>
				<path class="st2" d="M-366.4,326.7c-0.2,0-0.3-0.1-0.4-0.2c-0.3-0.2-0.3-0.7,0-0.9c3.5-3.6,9.1-4.8,14.4-3.2
					c0.3,0.1,0.5,0.5,0.4,0.8c-0.1,0.3-0.5,0.5-0.8,0.4c-4.8-1.5-9.9-0.4-13.1,2.8C-366,326.7-366.2,326.7-366.4,326.7z"/>
			</g>
			<g>
				<path class="st2" d="M-276.3,326.7c-0.2,0-0.3-0.1-0.5-0.2c-3.1-3.2-8.3-4.3-13.1-2.8c-0.3,0.1-0.7-0.1-0.8-0.4
					c-0.1-0.3,0.1-0.7,0.4-0.8c5.3-1.6,10.9-0.4,14.4,3.2c0.2,0.3,0.2,0.7,0,0.9C-276,326.7-276.2,326.7-276.3,326.7z"/>
			</g>
		</g>
		<g>
			<path class="st2" d="M-317,353h-8.7c-1.2,0-2.1-0.9-2.1-2.1l0,0c0-1.2,0.9-2.1,2.1-2.1h8.7c1.2,0,2.1,0.9,2.1,2.1l0,0
				C-314.9,352-315.8,353-317,353z"/>
		</g>
		<path class="st2" d="M-299.8,358.6c-0.2-0.3-0.6-0.3-0.9-0.1c-0.1,0.1-6.8,5.6-20,5.8v-13.5c0-0.4-0.3-0.6-0.6-0.6
			s-0.6,0.3-0.6,0.6v13.5c-13.2-0.2-19.9-5.7-20-5.8c-0.3-0.2-0.7-0.2-0.9,0.1c-0.2,0.3-0.2,0.7,0.1,0.9c0.3,0.2,7.4,6.1,21.5,6.1
			c1.4,0,2.7-0.1,3.9-0.2c0.1,0.9,0.6,1.5,1,1.9c0.4,0.4,0.7,0.7,0.7,1.4c0,0.7-0.3,1-0.7,1.4c-0.5,0.5-1.1,1.1-1.1,2.3
			c0,1.2,0.6,1.8,1.1,2.3c0.4,0.4,0.7,0.7,0.7,1.4c0,0.7-0.3,1-0.7,1.4c-0.5,0.5-1.1,1.1-1.1,2.3c0,1.2,0.6,1.8,1.1,2.3
			c0.4,0.4,0.7,0.7,0.7,1.4c0,0.4,0.3,0.6,0.6,0.6c0.4,0,0.6-0.3,0.6-0.6c0-1.2-0.6-1.8-1.1-2.3c-0.4-0.4-0.7-0.7-0.7-1.4
			c0-0.7,0.3-1,0.7-1.4c0.5-0.5,1.1-1.1,1.1-2.3c0-1.2-0.6-1.8-1.1-2.3c-0.4-0.4-0.7-0.7-0.7-1.4c0-0.7,0.3-1,0.7-1.4
			c0.5-0.5,1.1-1.1,1.1-2.3c0-1.2-0.6-1.8-1.1-2.3c-0.3-0.4-0.6-0.6-0.7-1.1c10.6-1.2,16-5.6,16.2-5.8
			C-299.6,359.3-299.6,358.9-299.8,358.6z"/>
		<g>
			<g>
				<g>
					<path class="st1" d="M-314.9,409.4L-314.9,409.4c-4.4,0-8-3.6-8-8v-9.9c0-4.4,3.6-8,8-8h0c4.4,0,8,3.6,8,8v9.9
						C-306.9,405.9-310.5,409.4-314.9,409.4z"/>
				</g>
			</g>
			<g>
				<g>
					<path class="st2" d="M-314.9,405.2c-0.7,0-1.3-0.6-1.3-1.3v-2.8c0-0.7,0.6-1.3,1.3-1.3c0.7,0,1.3,0.6,1.3,1.3v2.8
						C-313.6,404.6-314.2,405.2-314.9,405.2z"/>
				</g>
			</g>
		</g>
	</g>
</g>
</svg>
