<?xml version="1.0" encoding="utf-8"?>
<!-- Generator: Adobe Illustrator 19.1.0, SVG Export Plug-In . SVG Version: 6.00 Build 0)  -->
<svg version="1.1" id="Layer_1" xmlns="http://www.w3.org/2000/svg" xmlns:xlink="http://www.w3.org/1999/xlink" x="0px" y="0px"
	 viewBox="-416 290 190 190" style="enable-background:new -416 290 190 190;" xml:space="preserve">
<style type="text/css">
	.st0{fill:#CEB6FC;}
	.st1{fill:#6F05CC;}
	.st2{fill:#FFAEBF;}
	.st3{fill:#FFFFFF;}
</style>
<g>
	<g>
		<polygon class="st0" points="-262.3,387.4 -257.4,371.2 -233.7,387.2 		"/>
	</g>
	<g>
		
			<rect x="-262.9" y="370.5" transform="matrix(0.9569 0.2903 -0.2903 0.9569 101.2757 92.8851)" class="st1" width="1" height="34.5"/>
	</g>
	<path class="st2" d="M-259.3,403c-0.6-2.3-2.9-3.6-5.2-3l-8.7,2.3c3.8-16.7,6.8-35.3,7.8-55c0.3-6,1.2-40.6-3.7-53.2
		c0,0-13.7,9.1-16.5,13c0,0-16.7-4.4-35.9-4.4c-19.2,0-35.7,4.4-35.7,4.4c-2.8-3.9-16.5-13-16.5-13c-4.9,12.6-4,47.2-3.7,53.2
		c1.1,20.9,4.4,40.5,8.5,58l-9.1,14.5c-1,1.6-0.9,3.7,0.5,5.2c1.6,1.7,4.3,1.8,6,0.2l6.2-5.9c3.3,11.8,6.9,22.4,10.3,31.2
		c-0.6,0.4-1.2,0.8-2,1.2c-0.9,0.5-1.8,1-2.9,1.5c-1.1,0.5-2.3,1-3.5,1.4c-1.3,0.4-2.6,0.8-4,0.9c-1.4,0.2-2.7,0.2-4.1-0.1
		c-1.3-0.2-2.6-0.7-3.8-1.5l-0.2-0.1l-0.1,0l0,0l-0.1-0.1l-0.1-0.1c0,0-0.1-0.1-0.1-0.1l-0.1-0.1c0,0-0.1-0.1-0.2-0.1l-0.2-0.1
		c-0.1-0.1-0.2-0.2-0.3-0.3c-0.4-0.4-0.8-0.9-1-1.4c-0.6-1-0.8-2.2-0.8-3.3c0-1.1,0.3-2.2,0.8-3.1c0.1-0.1,0.1-0.2,0.2-0.3l0.1-0.1
		l0,0l0,0l0.2-0.2c0.1-0.1,0.1-0.1,0.2-0.2c0.1-0.1,0.1-0.2,0.2-0.2c0.3-0.3,0.6-0.6,1-0.8c0.7-0.4,1.4-0.6,2-0.6
		c0.6,0,1.2,0,1.6,0.2c0.4,0.1,0.8,0.3,1,0.4c0.1,0.1,0.2,0.1,0.2,0.1c0.1,0,0.1,0.1,0.1,0.1l0.1,0.1c1.4,0.9,3.3,0.4,4.2-1
		c0.9-1.4,0.4-3.3-1-4.2c0,0-0.1,0-0.2-0.1c-0.1-0.1-0.3-0.2-0.6-0.3c-0.5-0.3-1.2-0.6-2.3-0.9c-1-0.3-2.3-0.5-3.7-0.3
		c-1.4,0.1-3.1,0.6-4.6,1.5c-0.8,0.5-1.5,1.1-2.2,1.8c-0.2,0.2-0.3,0.4-0.5,0.5c-0.1,0.2-0.3,0.4-0.5,0.6l-0.2,0.2l0,0.1l-0.1,0.1
		l0,0l-0.1,0.2c-0.1,0.2-0.2,0.4-0.4,0.6c-0.9,1.7-1.5,3.7-1.5,5.8c0,2.1,0.5,4.3,1.6,6.2c0.5,1,1.2,1.9,2,2.7
		c0.2,0.2,0.4,0.4,0.6,0.6c0.1,0.1,0.2,0.2,0.3,0.3c0.1,0.1,0.2,0.2,0.3,0.3l0.4,0.3c0.1,0.1,0.1,0.1,0.1,0.1l0.1,0.1l0.1,0.1
		l0.1,0.1l0.1,0.1l0.3,0.2c1.7,1.1,3.7,1.8,5.7,2.2c2,0.4,4,0.3,5.8,0.1c1.8-0.2,3.5-0.7,5.1-1.2c1.5-0.5,2.9-1.1,4.2-1.7
		c1.2-0.6,2.3-1.2,3.3-1.8c0.4-0.3,0.9-0.5,1.2-0.7c3.3,8.3,6.3,14.9,8.4,19.1c0.9,1.9,2.1,3.6,4.4,3.5c2.1-0.1,3.8-1.9,4-4l0.5-6.6
		c0.1-1.5,1.5-2.5,2.9-2.1c3.6,0.9,19,0.9,22.6,0c1.4-0.4,2.8,0.6,2.9,2.1l0.5,6.6c0.2,2.1,1.9,3.9,4,4c2.4,0.2,3.5-1.6,4.4-3.5
		c4.7-9.7,14-30.9,21.6-58.9l15.3-8.2C-259.7,406.9-258.8,404.9-259.3,403z"/>
	<g>
		<circle class="st3" cx="-358.8" cy="343.4" r="8.1"/>
	</g>
	<g>
		<circle class="st1" cx="-358.8" cy="343.4" r="4.9"/>
	</g>
	<g>
		<circle class="st3" cx="-284.7" cy="343.4" r="8.1"/>
	</g>
	<g>
		<circle class="st1" cx="-284.7" cy="343.4" r="4.9"/>
	</g>
	<g>
		<g>
			<polygon class="st3" points="-335.8,364 -334.4,370 -330.3,365.4 			"/>
		</g>
		<g>
			<polygon class="st3" points="-307.7,364 -309.1,370 -313.2,365.4 			"/>
		</g>
	</g>
	<g>
		<g>
			<g>
				<path class="st1" d="M-288.2,360.2c-0.3,0-0.6-0.3-0.6-0.6c0-0.4,0.2-0.7,0.6-0.7l11.8-0.9c0.4,0,0.7,0.2,0.7,0.6
					c0,0.4-0.2,0.7-0.6,0.7L-288.2,360.2C-288.2,360.2-288.2,360.2-288.2,360.2z"/>
			</g>
			<g>
				<path class="st1" d="M-274.6,365.1C-274.7,365.1-274.7,365.1-274.6,365.1l-13.6-0.9c-0.4,0-0.6-0.3-0.6-0.7
					c0-0.4,0.3-0.6,0.7-0.6l13.5,0.9c0.4,0,0.6,0.3,0.6,0.7C-274,364.9-274.3,365.1-274.6,365.1z"/>
			</g>
			<g>
				<path class="st1" d="M-276.9,370.5c0,0-0.1,0-0.1,0l-11.6-2.4c-0.3-0.1-0.6-0.4-0.5-0.8c0.1-0.3,0.4-0.6,0.8-0.5l11.6,2.4
					c0.3,0.1,0.6,0.4,0.5,0.8C-276.4,370.3-276.6,370.5-276.9,370.5z"/>
			</g>
		</g>
		<g>
			<g>
				<path class="st1" d="M-355.3,360C-355.3,360-355.3,360-355.3,360l-11.9-0.9c-0.4,0-0.6-0.3-0.6-0.7s0.3-0.6,0.7-0.6l11.8,0.9
					c0.4,0,0.6,0.3,0.6,0.7C-354.7,359.7-354.9,360-355.3,360z"/>
			</g>
			<g>
				<path class="st1" d="M-368.8,364.9c-0.3,0-0.6-0.3-0.6-0.6c0-0.4,0.2-0.7,0.6-0.7l13.5-0.9c0.4,0,0.7,0.2,0.7,0.6
					c0,0.4-0.2,0.7-0.6,0.7L-368.8,364.9C-368.8,364.9-368.8,364.9-368.8,364.9z"/>
			</g>
			<g>
				<path class="st1" d="M-366.5,370.3c-0.3,0-0.6-0.2-0.6-0.5c-0.1-0.3,0.2-0.7,0.5-0.8l11.6-2.4c0.3-0.1,0.7,0.2,0.8,0.5
					c0.1,0.3-0.2,0.7-0.5,0.8l-11.6,2.4C-366.4,370.3-366.5,370.3-366.5,370.3z"/>
			</g>
		</g>
	</g>
	<g>
		<g>
			<path class="st1" d="M-366.7,328c-0.2,0-0.3-0.1-0.4-0.2c-0.3-0.2-0.3-0.7,0-0.9c3.5-3.6,9.1-4.8,14.4-3.2
				c0.3,0.1,0.5,0.5,0.4,0.8c-0.1,0.3-0.5,0.5-0.8,0.4c-4.8-1.5-9.9-0.4-13.1,2.8C-366.4,327.9-366.6,328-366.7,328z"/>
		</g>
		<g>
			<path class="st1" d="M-276.7,328c-0.2,0-0.3-0.1-0.5-0.2c-3.1-3.2-8.3-4.3-13.1-2.8c-0.3,0.1-0.7-0.1-0.8-0.4
				c-0.1-0.3,0.1-0.7,0.4-0.8c5.3-1.6,10.9-0.4,14.4,3.2c0.2,0.3,0.2,0.7,0,0.9C-276.4,327.9-276.6,328-276.7,328z"/>
		</g>
	</g>
	<path class="st1" d="M-300.2,359.9c-0.2-0.3-0.6-0.3-0.9-0.1c-0.1,0.1-6.8,5.6-20,5.8v-11.4h3.7c1.2,0,2.1-0.9,2.1-2.1l0,0
		c0-1.2-0.9-2.1-2.1-2.1h-8.7c-1.2,0-2.1,0.9-2.1,2.1l0,0c0,1.2,0.9,2.1,2.1,2.1h3.7v11.4c-13.2-0.2-19.9-5.7-20-5.8
		c-0.3-0.2-0.7-0.2-0.9,0.1s-0.2,0.7,0.1,0.9c0.3,0.2,7.4,6.1,21.5,6.1c14.1,0,21.2-5.9,21.5-6.1C-300,360.5-300,360.1-300.2,359.9z
		"/>
</g>
</svg>
