<?xml version="1.0" encoding="utf-8"?>
<!-- Generator: Adobe Illustrator 19.1.0, SVG Export Plug-In . SVG Version: 6.00 Build 0)  -->
<svg version="1.1" id="Layer_1" xmlns="http://www.w3.org/2000/svg" xmlns:xlink="http://www.w3.org/1999/xlink" x="0px" y="0px"
	 viewBox="-348 210 145 143.8" style="enable-background:new -348 210 145 143.8;" xml:space="preserve">
<style type="text/css">
	.st0{fill:#9A24F4;}
</style>
<g>
	<g transform="scale(1 -1)">
		<g transform="translate(0 -75)">
			<g>
				<path marker-start="none" marker-end="none" class="st0" d="M-262.3-260c2.9,6,11.8,10.2,20.5,13.1l2.8,0.9l-2.3,0.1
					c-2.8,0.2-5.7,0.6-7.5,1.1l-0.6,0.3c0,0,0-0.1-0.1-0.1c-0.1-0.3-0.4-0.4-0.7-0.5l-0.4-0.4c-3.9-2.6-11.8-2-14,1.9l-0.3,0.7
					l-1-0.6c-1.1-0.5-2.3-0.8-3.2-1c-4.7-0.7-10.5,0.7-10,5.6c0.1,1.5,1.3,3.4,2.3,4.7l0.7,0.8l0.6,2.2c2.4,10.8-1.2,30.5-3.6,36.4
					c-0.1-0.3-1.6,0.7-1.4,1.7c-2.7,1.1-10.9,5.4-13.5,15.1c-0.1-0.1-0.2-0.1-0.3-0.1c-1.6-0.5-4.1-1.4-5.7-2.2
					c-0.4-0.2-0.9,0-1.2,0.4c-0.2,0.4,0,0.9,0.4,1.2c1.7,0.8,4.2,1.8,5.9,2.3c0.1,0,0.3,0,0.4,0c-0.1,0.5-0.2,1-0.3,1.6
					c-0.8,0-1.8,0-2.7-0.1c-1.1-0.1-2.2-0.2-3.3-0.3c-0.5,0-0.9,0.3-0.9,0.8c0,0.5,0.3,0.9,0.8,0.9c1,0.1,2.1,0.2,3.2,0.3
					c0.9,0.1,1.8,0.1,2.7,0.1c-0.1,1.4-0.1,2.8,0.1,4.3c0.5,5.6,2.8,11.3,7.1,18c1.6,2.6,9,15.6,13.6,16c4.3,0.4,3.4-5.1,3.9-9
					l0.2-1.1l0.6-0.1c3.3-0.8,13.5-3.2,15.7-3.7l0,0l1,0.8c3.3,2.7,8.8,7,11.2,6.1c3.9-1.5,1.3-10.3,0.3-18.3
					c-0.9-6.7-1.3-8.6,0.8-12.6c0.8-1.4,2.3-4.1,4.8-5.4c9.7-5,16-8.2,21.9-14.9c5-5.7,9.2-12,10.3-20.5c0.8-6.6-0.1-12-1.7-16.6
					l-1.6-4.1l0.3-3c-0.4-7.6-8-13.2-15.7-15.1c-8.2-2-28.9-3.6-29.7-11.4c-0.2-2.4,4.3-3.1,7.1-7.1c1.5-2.2,0.7-5-1-6.5
					c-1.4-1.2-2.3-1.1-3.2-1.3C-258.3-280-266.6-268.9-262.3-260z M-249-277c1,0.1,1.3,0,2.2,0.8c1.3,1.1,1.6,3,0.8,4.3
					c-2.1,3.1-7.7,4.5-7.3,8.2c1,9.2,20.6,10.4,31,12.9c8.5,2.1,15.9,8.6,14.1,16.4c0,0.2,0,0.4,0.1,0.6c2.4,5.2,4.3,11.5,3.2,19.9
					c-1,8.1-5,14-9.8,19.6c-5.6,6.4-11.7,9.5-21.4,14.5c-3,1.6-4.8,4.6-5.6,6.1c-2.5,4.6-1.9,7-1,13.6c0.6,4.5,3.2,15.6,0.8,16.4
					c-1.5,0.5-6.6-3.4-10.8-6.9c-0.2-0.1-0.4-0.2-0.6-0.2l0,0l0,0c-1.1,0.1-16.3,3.7-17.4,4.1l-0.1,0l-0.1,0
					c-0.2,0.1-0.4,0.3-0.4,0.5c-1.4,4.3,0.2,9.5-2.4,9.3c-3.2-0.3-9.5-10.9-12.3-15.2c-4.2-6.6-6.3-11.9-6.8-17.2
					c-1.4-14.9,9.7-21.1,12.9-22.4c0.3,1.4,0.7,3,1.1,4.6c0.4,1.8,0.8,3.5,1,5c0.2,1.5,0.3,2.5,0.1,2.9c0,0,0,0,0,0
					c-0.7-0.2-1.5-0.2-2.2-0.1c-1.8,0.3-3.2,1.7-3.2,3.8c0,0.5,0.4,0.8,0.9,0.8c0.5,0,0.9-0.4,0.8-0.9c0-1.1,0.7-1.9,1.7-2.1
					c1.1-0.2,2.5,0.2,3.6,1.6c0.5,0.7,1.6,0.2,1.5-0.6c-0.1-1,0.2-1.6,0.6-1.9c0.4-0.3,1.1-0.5,1.9-0.4c0.8,0.1,1.5,0.4,1.9,0.9
					c0.4,0.4,0.6,0.9,0.5,1.4c-0.1,0.5,0.2,0.9,0.6,1.1c0.5,0.1,0.9-0.2,1.1-0.6c0.3-1.3-0.2-2.3-0.9-3.1c-0.8-0.7-1.9-1.2-2.9-1.3
					c-1.1-0.1-2.2,0-3.1,0.7c-0.5,0.4-0.8,0.8-1.1,1.4l0,0.1l-0.2-0.1c0,0,0,0,0,0c0.1-0.1,0.1-0.2,0.1-0.2c0.5-1.6-0.4-5.8-1.1-8.7
					c-0.4-1.8-0.8-3.6-1.2-5.1c3.2-4.4,8-30.6,4-41.7c0-0.1-0.1-0.2-0.2-0.3c-0.9-0.9-2.5-3.2-2.7-4.6c-0.2-2.7,3.2-4.4,8.1-3.7
					c1.5,0.2,3.1,0.9,3.9,1.4c-0.4,2.4,0.2,3.9,1,5.2c0.4,0.7,0.8,1.3,1.1,1.9c0.3,0.6,0.5,1.3,0.6,2.1c0.1,1.2-0.1,3.4-0.5,5.6
					c-0.2,1.1-0.4,2.2-0.7,3.1c-0.3,0.9-0.5,1.7-0.8,2.1c-0.2,0.4-0.1,0.9,0.4,1.2c0.4,0.2,0.9,0.1,1.2-0.4c0.7-1.2,1.2-3.5,1.6-5.7
					c0.4-2.2,0.7-4.6,0.5-6c-0.1-1.1-0.4-2-0.8-2.8c-0.4-0.7-0.8-1.4-1.2-2c-0.4-0.6-0.6-1.2-0.8-1.9c-0.1-0.5-0.1-1.1,0-1.8
					c0.2-0.1,0.4-0.4,0.4-0.7c0-3.9,9.3-5.6,12.5-2.2c0.6,1.2,0.8,2.4,0.8,3.6c0,1.3-0.2,2.7-0.7,4.1c-0.1,0.5,0.1,0.9,0.6,1.1
					c0.5,0.1,0.9-0.1,1.1-0.6c0.5-1.5,0.8-3.1,0.8-4.6c0-1-0.2-2-0.5-3c2.3-1,10.5-1.5,14-1.5c-0.3,1.8,0.2,3.3,1,4.6
					c0.5,0.7,1.1,1.4,1.8,1.9l0.9,0.7l-0.2,0.2c-0.4,0.4-0.8,0.9-1.2,1.5c-0.7,1.1-1,2.6-0.2,4c0.2,0.4,0.8,0.5,1.2,0.3
					c0.4-0.2,0.5-0.8,0.3-1.2c-0.4-0.6-0.3-1.4,0.2-2.2c0.5-0.8,1.3-1.5,1.9-1.9c0.5-0.3,0.5-1.1,0-1.5c-1.2-0.7-2.5-1.6-3.3-2.8
					c-0.6-0.8-0.9-1.8-0.8-3l0.1-0.6l1,0.2c8.4,1.4,13.7,4.2,16.3,9c0.2,0.4,0.8,0.6,1.2,0.3c0.4-0.2,0.6-0.8,0.3-1.2
					c-3.3-5.8-9.8-8.8-19.3-10.1c-0.1,0-0.1,0-0.2,0c-10.6-2.9-23.7-7.6-27.1-14.5C-264.5-268.4-257.2-278.1-249-277z M-252.2-189.3
					c-0.2,0.2-0.6,0.6-1.1,1c-0.5,0.4-1.1,0.8-1.8,1.2c-1.3,0.9-2.6,1.7-3.4,2c-0.4,0.2-0.6,0.7-0.4,1.2c0.2,0.4,0.7,0.6,1.2,0.4
					c0.8-0.4,2.2-1.3,3.5-2.1c1.3-0.8,2.6-1.8,3.2-2.5c0.3-0.4,0.3-0.9-0.1-1.2C-251.3-189.7-251.9-189.6-252.2-189.3z
					 M-256.7-182.4c-0.5,0.1-0.7,0.6-0.6,1.1c0.1,0.5,0.6,0.7,1.1,0.6c3-0.8,5.2-1.9,7.9-2.9c0.4-0.2,0.7-0.7,0.5-1.1
					c-0.2-0.4-0.7-0.7-1.1-0.5C-251.7-184.2-253.9-183.1-256.7-182.4z M-263.4-171c0,1.6,1.2,2.9,2.7,2.9c1.5,0,2.7-1.3,2.7-2.9
					c0-1.6-1.2-2.9-2.7-2.9C-262.2-173.9-263.4-172.6-263.4-171z M-288-167.5c0,1.6,1.2,2.9,2.7,2.9c1.5,0,2.7-1.3,2.7-2.9
					c0-1.6-1.2-2.9-2.7-2.9C-286.8-170.5-288-169.2-288-167.5z"/>
			</g>
		</g>
	</g>
	<g>
		<g>
			<path class="st0" d="M-280.4,268.2c-0.7,9-5.7,17.7-10.4,25.2c-5.9,9.5-14.4,14.4-23.2,20.8c-1,0.7,0,2.3,0.9,1.6
				c8.6-6.3,16.9-11.1,23-20.1c5.3-7.9,10.7-17.8,11.5-27.4C-278.5,267.1-280.3,267.1-280.4,268.2L-280.4,268.2z"/>
		</g>
	</g>
	<g transform="translate(0,-952.36218)">
		<path class="st0" d="M-314.6,1267c-3.2-5.8-10.5-7.9-16.3-4.7l-10.9,6c-5.8,3.2-7.9,10.5-4.7,16.3c3.2,5.8,10.5,7.9,16.3,4.7
			l10.9-6C-313.5,1280.1-311.3,1272.8-314.6,1267z M-316.4,1267.1l-2.2,1.2c-1-1.1-2.7-1.4-4-0.6l-4.4,2.4c-1.6,0.9-2.2,2.9-1.3,4.5
			c0.9,1.6,2.9,2.2,4.5,1.3l4.4-2.4c1.3-0.7,2-2.3,1.6-3.7l2.2-1.2c2.2,4.9,0.4,10.7-4.4,13.3l-10.9,6c-5,2.8-11.3,1-14.1-4.1
			c-2.8-5-1-11.3,4.1-14.1l10.9-6C-325.3,1261.1-319.4,1262.6-316.4,1267.1z M-319.6,1269.8c0.4,0.8,0.2,1.8-0.7,2.3l-4.4,2.4
			c-0.8,0.5-1.8,0.2-2.3-0.7c-0.5-0.8-0.2-1.8,0.7-2.3l4.4-2.4C-321.1,1268.7-320.1,1269-319.6,1269.8z"/>
	</g>
</g>
</svg>
