<?xml version="1.0" encoding="UTF-8" standalone="no"?>
<svg width="163px" height="41px" viewBox="0 0 163 41" version="1.1" xmlns="http://www.w3.org/2000/svg" xmlns:xlink="http://www.w3.org/1999/xlink">
    <!-- Generator: Sketch 41.1 (35376) - http://www.bohemiancoding.com/sketch -->
    <title>Logo</title>
    <desc>Created with Sketch.</desc>
    <defs></defs>
    <g id="Symbols" stroke="none" stroke-width="1" fill="none" fill-rule="evenodd">
        <g id="Header" transform="translate(-79.000000, -10.000000)" fill="#FFFFFF">
            <g id="Logo" transform="translate(79.000000, 10.000000)">
                <path d="M0,0.338809091 L0,3.22812314 L0,37.9598669 L0,40.849181 L2.89196967,40.849181 L159.847883,40.849181 L162.739853,40.849181 L162.739853,0.338809091 L0,0.338809091 Z M2.89196967,37.9595281 L159.847544,37.9595281 L159.847544,3.22812314 L2.89196967,3.22812314 L2.89196967,37.9595281 Z" id="Fill-1"></path>
                <g id="Group-16" transform="translate(19.294118, 11.040999)">
                    <path d="M3.04642436,15.8858357 C3.94993171,15.8858357 4.46273318,15.7879101 4.73134347,14.9096291 C4.85343906,14.4948853 4.95111553,13.8605712 4.97553465,13.0063481 C4.99995377,12.1524638 4.99995377,11.0058192 4.99995377,9.54167866 C4.99995377,8.07787701 4.99995377,6.93089353 4.97553465,6.07734808 C4.95111553,5.24786048 4.85343906,4.61320758 4.73134347,4.17406709 C4.46273318,3.32018279 3.94993171,3.22293486 3.04642436,3.22293486 L3.04642436,15.8858357 Z M0.408820496,18.5203398 L0.408820496,0.587753038 L2.48478465,0.587753038 C4.92669642,0.587753038 6.24566792,1.07534808 6.95382233,2.4419018 C7.63755763,3.80777783 7.7352341,6.05261254 7.7352341,9.5664142 C7.7352341,13.079877 7.63755763,15.2999762 6.95382233,16.6661911 C6.24566792,18.0327448 4.92669642,18.5203398 2.48478465,18.5203398 L0.408820496,18.5203398 Z" id="Fill-2"></path>
                    <polygon id="Fill-4" points="11.9342031 18.5203398 14.571807 18.5203398 14.571807 0.587414195 11.9342031 0.587414195"></polygon>
                    <polygon id="Fill-6" points="30.045727 18.5203398 32.6833309 18.5203398 32.6833309 0.587414195 30.045727 0.587414195"></polygon>
                    <path d="M39.5525304,15.8858357 C40.4560378,15.8858357 40.9688392,15.7879101 41.2374495,14.9096291 C41.3595451,14.4948853 41.4572216,13.8605712 41.4819799,13.0063481 C41.5060598,12.1524638 41.5060598,11.0058192 41.5060598,9.54167866 C41.5060598,8.07787701 41.5060598,6.93089353 41.4819799,6.07734808 C41.4572216,5.24786048 41.3595451,4.61320758 41.2374495,4.17406709 C40.9688392,3.32018279 40.4560378,3.22293486 39.5525304,3.22293486 L39.5525304,15.8858357 Z M36.9149266,18.5203398 L36.9149266,0.587753038 L38.9908907,0.587753038 C41.4328025,0.587753038 42.751774,1.07534808 43.4599284,2.4419018 C44.1436637,3.80777783 44.2413402,6.05261254 44.2413402,9.5664142 C44.2413402,13.079877 44.1436637,15.2999762 43.4599284,16.6661911 C42.751774,18.0327448 41.4328025,18.5203398 38.9908907,18.5203398 L36.9149266,18.5203398 Z" id="Fill-7"></path>
                    <polygon id="Fill-8" points="48.4404449 0.587583617 54.4726452 0.587583617 54.4726452 3.29561667 51.0780487 3.29561667 51.0780487 8.0045175 53.5202996 8.0045175 53.5202996 10.8840051 51.0780487 10.8840051 51.0780487 15.8124762 54.4726452 15.8124762 54.4726452 18.5205092 48.4404449 18.5205092"></polygon>
                    <polygon id="Fill-9" points="63.0671572 18.5204754 61.3818989 7.24852494 61.2842224 6.49222742 61.1377077 6.49222742 61.1377077 18.5204754 58.6954568 18.5204754 58.6954568 0.587549733 61.9191195 0.587549733 63.4822822 8.78551667 63.6043778 9.73698775 63.653216 9.73698775 63.7753116 8.78551667 65.3381351 0.587549733 68.5617978 0.587549733 68.5617978 18.5204754 66.119886 18.5204754 66.119886 6.49222742 65.9730322 6.49222742 65.8753557 7.24852494 64.1907757 18.5204754"></polygon>
                    <path d="M25.8293933,7.02892081 L25.8293933,4.27175552 C25.8049742,3.56425139 25.6584595,2.9052018 25.3898492,2.34407783 C25.1700771,1.85614395 24.8282095,1.36854891 24.339488,1.00259849 C23.8511056,0.63664808 23.1917894,0.392342295 22.3127012,0.392342295 C21.433613,0.392342295 20.7495385,0.63664808 20.2611562,1.00259849 C19.773113,1.36854891 19.4553253,1.85614395 19.2355532,2.34407783 C18.9669429,2.9052018 18.8204282,3.56425139 18.7960091,4.27175552 L18.7960091,10.4952844 L18.7960091,14.8362018 C18.8204282,15.5437059 18.9669429,16.2027555 19.2355532,16.7638795 C19.4553253,17.2518134 19.773113,17.7394084 20.2611562,18.1053588 C20.7495385,18.4716481 21.433613,18.715615 22.3127012,18.715615 C23.1917894,18.715615 23.8511056,18.4716481 24.339488,18.1053588 C24.8282095,17.7394084 25.1700771,17.2518134 25.3898492,16.7638795 C25.6584595,16.2027555 25.8049742,15.5437059 25.8293933,14.8362018 L25.8293933,12.0790365 L25.8293933,9.59091254 L22.4778694,9.59091254 L22.4778694,11.8110117 L23.1917894,11.8110117 L23.1917894,12.0790365 L23.1917894,13.1233506 L23.1917894,14.8362018 C23.1917894,15.3244745 23.094113,15.6660282 22.8499218,15.9587886 C22.727487,16.0804332 22.5324733,16.1539621 22.3127012,16.1539621 C21.848738,16.1539621 21.6286267,15.8124084 21.5309503,15.4952514 C21.4576929,15.3000778 21.433613,15.0805076 21.433613,14.8362018 L21.433613,10.4952844 L21.433613,4.27175552 C21.433613,4.02778858 21.4576929,3.80787948 21.5309503,3.61270593 C21.6286267,3.29554891 21.848738,2.95433403 22.3127012,2.95433403 C22.5324733,2.95433403 22.727487,3.02752411 22.8499218,3.14950758 C23.094113,3.44192907 23.1917894,3.78348279 23.1917894,4.27175552 L23.1917894,7.02892081 L25.8293933,7.02892081 Z" id="Fill-10"></path>
                    <path d="M84.0662417,7.00804808 L84.0662417,4.25088279 C84.0418226,3.54337866 83.8953079,2.88432907 83.6266976,2.3232051 C83.4069256,1.83527122 83.0650579,1.34767618 82.5763364,0.981725766 C82.087954,0.615775352 81.4286379,0.371469567 80.5495496,0.371469567 C79.6704614,0.371469567 78.9863869,0.615775352 78.4980046,0.981725766 C78.0099614,1.34767618 77.6921737,1.83527122 77.4724017,2.3232051 C77.2037914,2.88432907 77.0572767,3.54337866 77.0328575,4.25088279 L77.0328575,10.4744117 L77.0328575,14.8153291 C77.0572767,15.5228332 77.2037914,16.1818828 77.4724017,16.7430068 C77.6921737,17.2309406 78.0099614,17.7185357 78.4980046,18.0844861 C78.9863869,18.4507754 79.6704614,18.6947423 80.5495496,18.6947423 C81.4286379,18.6947423 82.087954,18.4507754 82.5763364,18.0844861 C83.0650579,17.7185357 83.4069256,17.2309406 83.6266976,16.7430068 C83.8953079,16.1818828 84.0418226,15.5228332 84.0662417,14.8153291 L84.0662417,12.0581638 L84.0662417,9.57003982 L80.7147178,9.57003982 L80.7147178,11.790139 L81.4286379,11.790139 L81.4286379,12.0581638 L81.4286379,13.1024778 L81.4286379,14.8153291 C81.4286379,15.3036018 81.3309614,15.6451555 81.0867702,15.9379158 C80.9643355,16.0595605 80.7693217,16.1330894 80.5495496,16.1330894 C80.0855864,16.1330894 79.8654752,15.7915357 79.7677987,15.4743787 C79.6945414,15.2792051 79.6704614,15.0596349 79.6704614,14.8153291 L79.6704614,10.4744117 L79.6704614,4.25088279 C79.6704614,4.00691585 79.6945414,3.78700676 79.7677987,3.5918332 C79.8654752,3.27467618 80.0855864,2.9334613 80.5495496,2.9334613 C80.7693217,2.9334613 80.9643355,3.00665139 81.0867702,3.12863486 C81.3309614,3.42105634 81.4286379,3.76261006 81.4286379,4.25088279 L81.4286379,7.00804808 L84.0662417,7.00804808 Z" id="Fill-11"></path>
                    <path d="M95.3094818,0.566744774 L95.3094818,14.8157696 C95.2850627,15.5476704 95.138548,16.2063811 94.8699377,16.7678439 C94.6501656,17.2557778 94.308298,17.719315 93.8195765,18.0852654 C93.3315333,18.4756125 92.6722171,18.6951828 91.7927897,18.6951828 C90.9137015,18.6951828 90.229627,18.4756125 89.7415838,18.0852654 C89.2532015,17.719315 88.9354138,17.2557778 88.7159809,16.7678439 C88.4473706,16.2063811 88.3005167,15.5476704 88.2764368,14.8157696 L88.2764368,0.566744774 L90.9137015,0.566744774 L90.9137015,14.8157696 C90.9137015,15.3281001 91.0357971,15.6696539 91.2799882,15.9380175 C91.4020838,16.0603398 91.5730176,16.1331911 91.7927897,16.1331911 C92.2567529,16.1331911 92.476525,15.8404307 92.5745406,15.4744803 C92.6474588,15.3037035 92.6722171,15.0841332 92.6722171,14.8157696 L92.6722171,0.566744774 L95.3094818,0.566744774 Z" id="Fill-12"></path>
                    <polygon id="Fill-13" points="99.5442316 18.5000092 102.181835 18.5000092 102.181835 0.566744774 99.5442316 0.566744774"></polygon>
                    <path d="M109.044693,15.864963 C109.9482,15.864963 110.461002,15.7673762 110.729612,14.8887563 C110.851708,14.4743514 110.949384,13.8396985 110.973803,12.9858142 C110.998222,12.1315911 110.998222,10.9852853 110.998222,9.52114477 C110.998222,8.05734312 110.998222,6.91035965 110.973803,6.05647535 C110.949384,5.22698775 110.851708,4.59233486 110.729612,4.1535332 C110.461002,3.29931006 109.9482,3.20206213 109.044693,3.20206213 L109.044693,15.864963 Z M106.407089,18.4998059 L106.407089,0.566880311 L108.483053,0.566880311 C110.924965,0.566880311 112.243936,1.0548142 112.952091,2.42102907 C113.635826,3.78724395 113.733503,6.03207866 113.733503,9.54554147 C113.733503,13.0590043 113.635826,15.2791035 112.952091,16.6456572 C112.243936,18.011872 110.924965,18.4998059 108.483053,18.4998059 L106.407089,18.4998059 Z" id="Fill-14"></path>
                    <polygon id="Fill-15" points="117.932607 0.566744774 123.964808 0.566744774 123.964808 3.27511667 120.570211 3.27511667 120.570211 7.9840175 123.012462 7.9840175 123.012462 10.8631663 120.570211 10.8631663 120.570211 15.7916373 123.964808 15.7916373 123.964808 18.5000092 117.932607 18.5000092"></polygon>
                </g>
            </g>
        </g>
    </g>
</svg>