<?xml version="1.0" encoding="UTF-8" standalone="no"?>
<svg width="195px" height="49px" viewBox="0 0 195 49" version="1.1" xmlns="http://www.w3.org/2000/svg" xmlns:xlink="http://www.w3.org/1999/xlink">
    <!-- Generator: Sketch 41.1 (35376) - http://www.bohemiancoding.com/sketch -->
    <title>DL_logotyp_box_white</title>
    <desc>Created with Sketch.</desc>
    <defs>
        <polygon id="path-1" points="0 48.9714563 194.728466 48.9714563 194.728466 0.237864078 0 0.237864078"></polygon>
    </defs>
    <g id="Symbols" stroke="none" stroke-width="1" fill="none" fill-rule="evenodd">
        <g id="Footer" transform="translate(-90.000000, -117.000000)">
            <g id="DL_logotyp_box_white" transform="translate(90.000000, 117.000000)">
                <polyline id="Fill-1" fill="#FFFFFF" points="150.865711 19.5681262 150.658694 19.5681262 150.555425 20.2184466 149.488307 28.1654854 152.036098 28.1654854 150.968981 20.2184466 150.865711 19.5681262"></polyline>
                <path d="M81.252999,17.0667476 C80.8743442,15.8679126 80.1514579,15.7313786 78.877801,15.7313786 L78.877801,33.5102913 C80.1514579,33.5102913 80.8743442,33.3723301 81.252999,32.1397184 C81.4255929,31.5569515 81.5632855,30.6668641 81.5977087,29.4670777 C81.6316538,28.2687184 81.6316538,26.6583786 81.6316538,24.603233 C81.6316538,22.5476117 81.6316538,20.9377476 81.5977087,19.7389126 C81.5632855,18.5748058 81.4255929,17.683767 81.252999,17.0667476" id="Fill-2" fill="#FFFFFF"></path>
                <path d="M166.386253,26.1788447 C165.766636,25.7340388 165.043272,25.8015922 164.733941,25.8015922 L164.733941,33.5435922 C165.043272,33.5435922 165.766636,33.6120971 166.386253,33.1672913 C167.00587,32.7220097 167.487316,31.7286893 167.487316,29.6725922 C167.487316,27.6174466 167.00587,26.6241262 166.386253,26.1788447" id="Fill-3" fill="#FFFFFF"></path>
                <g id="Group-7">
                    <mask id="mask-2" fill="white">
                        <use xlink:href="#path-1"></use>
                    </mask>
                    <g id="Clip-5"></g>
                    <path d="M29.791332,17.0667476 C29.4126772,15.8679126 28.6897909,15.7313786 27.416134,15.7313786 L27.416134,33.5102913 C28.6897909,33.5102913 29.4126772,33.3723301 29.791332,32.1397184 C29.9634478,31.5569515 30.1011404,30.6668641 30.1355636,29.4670777 C30.1699868,28.2687184 30.1699868,26.6583786 30.1699868,24.603233 C30.1699868,22.5476117 30.1699868,20.9377476 30.1355636,19.7389126 C30.1011404,18.5748058 29.9634478,17.683767 29.791332,17.0667476" id="Fill-4" fill="#FFFFFF" mask="url(#mask-2)"></path>
                    <path d="M170.138377,34.9484175 C169.277798,36.2500097 167.797603,37.1067961 165.594042,37.2090777 L161.015284,37.2090777 L161.015284,12.0316408 L164.285962,12.0316408 C166.489044,12.0316408 168.21068,12.4421942 169.346645,13.5044951 C170.482609,14.5663204 171.068281,16.2109126 171.068281,18.7113398 C171.068281,19.9101748 170.965011,20.8012136 170.586357,21.6232718 C170.207224,22.4448544 169.62203,23.1303786 168.761451,23.9181845 C169.690876,24.4319709 170.37934,25.3910388 170.930588,27.0013786 C171.205973,27.7891845 171.343666,28.8167573 171.343666,30.0840971 C171.343666,31.9684563 170.998956,33.6468252 170.138377,34.9484175 Z M153.240909,37.2090777 L152.552446,32.0707379 L148.971959,32.0707379 L148.283018,37.2090777 L144.668586,37.2090777 L148.490035,12.0316408 L153.03437,12.0316408 L156.855341,37.2090777 L153.240909,37.2090777 Z M140.401071,37.2090777 L131.759901,37.2090777 L131.759901,12.0316408 L135.478081,12.0316408 L135.478081,33.7843107 L140.401071,33.7843107 L140.401071,37.2090777 Z M119.772036,37.2090777 L116.329242,37.2090777 L116.329242,20.3216796 L116.122703,20.3216796 L115.985011,21.3835049 L113.609813,37.2090777 L112.025869,37.2090777 L109.650671,21.3835049 L109.512979,20.3216796 L109.30644,20.3216796 L109.30644,37.2090777 L105.863646,37.2090777 L105.863646,12.0316408 L110.407981,12.0316408 L112.611063,23.540932 L112.783179,24.8772524 L112.852025,24.8772524 L113.024141,23.540932 L115.227701,12.0316408 L119.772036,12.0316408 L119.772036,37.2090777 Z M99.9108295,15.8336602 L95.1255322,15.8336602 L95.1255322,22.4448544 L98.5678481,22.4448544 L98.5678481,26.4875922 L95.1255322,26.4875922 L95.1255322,33.4070583 L99.9108295,33.4070583 L99.9108295,37.2090777 L91.4068748,37.2090777 L91.4068748,12.0316408 L99.9108295,12.0316408 L99.9108295,15.8336602 Z M84.3859846,34.6054175 C83.387713,36.5240291 81.5283843,37.2090777 78.0860683,37.2090777 L75.1596217,37.2090777 L75.1596217,12.0316408 L78.0860683,12.0316408 C81.5283843,12.0316408 83.387713,12.7162136 84.3859846,14.635301 C85.3503112,16.5529612 85.4880038,19.7046602 85.4880038,24.6374854 C85.4880038,29.5703107 85.3503112,32.6877573 84.3859846,34.6054175 Z M65.4761957,37.2090777 L69.1948531,37.2090777 L69.1948531,12.0316408 L65.4761957,12.0316408 L65.4761957,37.2090777 Z M59.5329417,21.075233 L55.8142843,21.075233 L55.8142843,17.204233 C55.8142843,16.5187087 55.6765916,16.0391748 55.33236,15.6286214 C55.1602442,15.4573592 54.8853371,15.3541262 54.5750505,15.3541262 C53.9210105,15.3541262 53.6112021,15.8336602 53.4735094,16.2789417 C53.3702399,16.5529612 53.3362949,16.861233 53.3362949,17.204233 L53.3362949,32.0364854 C53.3362949,32.3794854 53.3702399,32.6877573 53.4735094,32.9617767 C53.6112021,33.4070583 53.9210105,33.8861165 54.5750505,33.8861165 C54.8853371,33.8861165 55.1602442,33.7833592 55.33236,33.6120971 C55.6765916,33.2015437 55.8142843,32.7220097 55.8142843,32.0364854 L55.8142843,27.7891845 L54.808363,27.7891845 L54.808363,24.6717379 L59.5329417,24.6717379 L59.5329417,32.0364854 C59.4980404,33.0298058 59.2919795,33.9550971 58.9133248,34.7429029 C58.6030383,35.4279515 58.121114,36.1125243 57.4326508,36.6263107 C56.7441877,37.1400971 55.8142843,37.4830971 54.5750505,37.4830971 C53.3362949,37.4830971 52.3719683,37.1400971 51.6835051,36.6263107 C50.995042,36.1125243 50.5475409,35.4279515 50.2372543,34.7429029 C49.8585996,33.9550971 49.6525387,33.0298058 49.6176375,32.0364854 L49.6176375,17.204233 C49.6525387,16.2109126 49.8585996,15.2856214 50.2372543,14.4978155 C50.5475409,13.812767 50.995042,13.1281942 51.6835051,12.6144078 C52.3719683,12.1006214 53.3362949,11.7576214 54.5750505,11.7576214 C55.8142843,11.7576214 56.7441877,12.1006214 57.4326508,12.6144078 C58.121114,13.1281942 58.6030383,13.812767 58.9133248,14.4978155 C59.2919795,15.2856214 59.4980404,16.2109126 59.5329417,17.204233 L59.5329417,21.075233 Z M39.9452078,37.2090777 L43.6633871,37.2090777 L43.6633871,12.0316408 L39.9452078,12.0316408 L39.9452078,37.2090777 Z M32.9238395,34.6054175 C31.9255679,36.5240291 30.0667173,37.2090777 26.6244013,37.2090777 L23.6974766,37.2090777 L23.6974766,12.0316408 L26.6244013,12.0316408 C30.0667173,12.0316408 31.9255679,12.7162136 32.9238395,14.635301 C33.8881661,16.5529612 34.0258587,19.7046602 34.0258587,24.6374854 C34.0258587,29.5703107 33.8881661,32.6877573 32.9238395,34.6054175 Z M0,49 L194.728466,49 L194.728466,0.237864078 L0,0.237864078 L0,49 Z" id="Fill-6" fill="#FFFFFF" mask="url(#mask-2)"></path>
                </g>
                <path d="M166.386253,16.0734272 C165.766636,15.6628738 165.043272,15.6971262 164.733941,15.6971262 L164.733941,22.4110777 C165.043272,22.4110777 165.766636,22.4448544 166.386253,22.0338252 C167.00587,21.6232718 167.487316,20.8012136 167.487316,19.0543398 C167.487316,17.3065146 167.00587,16.484932 166.386253,16.0734272" id="Fill-8" fill="#FFFFFF"></path>
            </g>
        </g>
    </g>
</svg>