<?xml version="1.0" encoding="utf-8"?>
<!-- Generator: Adobe Illustrator 19.1.0, SVG Export Plug-In . SVG Version: 6.00 Build 0)  -->
<svg version="1.1" id="Lager_1" xmlns="http://www.w3.org/2000/svg" xmlns:xlink="http://www.w3.org/1999/xlink" x="0px" y="0px"
	 viewBox="0 0 267.4 60.8" style="enable-background:new 0 0 267.4 60.8;" xml:space="preserve">
<style type="text/css">
	.st0{fill:#6F05CC;}
	.st1{fill:#FFAEBF;}
	.st2{fill:#FFFFFF;}
	.st3{fill:none;stroke:#FFAEBF;stroke-miterlimit:10;}
</style>
<g>
	<g>
		<path class="st2" d="M87,8c8.2,0,11.3,5.6,11.3,12.6v13.9c0,7-3.1,12.6-11.3,12.6H76V8H87z M81.3,41.8H87c3.7,0,6-2.3,6-7.4V20.6
			c0-5.1-2.3-7.4-6-7.4h-5.7V41.8z"/>
		<path class="st2" d="M123.5,8c1.6,0,1.6,1.6,1.6,1.6v2.2c0,0,0,1.6-1.5,1.6h-14.1v11.4h10.5c1.6,0,1.6,1.6,1.6,1.6v2.2
			c0,0,0,1.6-1.5,1.6h-10.5v11.7h14.1c1.6,0,1.6,1.6,1.6,1.6v2.2c0,0,0,1.6-1.5,1.6h-19.5V8H123.5z"/>
		<path class="st2" d="M135.5,8c0,0,1.1,0,1.7,1.2l6.2,14.6l6.1-14.6C150,8,151.2,8,151.2,8h3.1c0,0,1.7,0,1.7,1.6v35.9
			c0,0,0,1.6-1.7,1.6h-2c0,0-1.7,0-1.7-1.6l0.6-27.6l-4.9,12.5c-0.4,1.1-0.9,1.2-1.5,1.2h-2.5c-0.7,0-1.2-0.1-1.7-1.2l-5.2-12.8
			l0.6,27.9c0,0,0,1.6-1.6,1.6h-2.1c0,0-1.6,0-1.6-1.6V9.6c0,0,0-1.6,1.6-1.6H135.5z"/>
		<path class="st2" d="M185,20.3v14.5c0,7.1-3.2,12.7-11.4,12.7c-8.2,0-11.4-5.6-11.4-12.7V20.3c0-7.1,3.2-12.7,11.4-12.7
			C181.8,7.6,185,13.2,185,20.3z M167.5,20.3v14.5c0,5.1,2.4,7.4,6.1,7.4s6.1-2.2,6.1-7.4V20.3c0-5.1-2.3-7.4-6.1-7.4
			S167.5,15.2,167.5,20.3z"/>
		<path class="st2" d="M213.2,17.1c0.1,0.7-0.1,1.6-1.1,1.9l-1.9,0.5c-1,0.3-2.1-0.3-2.3-1.2c-0.3-3.3-2.3-5.4-5.8-5.4
			c-4.2,0-6.2,2.2-6.2,7.4v14.5c0,5.2,1.9,7.4,6.2,7.4c3.7,0,5.9-2.2,5.9-7.4c0-1.6,1.5-1.6,1.5-1.6h2.2c0,0,1.6,0,1.6,1.6
			c0,7.1-3.1,12.7-11.3,12.7c-7.6,0-11.5-5.3-11.5-12.7V20.3c0-7.4,3.9-12.7,11.5-12.7C209.3,7.6,212.4,11.9,213.2,17.1z"/>
		<path class="st2" d="M233.1,8c0,0,1.3,0,1.7,1.3l9.9,36c0.5,1.8-1.4,1.8-1.4,1.8h-2.5c-0.6,0-1.3-0.4-1.5-1.3l-3.5-12.5H226
			l-3.6,12.5c-0.3,0.9-0.9,1.3-1.5,1.3h-2.6c0,0-1.8,0-1.3-1.8l10-36c0.4-1.3,1.6-1.3,1.6-1.3H233.1z M230.8,13.8l-3.5,14.1h7.1
			l-3.5-14.1H230.8z"/>
		<path class="st2" d="M265.8,8c1.6,0,1.6,1.6,1.6,1.6v2.1c0,0,0,1.6-1.6,1.6h-7.3v32.2c0,1.6-1.5,1.6-1.5,1.6h-2.2
			c0,0-1.6,0-1.6-1.6V13.3H246c-1.6,0-1.6-1.6-1.6-1.6V9.6c0,0,0-1.6,1.6-1.6H265.8z"/>
	</g>
</g>
<g>
	<g>
		<path class="st1" d="M29.4,54.2c20,0,28.4-10.5,29.2-26.1c0-0.1,0-0.2,0-0.3c0.2-3.1,0.6-21.2-2-27.8c0,0-7.2,4.8-8.6,6.8
			c0,0-8.6-2.3-18.7-2.3S10.7,6.8,10.7,6.8C9.2,4.8,2.1,0,2.1,0c-2.6,6.6-2.1,24.7-2,27.8c0,0.1,0,0.2,0,0.3
			C1,43.7,9.4,54.2,29.4,54.2z"/>
	</g>
	<g>
		<circle class="st2" cx="9.9" cy="25.8" r="4.2"/>
	</g>
	<g>
		<circle class="st0" cx="9.9" cy="25.8" r="2.6"/>
	</g>
	<g>
		<circle class="st2" cx="48.7" cy="25.8" r="4.2"/>
	</g>
	<g>
		<circle class="st0" cx="48.7" cy="25.8" r="2.6"/>
	</g>
	<g>
		<g>
			<g>
				<path class="st0" d="M46,34.8c-0.2,0-0.4-0.2-0.4-0.4c0-0.2,0.2-0.4,0.4-0.4l5.9-0.5c0.2,0,0.4,0.2,0.4,0.4
					c0,0.2-0.2,0.4-0.4,0.4L46,34.8C46,34.8,46,34.8,46,34.8z"/>
			</g>
			<g>
				<path class="st0" d="M52.7,37.2C52.7,37.2,52.7,37.2,52.7,37.2l-6.8-0.4c-0.2,0-0.4-0.2-0.4-0.4c0-0.2,0.2-0.4,0.4-0.4l6.7,0.4
					c0.2,0,0.4,0.2,0.4,0.4C53.1,37,52.9,37.2,52.7,37.2z"/>
			</g>
			<g>
				<path class="st0" d="M51.6,39.9C51.5,39.9,51.5,39.9,51.6,39.9l-5.8-1.2c-0.2,0-0.4-0.3-0.3-0.5c0-0.2,0.3-0.4,0.5-0.3l5.8,1.2
					c0.2,0,0.4,0.3,0.3,0.5C51.9,39.7,51.8,39.9,51.6,39.9z"/>
			</g>
		</g>
		<g>
			<g>
				<path class="st0" d="M12.6,34.7C12.6,34.7,12.6,34.7,12.6,34.7l-5.9-0.5c-0.2,0-0.4-0.2-0.4-0.4c0-0.2,0.2-0.4,0.4-0.4l5.9,0.5
					c0.2,0,0.4,0.2,0.4,0.4C13,34.5,12.8,34.7,12.6,34.7z"/>
			</g>
			<g>
				<path class="st0" d="M5.9,37.1c-0.2,0-0.4-0.2-0.4-0.4c0-0.2,0.2-0.4,0.4-0.4l6.7-0.4c0.2,0,0.4,0.2,0.4,0.4
					c0,0.2-0.2,0.4-0.4,0.4L5.9,37.1C5.9,37.1,5.9,37.1,5.9,37.1z"/>
			</g>
			<g>
				<path class="st0" d="M7,39.8c-0.2,0-0.4-0.1-0.4-0.3c0-0.2,0.1-0.4,0.3-0.5l5.8-1.2c0.2,0,0.4,0.1,0.5,0.3
					c0,0.2-0.1,0.4-0.3,0.5L7,39.8C7.1,39.8,7.1,39.8,7,39.8z"/>
			</g>
		</g>
	</g>
	<g>
		<g>
			<path class="st0" d="M5.8,17.8c-0.1,0-0.2,0-0.3-0.1c-0.2-0.2-0.2-0.4,0-0.6c1.8-1.9,4.8-2.5,7.6-1.7c0.2,0.1,0.3,0.3,0.3,0.5
				c-0.1,0.2-0.3,0.3-0.5,0.3c-2.5-0.8-5.1-0.2-6.7,1.5C6,17.8,5.9,17.8,5.8,17.8z"/>
		</g>
		<g>
			<path class="st0" d="M52.8,17.8c-0.1,0-0.2,0-0.3-0.1c-1.6-1.7-4.3-2.2-6.7-1.5c-0.2,0.1-0.5-0.1-0.5-0.3
				c-0.1-0.2,0.1-0.5,0.3-0.5c2.8-0.9,5.8-0.2,7.6,1.7c0.2,0.2,0.2,0.4,0,0.6C53.1,17.8,53,17.8,52.8,17.8z"/>
		</g>
	</g>
	<g>
		<g>
			<polygon class="st2" points="22,36.6 22.7,39.7 24.8,37.3 			"/>
		</g>
		<g>
			<polygon class="st2" points="36.7,36.6 35.9,39.7 33.8,37.3 			"/>
		</g>
	</g>
	<g>
		<path class="st0" d="M29.3,38.1c-7.4,0-11.1-3.1-11.3-3.2c-0.2-0.1-0.2-0.4,0-0.6c0.1-0.2,0.4-0.2,0.6,0c0,0,3.7,3,10.7,3
			c7.1,0,10.7-3,10.7-3c0.2-0.1,0.4-0.1,0.6,0c0.1,0.2,0.1,0.4,0,0.6C40.4,35.1,36.7,38.1,29.3,38.1z"/>
	</g>
	<g>
		<path class="st0" d="M29.3,37.9c-0.2,0-0.4-0.2-0.4-0.4v-7.4c0-0.2,0.2-0.4,0.4-0.4c0.2,0,0.4,0.2,0.4,0.4v7.4
			C29.7,37.7,29.5,37.9,29.3,37.9z"/>
	</g>
	<g>
		<path class="st0" d="M31.6,31.4H27c-0.6,0-1.1-0.5-1.1-1.1v0c0-0.6,0.5-1.1,1.1-1.1h4.6c0.6,0,1.1,0.5,1.1,1.1v0
			C32.7,30.9,32.2,31.4,31.6,31.4z"/>
	</g>
	<g>
		<path class="st0" d="M33.6,47.6c-0.2,0-0.4-0.2-0.4-0.4c0-0.3-0.1-0.5-0.3-0.7c-0.2-0.3-0.6-0.6-0.6-1.3c0-0.7,0.3-1,0.6-1.3
			c0.2-0.2,0.3-0.4,0.3-0.7c0-0.3-0.1-0.5-0.3-0.7c-0.2-0.3-0.6-0.6-0.6-1.3c0-0.7,0.3-1,0.6-1.3c0.2-0.2,0.3-0.4,0.3-0.7
			c0-0.3-0.1-0.5-0.3-0.7c-0.2-0.3-0.6-0.6-0.6-1.3c0-0.2,0.2-0.4,0.4-0.4s0.4,0.2,0.4,0.4c0,0.3,0.1,0.5,0.3,0.7
			c0.2,0.3,0.6,0.6,0.6,1.3c0,0.7-0.3,1-0.6,1.3c-0.2,0.2-0.3,0.4-0.3,0.7c0,0.3,0.1,0.5,0.3,0.7c0.2,0.3,0.6,0.6,0.6,1.3
			c0,0.7-0.3,1-0.6,1.3c-0.2,0.2-0.3,0.4-0.3,0.7c0,0.3,0.1,0.5,0.3,0.7c0.2,0.3,0.6,0.6,0.6,1.3C34,47.4,33.8,47.6,33.6,47.6z"/>
	</g>
	<g>
		<g>
			<g>
				<path class="st2" d="M34.5,60.8h-1.8c-1.8,0-3.3-1.5-3.3-3.3v-6.9c0-1.8,1.5-3.3,3.3-3.3h1.8c1.8,0,3.3,1.5,3.3,3.3v6.9
					C37.8,59.3,36.3,60.8,34.5,60.8z"/>
			</g>
		</g>
		<g>
			<g>
				<path class="st0" d="M33.6,58.6c-0.4,0-0.7-0.3-0.7-0.7v-1.5c0-0.4,0.3-0.7,0.7-0.7s0.7,0.3,0.7,0.7v1.5
					C34.3,58.3,34,58.6,33.6,58.6z"/>
			</g>
		</g>
	</g>
</g>
</svg>
